<?xml version="1.0" encoding="UTF-8" standalone="no"?>
<svg
   xmlns:dc="http://purl.org/dc/elements/1.1/"
   xmlns:cc="http://creativecommons.org/ns#"
   xmlns:rdf="http://www.w3.org/1999/02/22-rdf-syntax-ns#"
   xmlns:svg="http://www.w3.org/2000/svg"
   xmlns="http://www.w3.org/2000/svg"
   xmlns:xlink="http://www.w3.org/1999/xlink"
   xmlns:sodipodi="http://sodipodi.sourceforge.net/DTD/sodipodi-0.dtd"
   xmlns:inkscape="http://www.inkscape.org/namespaces/inkscape"
   width="283"
   height="220"
   enable-background="new -14.748 -5.897 283 325"
   overflow="visible"
   version="1.1"
   viewBox="-14.748 -5.897 283 220"
   xml:space="preserve"
   id="svg6350"
   inkscape:version="0.91 r13725"
   sodipodi:docname="dressur.svg"
   style="overflow:visible"><metadata
   id="metadata6370"><rdf:RDF><cc:Work
       rdf:about=""><dc:format>image/svg+xml</dc:format><dc:type
         rdf:resource="http://purl.org/dc/dcmitype/StillImage" /><dc:title></dc:title></cc:Work></rdf:RDF></metadata><defs
   id="defs6368" /><sodipodi:namedview
   pagecolor="#ffffff"
   bordercolor="#666666"
   borderopacity="1"
   objecttolerance="10"
   gridtolerance="10"
   guidetolerance="10"
   inkscape:pageopacity="0"
   inkscape:pageshadow="2"
   inkscape:window-width="1280"
   inkscape:window-height="790"
   id="namedview6366"
   showgrid="false"
   inkscape:zoom="0.72615385"
   inkscape:cx="-47.165254"
   inkscape:cy="162.5"
   inkscape:window-x="-8"
   inkscape:window-y="-8"
   inkscape:window-maximized="1"
   inkscape:current-layer="svg6350" />
<radialGradient
   id="c"
   cx="-1323.7"
   cy="63.230999"
   r="111.69"
   gradientTransform="matrix(-1,0,0,1,-1194.2,0)"
   gradientUnits="userSpaceOnUse"
   xlink:href="#d">
	<stop
   stop-color="#597396"
   offset="0"
   id="stop6353" />
	<stop
   stop-color="#010101"
   offset="1"
   id="stop6355" />
</radialGradient>
<path
   d="m 2.8401191,169.85373 c 2.106,0 6.4130003,-2.373 9.8379989,-3.69 -1.054,1.844 -6.6749989,7.114 -7.9939989,8.169 0.792,0.526 5.2699993,1.844 5.2699993,1.844 3.6909996,-0.527 19.5030006,-22.664 21.8760006,-25.562 2.371,-2.898 12.122,-16.865 14.757,-19.765 2.635,-2.9 12.65,-19.766 15.022,-22.666 -0.265,3.163 1.317,16.603 2.108,21.349 0.791,4.742 -3.163,9.75 -4.48,12.123 -1.319,2.371 -6.324,8.959 -7.379,10.54 -1.054,1.582 -1.582,8.959 -1.582,10.278 0,1.317 -2.898,15.285 -3.426,18.185 -0.526,2.9 -2.371,10.014 -1.581,11.596 0.791,1.581 2.898,1.053 4.216,1.318 1.319,0.263 -0.789,1.844 -1.052,3.688 -0.265,1.848 0.79,4.656 1.843,5.446 1.056,0.793 7.381,1.056 9.487,1.056 2.109,0 0.528,-4.128 -1.053,-6.502 -1.582,-2.37 -3.953,-4.479 -5.007,-6.324 -1.055,-1.845 0.79,-19.501 4.481,-23.718 3.688,-4.219 6.324,-11.597 8.169,-13.705 1.845,-2.108 7.027,-10.541 10.277,-13.528 3.07,-2.818 8.434,-7.816 10.015,-10.189 8.432,2.636 0.789,13.177 -0.264,14.231 -1.055,1.055 -5.271,6.588 -5.796,8.432 -0.528,1.847 3.952,7.644 5.796,8.434 1.845,0.791 13.704001,14.758 14.758001,17.131 1.055,2.372 1.581,5.008 3.691,5.008 2.107,0 0.172,3.565 -1.847,3.163 -1.754,-0.353 -2.898,2.985 -3.161999,4.566 1.054999,2.812 3.953999,9.4 5.270999,9.136 4.568,-4.919 4.217,-10.276 5.008,-12.386 3.424,-5.797 0,-11.598 -1.846,-13.703 -1.844,-2.107 -11.597001,-13.968 -12.386001,-16.341 -0.792,-2.372 6.060001,-11.33 7.906001,-13.175 1.844,-1.845 6.326,-6.063 7.377,-8.172 1.055,-2.107 2.373,-4.742 4.218,-4.742 10.013,6.324 37.158,8.168 38.477,8.168 1.317,0 1.581,1.318 2.372,2.11 0.791,0.791 9.488,-0.527 11.859,-0.264 0,1.843 -5.534,21.872 -6.062,23.718 -0.526,1.844 -0.526,7.906 -0.526,8.697 0,0.789 -4.217,14.493 -4.745,15.812 -0.526,1.316 1.054,3.424 1.846,3.953 0.79,0.526 2.723,1.757 0.968,3.514 -1.306,1.304 -0.353,4.744 2.809,5.271 3.164,0.525 11.598,1.142 11.598,0.349 0,-0.79 -5.623,-9.926 -7.205,-11.771 -1.581,-1.845 -1.581,-3.426 -1.581,-5.27 0,-1.845 4.479,-13.704 5.536,-16.34 1.053,-2.636 1.843,-3.954 2.371,-6.853 0.526,-2.897 3.689,-9.752 4.479,-11.597 0.792,-1.844 3.164,-7.643 6.853,-9.749 6.06,-0.528 21.347,2.458 23.983,3.25 2.636,0.79 6.325,4.391 7.642,6.763 1.317,2.372 4.479,15.023 4.479,17.131 0,2.108 1.318,3.428 2.9,4.48 1.581,1.055 0.263,2.107 -1.056,2.372 -1.316,0.263 -1.404,2.812 -0.614,4.92 0.793,2.105 2.021,3.425 3.865,4.743 1.845,1.317 7.555,0.879 7.82,-0.175 0.262,-1.054 -0.794,-3.691 -1.319,-5.801 0,0 -3.163,-6.587 -2.636,-8.169 0.526,-1.579 0.79,-4.479 -1.843,-8.96 -2.637,-4.479 -5.273,-9.487 -5.537,-14.495 -0.263,-5.007 -4.479,-9.224 -6.322,-10.014 -1.845,-0.79 -4.219,-1.846 -6.063,-2.635 -1.846,-0.789 -10.54,-5.534 -12.649,-6.325 0.791,-0.791 4.217,-2.899 5.271,-4.481 1.056,-1.581 0.79,-9.223 1.318,-11.595 0.526,-2.371 5.533,-17.130998 6.324,-20.027998 0.149,-0.543 0.372,-1.305 0.649,-2.195 2.543,1.097 5.664,2.408 6.906,2.633 1.931,0.351 3.164,1.229 5.094,1.756 0.879,0.241 1.574,0.296 2.305,0.189 0.39,0.873 0.775,1.554 1.123,1.831 1.316,1.055 -0.264,1.055 -1.055,2.636 -0.79,1.581998 0.791,3.163998 2.637,3.951998 1.843,0.793 3.688,2.902 5.004,3.428 1.583,1.054 4.219,0.526 5.009,-0.792 0.792,-1.317 2.635,-3.425 2.9,-5.797998 0.264,-2.373 0.264,-13.705005 0,-16.076005 -0.266,-2.371 2.107,-15.023 2.369,-16.865 0.264,-1.847 0,-8.698 -0.262,-11.072 1.316,-0.526 2.81,-3.25 3.953,-5.005 1.005,-1.546 0.79,-3.954 2.635,-5.536 -0.791,0 -1.845,0.264 -4.479,1.056 l -0.528,-0.792 c -2.106,0.263 -5.27,3.163 -7.114,4.48 -0.791,-0.528 -2.636,-2.373 -3.954,-1.845 -1.551,-1.067 -3.924,-2.097 -6.934,-2.856 0.052,-0.177 0.083,-0.37 0.083,-0.57 0,-0.873 -0.532,-1.582 -1.188,-1.582 -0.653,0 -1.185,0.708 -1.185,1.582 0,0.023 0.004,0.048 0.004,0.071 -0.765,-0.142 -1.561,-0.265 -2.385,-0.369 0.001,-0.034 0.009,-0.065 0.009,-0.099 0,-0.745 -0.591,-1.351 -1.319,-1.351 -0.675,0 -1.227,0.523 -1.302,1.198 -0.858,-0.058 -1.742,-0.092 -2.65,-0.102 0,-10e-4 0.001,-0.006 0.001,-0.008 0,-0.801 -0.631,-1.449998 -1.407,-1.449998 -0.776,0 -1.405,0.648998 -1.405,1.449998 0,0.019 0.005,0.037 0.007,0.055 -1.021,0.046 -2.066,0.123 -3.133,0.233 -0.171,-0.744 -0.789,-1.299 -1.529,-1.299 -0.873,0 -1.581,0.768 -1.581,1.715 l 0,0.002 c -0.407,0.067 -0.817,0.14 -1.23,0.216 -0.635,0.119 -1.274,0.271 -1.914,0.444 -0.193,-0.712 -0.793,-1.234 -1.514,-1.234 -0.871,0 -1.578,0.765 -1.578,1.712 0,0.173 0.029,0.336 0.072,0.493 -0.823,0.308 -1.643,0.651 -2.459,1.023 -0.18,-0.575 -0.672,-0.989 -1.26,-0.989 -0.737,0 -1.335,0.648 -1.335,1.448 0,0.265 0.07,0.508 0.183,0.721 -0.997,0.521 -1.982,1.079 -2.946,1.657 -0.29,-0.323 -0.725,-0.534 -1.218,-0.534 -0.871,0 -1.582,0.65 -1.582,1.451 0,0.261 0.084,0.503 0.215,0.715 -0.858,0.572 -1.69,1.152 -2.497,1.734 -0.221,-0.129 -0.472,-0.209 -0.746,-0.209 -0.799,0 -1.449,0.647 -1.449,1.449 0,0.126 0.022,0.247 0.052,0.366 -0.997,0.771 -1.938,1.534 -2.804,2.262 -0.177,-0.387 -0.526,-0.652 -0.938,-0.652 -0.584,0 -1.055,0.532 -1.055,1.186 0,0.351 0.14,0.665 0.355,0.881 -0.955,0.848 -1.783,1.625 -2.465,2.294 -0.191,-0.247 -0.474,-0.409 -0.789,-0.409 -0.583,0 -1.055,0.531 -1.055,1.188 0,0.324 0.116,0.614 0.304,0.829 -0.118,0.132 -0.222,0.254 -0.304,0.355 -1.249,1.563 -1.945,2.196 -2.687,2.511 -0.135,-0.537 -0.529,-0.929 -1.003,-0.929 -0.581,0 -1.055,0.588 -1.055,1.315 0,0.012 0.002,0.021 0.003,0.032 -1.584,0.154 -1.648,-0.572 -2.902,-0.819 -1.316,-0.265 -0.262,-1.847 -0.525,-2.901 -0.265,-1.053 -0.265,-1.582 -1.581,-1.845 -1.318,-0.263 -3.954,-0.791 -5.008,-1.316 -1.054,-0.526 -10.278,-3.163 -11.333,-3.955 0,-2.371 -0.525,-7.379 -1.318,-10.014 -0.79,-2.634998 -2.545,-8.343998 -3.336,-9.397998 -0.792,-1.054 -3.251,-4.831 -3.778,-5.886 0,0 -2.372,-0.527 -2.372,-2.109 0,-1.582 0.616,-0.878 1.934,-1.142 1.319,-0.263 1.229,-1.755 1.229,-3.074 0,-1.318 1.316,-1.318 1.58,-2.372 0.266,-1.055 -1.403,-2.195 -1.403,-3.513 0.787,-0.264 2.634,-0.177 4.216,-1.055 -1.147,-0.764 -2.987,-0.879 -3.69,-0.879 l 0.614,-5.886 c -6.061,-3.426 -16.338,-1.582 -17.918,-0.263 l 0.525,5.798 c 0,0 0.263,1.845 -1.054,1.317 -1.318,-0.526 -2.373,1.845 -2.635,3.691 -0.263,1.844 3.164,2.899 4.744,3.424 1.581,0.529 0.265,1.319 -0.528,3.69 -0.79,2.373 -3.162,13.705 -2.899,17.130998 0.263,3.426 4.217,10.014 5.8,13.176 1.581,3.163 -1.846,9.224 -1.846,10.543 0,0 -2.898,0.261 -3.954,1.316 -1.054,1.054 -1.054,5.798 -1.842,7.38 -3.165,-0.265 -6.854,2.371 -6.854,3.425 -7.64,-3.69 -18.711001,-5.007 -22.135001,-4.743 -3.426,0.264 -18.977,3.426 -21.35,5.007 -16.864,-1.581 -24.243,20.556003 -26.352,22.665003 -2.108,2.108 -6.852,19.236 -10.541,22.928 -3.69,3.689 -10.015001,17.922 -11.859001,19.767 -1.845,1.843 -13.705,3.687 -17.6589989,3.95 3.6899989,1.583 11.3329989,-0.264 14.4969989,-0.264 -1.846,1.582 -11.5959996,4.218 -15.0209989,5.536 2.8970003,0.263 10.8039989,-1.581 12.9129989,-2.9 -0.527,0.792 -1.844,2.9 -3.954,4.746 -2.109,1.845 -12.3869989,8.432 -13.4389989,9.486 -0.015,1.28 -0.80600004,3.13 1.303,3.13 z M 212.12012,85.422727 c 1.069,-3.065 2.256,-6.083 2.963,-6.934 1.845,2.9 1.755,3.867 3.864,5.184 2.108,1.318 2.373,2.636 3.161,3.688 0.172,0.229 0.39,0.725 0.642,1.374005 -0.097,-0.02 -0.192,-0.039 -0.29,-0.056 -2.48,-0.412 -7.46,-2.239005 -10.33,-3.256005 z"
   id="path6357"
   style="fill:#000000;fill-opacity:1"
   inkscape:connector-curvature="0" />
<linearGradient
   id="d"
   x1="-1318.2"
   x2="-1318.2"
   y1="1999.8"
   y2="2195.6001"
   gradientTransform="matrix(-1,0,0,-1,-1194.2,2392.3)"
   gradientUnits="userSpaceOnUse">
	<stop
   stop-color="#010101"
   stop-opacity="0"
   offset=".5215"
   id="stop6360" />
	<stop
   stop-color="#010101"
   offset="1"
   id="stop6362" />
</linearGradient>

</svg>