<?xml version="1.0" encoding="UTF-8" standalone="no"?>
<svg
   xmlns:dc="http://purl.org/dc/elements/1.1/"
   xmlns:cc="http://creativecommons.org/ns#"
   xmlns:rdf="http://www.w3.org/1999/02/22-rdf-syntax-ns#"
   xmlns:svg="http://www.w3.org/2000/svg"
   xmlns="http://www.w3.org/2000/svg"
   xmlns:sodipodi="http://sodipodi.sourceforge.net/DTD/sodipodi-0.dtd"
   xmlns:inkscape="http://www.inkscape.org/namespaces/inkscape"
   enable-background="new 82.0557 -41.1481 2395.9443 1682.2961"
   version="1.1"
   viewBox="82.0557 -41.1481 1800 599.99999"
   xml:space="preserve"
   id="svg2"
   inkscape:version="0.91 r13725"
   sodipodi:docname="logo_folie.svg"
   width="1800"
   height="600"
   inkscape:export-filename="C:\Users\Lisa Metzler\Documents\IV LK\Projekt\HTML Seiten\logo.png"
   inkscape:export-xdpi="57.599701"
   inkscape:export-ydpi="57.599701"
   style="shape-rendering:crispEdges"><metadata
   id="metadata10"><rdf:RDF><cc:Work
       rdf:about=""><dc:format>image/svg+xml</dc:format><dc:type
         rdf:resource="http://purl.org/dc/dcmitype/StillImage" /><dc:title></dc:title></cc:Work></rdf:RDF></metadata><defs
   id="defs8" /><sodipodi:namedview
   pagecolor="#ffffff"
   bordercolor="#666666"
   borderopacity="1"
   objecttolerance="10"
   gridtolerance="10"
   guidetolerance="10"
   inkscape:pageopacity="1"
   inkscape:pageshadow="2"
   inkscape:window-width="1280"
   inkscape:window-height="790"
   id="namedview6"
   showgrid="false"
   inkscape:zoom="0.51304302"
   inkscape:cx="1372.7342"
   inkscape:cy="129.57537"
   inkscape:window-x="-8"
   inkscape:window-y="-8"
   inkscape:window-maximized="1"
   inkscape:current-layer="svg2" />
<path
   d="m 1839.2234,454.59464 c -3.2108,-1.69364 -5.217,-4.82903 -7.5679,-7.46658 -3.7057,-4.19491 -9.2816,-6.02772 -13.1844,-9.99107 -1.7311,-1.55178 -3.28,-3.29172 -5.0694,-4.7741 -1.6646,-1.47648 -2.8255,-3.39316 -3.9721,-5.26909 -1.572,-2.67505 -2.82,-5.55579 -3.4656,-8.59852 -1.6617,-7.69513 -1.1694,-15.61341 -1.6674,-23.41861 -0.2664,-3.32641 -0.5154,-6.71077 -1.6183,-9.88381 -0.3851,-1.16963 -0.4373,-2.41162 -0.6921,-3.60148 -1.4937,-2.55055 -2.07,-5.59048 -3.9896,-7.89502 -0.7063,-0.80484 -0.9726,-1.89337 -1.7544,-2.63174 -1.3983,-1.49675 -2.7358,-3.03991 -4.0908,-4.5714 -2.1221,-2.42025 -4.965,-4.01849 -7.7269,-5.59048 -2.0759,-1.20149 -4.4152,-1.80656 -6.6328,-2.66641 -1.5198,-0.7701 -2.9846,-1.64443 -4.5103,-2.4 -5.9639,-3.14416 -12.3477,-5.6484 -19.0594,-6.57484 -4.3339,-1.42728 -9.0097,-0.88009 -13.3695,-2.18586 -2.5102,0.17951 -5.0984,-0.46033 -7.5418,0.34453 -2.0094,0.59058 -4.1544,0.37636 -6.1926,0.0637 -5.6976,-1.08567 -10.7092,-4.15743 -16.0622,-6.20716 -6.013,-2.22055 -12.2868,-3.62754 -18.4997,-5.18228 -3.3874,-0.44583 -6.7457,-1.19279 -10.1795,-1.22752 -7.2695,-0.33005 -14.6782,0.77875 -21.8398,-0.87724 0.067,-1.64731 0.2171,-3.49441 -1.0133,-4.79434 -1.6647,-1.57493 -4.2065,-0.99303 -6.1173,-2.03811 -0.7556,-0.41982 -0.9352,-1.45046 -0.6601,-2.21193 0.5153,-1.23043 1.7341,-2.01206 2.1973,-3.26848 0.1911,-0.63114 -0.011,-1.26517 -0.2286,-1.85289 -7.1135,-1.27678 -14.3309,0.7209 -21.465,-0.25765 -3.668,-0.50666 -7.2551,-1.6444 -10.4976,-3.43646 -1.1987,-0.68907 -2.5131,-1.25654 -3.4626,-2.29294 -0.8395,-0.89172 -2.2321,-1.26519 -2.8054,-2.37393 0.579,-1.85 2.2871,-3.09207 3.1587,-4.80299 0.498,-1.17827 1.575,-1.95127 2.1655,-3.07461 0.7644,-1.39546 1.8674,-2.56218 2.6576,-3.94026 1.0973,-1.78632 2.4319,-3.4684 3.0979,-5.4834 0.5703,-1.84706 1.2246,-3.67106 1.6965,-5.547 0.663,-2.55632 0.8541,-5.36753 -0.2519,-7.83125 0.4575,-1.26521 1.6039,-2.04114 2.8199,-2.4812 2.0034,-0.80487 3.9169,-1.94266 5.379,-3.55234 1.2508,-1.40993 1.8674,-3.54932 0.9468,-5.29518 -3.1064,-0.3792 -6.2853,1.49972 -9.2992,0.11873 0.4487,-0.87148 1.1494,-1.5576 1.7746,-2.29874 0.9728,-1.08279 1.1669,-2.59106 1.4274,-3.96339 0.1245,-1.22747 -0.139,-2.71274 -1.161,-3.4944 -0.9061,-0.058 -1.349,0.90033 -2.0785,1.27673 -4.3253,2.80539 -9.7044,3.37853 -14.7362,3.03992 -1.4098,-0.37059 -2.8749,-0.43712 -4.2904,-0.7788 -4.7508,-1.05959 -9.3629,-2.87192 -14.2643,-3.14112 -1.0828,0.0466 -2.0119,-0.58194 -2.9994,-0.9236 -2.7213,-1.0248 -5.4687,-1.986 -8.0919,-3.2512 -4.9361,-1.76599 -10.8276,-0.24613 -15.234,-3.57259 -1.0134,-0.43433 -1.1754,-1.77187 -2.2206,-2.14541 -2.7388,-1.15512 -5.7699,-2.11626 -8.7577,-1.4736 -1.0422,0.15634 -1.986,0.65141 -2.9936,0.9264 -1.1668,0.1766 -2.1975,-0.53846 -3.2368,-0.94092 -0.9698,-0.48348 -2.0758,-0.36474 -3.1151,-0.52687 -0.2895,-1.04227 -0.5009,-2.14234 -1.1638,-3.03113 -1.6763,-2.57081 -2.3074,-5.94934 -4.9652,-7.78493 -2.2061,-1.72841 -5.1532,-1.70233 -7.8138,-1.66753 -0.3185,-0.53855 -0.4893,-1.27967 -1.1349,-1.51994 -0.9206,-0.36194 -1.9715,-0.40246 -2.9326,-0.20273 -0.9033,0.22874 -1.2363,1.16672 -1.5691,1.92826 -1.0799,0.4806 -2.3104,0.44873 -3.3641,0.98728 -2.2494,0.99879 -3.7143,3.12672 -4.8088,5.24298 -1.3288,3.12094 -0.011,6.67326 -1.2796,9.81147 -0.443,1.18406 -1.5402,1.89332 -2.3364,2.814 -0.9351,1.0364 -2.0265,2.00619 -2.5564,3.3294 -0.304,1.44173 1.1464,2.44346 2.3827,2.71273 2.3423,0.39373 4.554,-0.70061 6.789,-1.20434 1.1175,1.69941 0.6167,3.76647 0.5964,5.65419 0.5645,1.76894 2.6894,0.84254 3.9373,1.52287 0.3127,0.47188 0.3184,1.06246 0.4342,1.60387 0.553,0.12741 1.106,0.25767 1.659,0.39374 0.037,0.17653 0.1158,0.5298 0.1563,0.70633 0.5268,0.2548 1.077,0.46614 1.6357,0.663 0.1592,1.02486 1.132,1.6936 2.151,1.46493 1.9918,-0.2982 2.7243,-2.47239 4.2212,-3.52913 1.2941,-0.16214 2.8197,0.0695 3.5928,1.24779 -0.2779,0.34454 -0.7499,0.85694 -0.2519,1.242 1.3144,1.05094 2.5563,2.18587 3.8099,3.30334 1.1958,0.16793 2.0151,-0.88007 2.9155,-1.47073 0.4226,0.76146 0.5095,1.75446 1.2536,2.30459 1.0045,0.79041 2.2668,1.12907 3.4162,1.65021 0.073,0.12739 0.2171,0.38213 0.2895,0.50952 -0.5935,1.47073 -0.098,3.4076 1.3491,4.18626 -0.5384,0.63114 -0.9757,1.40414 -0.6774,2.25828 0.5153,1.27092 1.5286,2.39419 1.378,3.86793 -0.8627,0.40532 -1.8268,0.21999 -2.7416,0.32713 -0.9496,-0.0406 -1.3086,1.39547 -2.3132,1.01327 -1.2941,-0.31847 -2.6113,-0.6022 -3.8679,-1.02773 -0.6137,-0.74987 -0.4719,-1.9078 -1.216,-2.5708 -1.5575,-0.37054 -3.2165,-0.38508 -4.7508,0.11292 -0.246,-0.85698 -0.5761,-1.86445 -1.5141,-2.17426 -2.2958,-0.70927 -4.4672,-1.87613 -6.873,-2.17706 -1.0972,0.0494 -2.0932,0.59059 -3.1788,0.6804 -0.7238,-0.007 -1.297,-0.58194 -2.0179,-0.58194 -2.4203,-0.0459 -4.9159,-0.5038 -7.2753,0.25474 -0.6717,0.17086 -1.3549,0.73246 -2.0584,0.35612 -1.5344,-0.77592 -2.0353,-2.78513 -3.729,-3.33526 -0.6051,-0.31266 -1.1349,0.18533 -1.6704,0.39374 -1.9339,0.94673 -4.1777,0.67166 -6.1579,0.0321 -0.1389,-0.66587 -0.1187,-1.4852 -0.744,-1.9078 -0.5414,-0.37054 -1.1291,-0.79327 -1.8182,-0.75854 -1.7862,-0.0752 -3.312,1.00754 -5.0085,1.3578 -1.0856,0.30114 -2.2524,0.0782 -3.2454,-0.40533 -1.0248,-0.4458 -0.6369,-1.94266 -1.5981,-2.45787 -0.9901,-0.45746 -2.1162,-0.88879 -3.2135,-0.59059 -1.7689,0.44006 -3.3091,1.656 -5.1735,1.7226 -0.9206,0.007 -1.8557,-0.10134 -2.7244,-0.42274 -1.0277,-0.62246 -1.1232,-2.11627 -2.2407,-2.649 -0.9236,-0.37346 -1.8644,-0.78166 -2.8661,-0.87427 -0.8541,-0.1014 -1.4389,0.63687 -2.1396,0.98721 -2.261,1.2912 -4.9824,1.18119 -7.4955,1.07406 -0.1186,-0.81353 -0.084,-1.6386 -0.072,-2.45513 -1.6415,-0.53554 -3.3814,-0.26053 -5.0721,-0.3184 -1.546,-0.0782 -1.8762,1.7544 -3.205,2.13073 -1.7863,0.58481 -3.6999,0.37634 -5.5499,0.46607 -0.2171,-0.61374 -0.3822,-1.24773 -0.6977,-1.8152 -0.6543,-0.60507 -1.5924,-0.61954 -2.4147,-0.77014 -1.3056,0.052 -2.3276,0.89754 -3.2337,1.74867 -0.5125,0.57327 -0.4604,1.54887 -1.242,1.89333 -1.4187,0.71514 -3.0573,0.7962 -4.5078,1.44467 -1.5835,-0.7064 -3.1383,0.16213 -4.6032,0.72667 -0.8628,0.37347 -1.8645,0.3098 -2.6374,-0.24027 -3.3092,-1.8964 -7.3679,-2.03233 -10.5412,-4.20653 -1.4359,-1.44754 -3.2049,-3.228 -5.4399,-2.8314 -0.2113,1.47647 -0.139,3.0746 0.5703,4.4178 0.6138,1.3578 0.938,2.84886 1.7487,4.11693 0.9872,1.49093 2.2148,2.8082 3.4856,4.0648 0.1998,0.26347 0.5848,0.44873 0.6138,0.8106 -0.1593,0.52987 -0.7152,0.88593 -0.7644,1.45627 -0.043,2.01786 -1.3375,3.74039 -1.4532,5.74966 -0.1275,1.16093 0.275,2.3248 0.011,3.47999 -0.5704,2.88634 -1.7168,5.61374 -2.623,8.3986 -0.744,4.6322 -1.9108,9.20359 -2.2901,13.88786 -0.5558,1.79213 -0.6977,3.67387 -1.0104,5.51511 0.2114,3.67686 -2.3941,6.90484 -1.8442,10.61638 1.2102,6.47341 -1.0567,12.99611 -0.072,19.4849 0.1651,1.28252 0.4778,2.5796 1.1986,3.67385 1.0567,1.71102 2.8054,2.80535 4.0792,4.33103 1.4476,1.62995 2.9936,3.33224 5.1272,4.04155 2.0062,0.62535 4.4441,0.38216 6.0073,-1.13199 0.8222,-0.4661 1.8181,-0.56742 2.6345,-1.07698 1.8355,-1.05092 3.9808,-1.93968 5.0723,-3.86491 0.605,-1.43598 1.2767,-2.92405 1.2478,-4.51348 0.067,-1.39251 -1.0134,-2.64898 -0.5588,-4.05597 0.4835,-1.48809 1.3983,-2.80254 2.2987,-4.0618 0.6688,-0.61375 0.9004,-1.67047 1.7661,-2.04973 1.6096,-0.36189 3.0804,0.6659 4.4092,1.42734 1.2564,1.24778 2.5419,2.46954 3.7346,3.7811 4.8667,4.46135 10.2429,8.81845 16.7858,10.43975 2.3567,0.71222 4.8291,0.26634 7.2407,0.44295 1.8413,-0.22583 3.6306,-0.8917 5.2372,-1.81814 3.9867,-2.26405 6.0855,-6.87878 10.3993,-8.67951 1.5923,0.89459 1.9801,3.10348 3.8041,3.65941 0.9033,0.24605 1.4881,1.03355 2.0265,1.74575 0.7875,1.05384 1.2623,2.30155 1.5547,3.57842 -1.2854,1.1725 -2.9675,1.72836 -4.6205,2.14535 -4.5684,0.8106 -9.2527,0.24608 -13.8299,0.95249 -2.3973,0.92934 -3.7637,3.29472 -4.9478,5.43709 -1.2912,2.20311 -1.3491,4.84347 -1.1609,7.32465 -0.017,1.54018 -0.023,3.15278 0.7354,4.54534 0.4689,1.10885 1.4967,1.83261 2.0034,2.91824 0.6905,1.47962 1.7644,2.78735 2.6104,4.17841 0.3999,0.65777 0.8856,1.38491 1.0416,2.13486 0.1602,0.76963 0.2559,1.52519 0.503,2.28206 0.8456,2.59085 2.4496,4.85715 3.3335,7.42195 0.8034,2.33099 0.8418,4.96928 2.2538,7.06665 0.8471,1.25827 2.1768,2.15923 3.6337,2.55749 1.5883,0.43426 3.4998,0.26847 5.1224,0.13002 0.064,-0.4202 0.3974,-0.76032 0.7809,-0.94326 0.3836,-0.18294 0.8147,-0.23451 1.2374,-0.27838 3.4751,-0.36056 6.9942,-0.36818 10.4555,0.10635 0.8194,0.11233 1.6799,0.27164 2.3077,0.81012 0.4509,0.38679 0.7327,0.92896 1.0196,1.4492 0.8649,1.56824 1.9346,2.99154 2.9025,4.4906 0.5788,0.90785 1.3709,1.65992 1.9391,2.57736 l 3.2428,0 c -0.01,-0.0169 -0.02,-0.0327 -0.029,-0.0499 1.1233,0.14765 2.2118,0.4835 3.3352,0.63693 3.6217,0.47768 7.2985,0.28952 10.9059,-0.19399 1.1638,-0.21423 1.5835,-1.44464 1.4098,-2.49261 -0.3039,-0.34455 -0.7758,-0.61085 -0.828,-1.10593 -0.5964,-2.86912 -2.1162,-5.42247 -3.5349,-7.94715 -1.1898,-1.58076 -1.711,-3.58704 -3.115,-5.01428 -1.4187,-1.51125 -3.1007,-2.89517 -5.1533,-3.4018 -0.8859,-0.19397 -1.8412,-0.44873 -2.7127,-0.0666 -1.1725,0.47767 -2.6578,0.0955 -3.6276,1.06539 -1.2101,1.25937 -1.2681,3.33805 -2.8807,4.2731 -0.7064,-0.27504 -1.3955,-0.57901 -2.1047,-0.83377 0.1535,-0.79617 1.2507,-1.62995 0.4169,-2.37393 -2.3711,-2.51586 -6.0217,-3.16142 -9.3367,-2.98197 -1.5981,-0.39084 -2.0092,-2.21775 -2.7011,-3.48561 -0.9583,-1.27964 -1.7255,-2.68368 -2.7155,-3.93729 -1.2159,-2.31036 -2.9183,-4.33104 -4.0358,-6.69352 1.1841,-0.30399 2.2583,0.32715 3.3323,0.72378 2.403,0.84249 4.6524,2.0786 7.1191,2.7446 2.5535,1.381 5.4804,1.65604 8.3148,1.96294 2.7416,0.27502 5.6715,0.60506 7.9442,2.31036 4.1023,3.30035 9.247,4.80877 14.1889,6.34308 3.1703,0.90617 6.0074,2.62592 8.9111,4.13717 1.882,0.8309 3.9836,0.8946 6.0073,0.96116 9.2932,1.40705 18.8155,-0.20552 28.0385,1.83263 1.9339,0.3561 3.7724,1.20725 5.7672,1.22752 10.8623,0.8888 21.8024,2.18587 32.6922,0.93511 3.8765,-0.15054 7.7504,-0.40241 11.6094,-0.79615 11.7166,-0.19109 23.5049,-0.0262 35.0885,1.9136 4.1806,0.94386 8.257,2.33644 12.1566,4.12272 1.4273,0.75853 2.7041,1.76023 4.0156,2.70694 1.0451,0.7701 2.177,1.43886 3.1266,2.34504 2.3393,2.18868 3.2513,5.49485 5.7294,7.56484 1.4795,1.21308 2.924,2.47236 4.4672,3.60728 1.3984,1.10596 2.5824,2.45512 4.0212,3.51467 0.9411,0.69483 1.7603,1.53153 2.5073,2.43486 3.9287,3.79255 9.4814,4.88398 14.0326,7.6779 2.2899,1.52282 4.7018,2.99641 6.4302,5.18808 0.5644,0.79903 1.5488,1.11463 2.2204,1.80656 1.5171,1.58072 3.2454,2.93848 4.9623,4.29335 1.5372,0.94961 2.7937,2.29575 4.4178,3.11512 4.1863,2.30454 9.2238,3.18748 12.7093,6.65584 0.9294,1.20723 2.1714,2.18004 2.8576,3.56678 0.9466,1.55758 1.8529,3.13836 2.8808,4.64659 0.9958,1.80077 2.5765,3.16144 3.972,4.6438 0.5328,0.91195 1.5432,1.4823 1.8818,2.51586 0.4198,1.21884 1.0972,2.32479 1.7458,3.43367 0.967,1.60099 1.5431,3.40459 2.5883,4.96514 0.8018,1.15516 0.993,2.61149 1.8325,3.74344 0.857,1.39253 0.7557,3.19909 1.8125,4.49604 0.5442,0.64273 0.6397,1.51127 0.9349,2.28128 1.0076,2.79955 2.4234,5.44853 3.2078,8.32926 0.2317,0.8222 0.223,1.73998 0.7036,2.48116 1.0856,1.7139 1.1436,3.84768 2.154,5.59631 0.5124,0.86562 0.8685,1.8297 1.5141,2.62008 1.1928,1.51416 2.7128,2.88354 3.2831,4.78554 0.4168,2.05554 1.4388,4.00686 2.9416,5.4804 0.6629,1.04808 1.5749,1.91364 2.206,2.98782 1.0653,1.51991 2.565,2.66057 3.8564,3.98357 1.1464,1.0683 2.1046,2.33928 3.3408,3.31782 0.6687,0.4893 1.6242,1.09722 2.426,0.51528 1.1986,-0.8424 1.0914,-2.50704 1.9311,-3.61008 0.5124,-1.28832 0.8366,-2.652 1.242,-3.97799 1.7053,0.54719 2.8661,1.95713 4.1456,3.12371 1.8299,1.75446 4.0157,3.06018 6.1175,4.45278 1.3433,0.15054 2.5217,-0.83094 3.1354,-1.94268 1.4504,-3.54936 2.374,-7.40567 2.0383,-11.25617 -0.1449,-3.13254 -0.8252,-6.45894 -2.9618,-8.87058 -1.7081,-1.8789 -3.8967,-3.23957 -5.5442,-5.17925 -1.8066,-1.18992 -3.9229,1.12038 -5.7815,0.0174 -1.2131,-0.47772 -1.5518,-1.82682 -1.6763,-2.98782 0.3561,-0.25769 0.8367,-0.41982 1.0191,-0.85698 -0.1043,-1.66469 -1.2043,-3.03112 -2.3423,-4.1516 -2.1422,-2.62012 -4.4787,-5.12435 -6.0883,-8.12357 -0.8166,-0.98144 -1.2624,-2.16563 -1.578,-3.38436 -0.2286,-0.98727 -1.1058,-1.59521 -1.5576,-2.45512 -2.0959,-4.75085 -3.7464,-9.68412 -5.7553,-14.47266 -1.4099,-3.36992 -1.5055,-7.07284 -2.1569,-10.6222 -0.3011,-1.82969 -1.3461,-3.42786 -1.6819,-5.24583 -0.2519,-1.04805 -0.029,-2.2003 -0.5965,-3.16143 -0.4574,-1.05963 -1.6096,-1.45914 -2.3827,-2.22636 -2.1453,-1.58362 -4.4325,-2.97336 -6.7688,-4.25286 -2.0062,-1.352 -3.9344,-2.81978 -5.8394,-4.31077 -1.0857,-0.81929 -1.9021,-1.92526 -2.8921,-2.84586 -1.2652,-1.18413 -2.1047,-2.71855 -3.2686,-3.98661 -1.4968,-1.73416 -2.3624,-3.91423 -3.9691,-5.54996 -1.8528,-3.13254 -3.3467,-6.50248 -4.224,-10.0402 -0.7758,-3.10067 -1.1175,-6.36053 -0.4777,-9.51913 0.854,-6.53434 2.675,-12.91511 3.2108,-19.49614 0.3936,-5.61934 -0.2114,-11.68756 -3.5899,-16.38346 -0.6601,-1.23043 -0.9756,-2.63174 -1.879,-3.72899 -1.5199,-3.29173 -3.2744,-6.4822 -5.3501,-9.45837 -0.3213,-0.81935 0.017,-2.05256 0.9729,-2.25244 1.2013,-0.41689 2.4897,-0.0174 3.726,-0.20266 3.2135,-0.78169 6.563,-0.4806 9.8113,-0.11583 2.5506,0.39084 5.463,0.86566 7.1886,2.97899 1.1869,2.16562 2.5824,4.33685 2.8314,6.85572 1.7226,5.24583 0.2778,10.88843 1.6994,16.18658 0.2606,0.89751 0.4632,2.21475 1.6907,2.14236 0.3329,-1.19568 -0.015,-2.48697 0.5241,-3.63915 0.5847,0.55584 0.4544,1.43307 0.6746,2.15397 1.2796,4.79154 -1.52,9.59733 -0.3793,14.4003 1.1377,2.79674 1.8731,5.94071 4.1111,8.11797 0.3416,0.43136 0.938,0.18821 1.407,0.2084 0.8685,0.86855 0.8426,2.19731 1.5141,3.17586 0.6977,0.6543 1.5692,1.14069 2.0989,1.97456 1.8964,2.70973 2.3392,6.08846 2.9792,9.2585 0.1448,0.93511 0.7585,1.70235 0.9958,2.6115 0.3591,1.06828 0.4372,2.29291 1.2218,3.17003 1.6039,1.88474 2.6839,4.26449 4.7422,5.72941 1.4881,0.58769 2.7474,1.70232 3.564,3.07462 1.9715,2.93267 5.1185,4.71614 8.1959,6.27371 3.228,1.82677 6.3231,3.93728 9.8001,5.28353 2.2726,0.91484 4.6958,1.41569 7.1364,1.5865 0.8425,0.009 1.5258,0.57032 2.3162,0.80195 1.708,0.53848 3.5842,0.57032 5.1763,1.47648 0.6167,0.37925 1.3522,0.37056 2.0585,0.30686 -0.5124,-0.78746 -1.4707,-1.07116 -2.0382,-1.80074 3.2687,0.17369 6.2071,1.85289 8.9663,3.48861 1.3519,0.87434 2.5882,1.92524 4.0009,2.70691 0.637,0.33006 1.3203,0.70063 2.07,0.61086 -0.4429,-0.5906 -0.9467,-1.12331 -1.3982,-1.69652 1.5835,-0.44007 2.7359,1.10017 4.2558,1.17538 1.5517,0.1419 3.0687,0.50957 4.6061,0.77302 0.7034,0.0839 1.4474,0.26056 2.1337,-0.0376 -1.0392,-0.61934 -2.2582,-0.81332 -3.2944,-1.4213 z m -377.6041,-134.2661 c 1.7371,-0.95538 3.7723,-1.1465 5.7091,-0.85985 -2.2929,1.10881 -4.4439,2.47818 -6.5515,3.90262 0.3214,-1.00171 0.6832,-1.99762 0.8425,-3.04273 z m 32.4336,23.40737 c -3.5899,0.26343 -5.9235,3.28872 -8.4596,5.45734 -1.7573,1.23911 -3.1412,2.97617 -5.1476,3.85347 -2.7155,1.80943 -6.2013,1.57785 -9.2238,0.79906 -3.0921,-0.65717 -5.8741,-2.21474 -8.5694,-3.79555 -2.4117,-1.58076 -4.7683,-3.32661 -6.6212,-5.55279 -2.5333,-2.19447 -5.2807,-4.64378 -8.804,-4.84928 -0.1014,-0.31266 -0.1968,-0.61955 -0.2953,-0.92352 0.3127,-0.89459 0.3706,-2.08443 1.2912,-2.59124 6.3259,-3.93447 12.64,-7.89501 18.9599,-11.84393 1.3173,-0.84248 2.6895,-1.601 3.917,-2.57661 1.0568,-0.79907 2.4666,-0.80195 3.6594,-0.32715 2.5911,0.56166 5.0462,1.60389 7.4029,2.79956 1.491,0.59348 2.594,1.80654 3.9402,2.64617 1.4389,0.88009 2.1713,2.48397 3.4482,3.54654 1.2304,0.95539 1.7949,2.4521 2.7387,3.64497 0.9525,1.15226 1.5402,2.55636 2.0209,3.96054 0.4459,1.26806 0.2201,2.62874 0.3416,3.94311 0.075,0.66588 -0.2055,1.28542 -0.5992,1.80946 z m 99.4287,-46.19787 c -0.5414,0.29241 -1.2043,0.56167 -1.5285,1.09727 -0.027,0.9872 -0.1824,1.95708 -0.3996,2.91821 -1.3751,-0.22001 -2.4811,-1.08281 -3.6073,-1.82974 -0.9032,-0.64273 -2.0322,-0.799 -2.9733,-1.3636 -1.6474,-0.96693 -3.5669,-1.25354 -5.2952,-2.012 -2.2466,-1.11174 -4.8811,-0.34746 -7.1799,-1.27386 -0.099,-0.88594 -0.032,-1.79208 0.3822,-2.59407 3.2078,0.21427 6.4619,-0.78166 9.6234,0.0633 1.6675,0.40819 2.7155,1.986 4.4064,2.35666 2.426,0.90907 4.9709,0.0459 7.4289,-0.0984 1.1145,0.75854 1.4939,2.1598 1.6704,3.4278 -0.8454,-0.20553 -1.6299,-0.8714 -2.5275,-0.69194 z"
   id="path4"
   inkscape:connector-curvature="0"
   style="opacity:1;fill:#000000;fill-opacity:1" />
<text
   xml:space="preserve"
   style="font-style:italic;font-variant:normal;font-weight:normal;font-stretch:normal;font-size:33.74980545px;line-height:125%;font-family:'Monotype Corsiva';-inkscape-font-specification:'Monotype Corsiva, Italic';text-align:start;letter-spacing:0px;word-spacing:0px;writing-mode:lr-tb;text-anchor:start;opacity:1;fill:#8b1111;fill-opacity:1;stroke:none;stroke-width:1px;stroke-linecap:butt;stroke-linejoin:miter;stroke-opacity:1"
   x="1464.9705"
   y="460.47061"
   id="text4138"
   sodipodi:linespacing="125%"><tspan
     sodipodi:role="line"
     id="tspan4146"
     x="1464.9705"
     y="460.47061">Reit- und Jagdstall </tspan></text>

<text
   xml:space="preserve"
   style="font-style:normal;font-weight:normal;font-size:40px;line-height:125%;font-family:sans-serif;letter-spacing:0px;word-spacing:0px;fill:#000000;fill-opacity:1;stroke:none;stroke-width:1px;stroke-linecap:butt;stroke-linejoin:miter;stroke-opacity:1"
   x="432.14209"
   y="289.55469"
   id="text4150"
   sodipodi:linespacing="125%"><tspan
     sodipodi:role="line"
     id="tspan4152"
     x="432.14209"
     y="289.55469" /></text>

<text
   xml:space="preserve"
   style="font-style:italic;font-variant:normal;font-weight:normal;font-stretch:normal;font-size:180px;line-height:125%;font-family:'Monotype Corsiva';-inkscape-font-specification:'Monotype Corsiva, Italic';text-align:start;letter-spacing:0px;word-spacing:0px;writing-mode:lr-tb;text-anchor:start;fill:#000000;fill-opacity:1;stroke:none;stroke-width:1px;stroke-linecap:butt;stroke-linejoin:miter;stroke-opacity:1"
   x="432.14209"
   y="343.41418"
   id="text4154"
   sodipodi:linespacing="125%"><tspan
     sodipodi:role="line"
     id="tspan4156"
     x="432.14209"
     y="343.41418" /></text>

<text
   xml:space="preserve"
   style="font-style:italic;font-variant:normal;font-weight:normal;font-stretch:normal;font-size:180px;line-height:125%;font-family:'Monotype Corsiva';-inkscape-font-specification:'Monotype Corsiva, Italic';text-align:start;letter-spacing:0px;word-spacing:0px;writing-mode:lr-tb;text-anchor:start;fill:#000000;fill-opacity:1;stroke:none;stroke-width:1px;stroke-linecap:butt;stroke-linejoin:miter;stroke-opacity:1"
   x="418.67722"
   y="397.27356"
   id="text4158"
   sodipodi:linespacing="125%"><tspan
     sodipodi:role="line"
     id="tspan4160"
     x="418.67722"
     y="397.27356" /></text>

<text
   xml:space="preserve"
   style="font-style:italic;font-variant:normal;font-weight:normal;font-stretch:normal;font-size:33.74980545px;line-height:125%;font-family:'Monotype Corsiva';-inkscape-font-specification:'Monotype Corsiva, Italic';text-align:start;letter-spacing:0px;word-spacing:0px;writing-mode:lr-tb;text-anchor:start;opacity:1;fill:#8b1111;fill-opacity:1;stroke:none;stroke-width:1px;stroke-linecap:butt;stroke-linejoin:miter;stroke-opacity:1"
   x="1473.7017"
   y="491.20395"
   id="text4162"
   sodipodi:linespacing="125%"><tspan
     sodipodi:role="line"
     id="tspan4164"
     x="1473.7017"
     y="491.20395">Rösgen</tspan></text>

<rect
   style="opacity:1;fill:#725e5e;fill-opacity:0.33644864;stroke:#000000;stroke-width:4.54109144;stroke-miterlimit:4;stroke-dasharray:none;stroke-opacity:1"
   id="rect4698"
   width="1807.1539"
   height="617.86499"
   x="82.886398"
   y="-53.17408" /></svg>