<?xml version="1.0" encoding="UTF-8" standalone="no"?>
<svg
   xmlns:dc="http://purl.org/dc/elements/1.1/"
   xmlns:cc="http://creativecommons.org/ns#"
   xmlns:rdf="http://www.w3.org/1999/02/22-rdf-syntax-ns#"
   xmlns:svg="http://www.w3.org/2000/svg"
   xmlns="http://www.w3.org/2000/svg"
   xmlns:sodipodi="http://sodipodi.sourceforge.net/DTD/sodipodi-0.dtd"
   xmlns:inkscape="http://www.inkscape.org/namespaces/inkscape"
   enable-background="new 82.0557 -41.1481 2395.9443 1682.2961"
   version="1.1"
   viewBox="82.0557 -41.1481 229.99999 184.99999"
   xml:space="preserve"
   id="svg2"
   inkscape:version="0.91 r13725"
   sodipodi:docname="logo_mitschriftzug_kl.svg"
   width="230"
   height="185"
   inkscape:export-filename="C:\Users\Lisa Metzler\Documents\IV LK\Projekt\HTML Seiten\logo.png"
   inkscape:export-xdpi="57.599701"
   inkscape:export-ydpi="57.599701"
   style="shape-rendering:crispEdges"><metadata
   id="metadata10"><rdf:RDF><cc:Work
       rdf:about=""><dc:format>image/svg+xml</dc:format><dc:type
         rdf:resource="http://purl.org/dc/dcmitype/StillImage" /><dc:title></dc:title></cc:Work></rdf:RDF></metadata><defs
   id="defs8" /><sodipodi:namedview
   pagecolor="#ffffff"
   bordercolor="#666666"
   borderopacity="1"
   objecttolerance="10"
   gridtolerance="10"
   guidetolerance="10"
   inkscape:pageopacity="1"
   inkscape:pageshadow="2"
   inkscape:window-width="1280"
   inkscape:window-height="790"
   id="namedview6"
   showgrid="false"
   inkscape:zoom="0.42011976"
   inkscape:cx="437.07975"
   inkscape:cy="427.17555"
   inkscape:window-x="-8"
   inkscape:window-y="-8"
   inkscape:window-maximized="1"
   inkscape:current-layer="svg2"
   borderlayer="true" />
<path
   d="m 309.29035,94.92571 c -1.60536,-0.8468 -2.6085,-2.4145 -3.78393,-3.7333 -1.85286,-2.0974 -4.64088,-3.0138 -6.59217,-4.9955 -0.86565,-0.7759 -1.64007,-1.6459 -2.5347,-2.3871 -0.83234,-0.7382 -1.41281,-1.6965 -1.98608,-2.6345 -0.78603,-1.3375 -1.41,-2.7779 -1.73277,-4.2993 -0.83088,-3.8475 -0.58479,-7.8067 -0.83379,-11.7093 -0.13317,-1.6632 -0.25764,-3.3554 -0.80916,-4.9419 -0.19254,-0.5848 -0.21861,-1.2058 -0.34599,-1.8007 -0.74691,-1.2753 -1.035,-2.7953 -1.99479,-3.9476 -0.35316,-0.4024 -0.48636,-0.9466 -0.8772,-1.3158 -0.69915,-0.7484 -1.36788,-1.52 -2.04543,-2.2857 -1.06104,-1.2101 -2.48256,-2.0093 -3.86349,-2.7953 -1.03791,-0.6007 -2.20752,-0.9033 -3.31632,-1.3332 -0.75993,-0.385 -1.49238,-0.8222 -2.25522,-1.2 -2.982,-1.5721 -6.17378,-2.8242 -9.52964,-3.2874 -2.16702,-0.7136 -4.50483,-0.44 -6.68481,-1.0929 -1.25502,0.09 -2.54913,-0.2302 -3.77088,0.1722 -1.00461,0.2953 -2.0772,0.1882 -3.09636,0.032 -2.84877,-0.5428 -5.35449,-2.0787 -8.03106,-3.1035 -3.00656,-1.1103 -6.14342,-1.8138 -9.24989,-2.5912 -1.69359,-0.2229 -3.37284,-0.5964 -5.08968,-0.6137 -3.63474,-0.1651 -7.33908,0.3893 -10.91994,-0.4387 0.0333,-0.8236 0.10857,-1.7472 -0.50664,-2.3971 -0.83231,-0.7875 -2.10326,-0.4965 -3.05867,-1.0191 -0.37779,-0.2099 -0.46755,-0.7252 -0.33003,-1.106 0.25764,-0.6152 0.86706,-1.006 1.09863,-1.6342 0.0956,-0.3156 -0.006,-0.6326 -0.11433,-0.9264 -3.55668,-0.6384 -7.16538,0.3604 -10.73244,-0.1289 -1.83402,-0.2533 -3.62754,-0.8222 -5.24886,-1.7182 -0.59928,-0.3445 -1.25652,-0.6282 -1.73127,-1.1465 -0.41979,-0.4458 -1.11609,-0.6326 -1.40268,-1.1869 0.2895,-0.925 1.14357,-1.5461 1.57932,-2.4015 0.24894,-0.5892 0.78747,-0.9757 1.08279,-1.5373 0.38217,-0.6977 0.93369,-1.2811 1.32882,-1.9702 0.54864,-0.8931 1.21593,-1.7341 1.54893,-2.7417 0.28515,-0.9235 0.6123,-1.8355 0.84825,-2.7735 0.3315,-1.2781 0.42705,-2.6837001 -0.12594,-3.9156001 0.22872,-0.6326 0.80196,-1.0206 1.40991,-1.2406 1.0017,-0.4024 1.95852,-0.9713 2.68956,-1.7762 0.62535,-0.7049 0.93369,-1.7746 0.47337,-2.6475 -1.55325,-0.1897 -3.14268,0.7498 -4.64961,0.059 0.22437,-0.4358 0.57468,-0.7788 0.88734,-1.1494 0.48639,-0.54140004 0.58338,-1.29550004 0.71367,-1.98170004 0.0622,-0.61379996 -0.0695,-1.35639996 -0.58047,-1.74719996 -0.45309,-0.029 -0.67458,0.4502 -1.03932,0.6384 -2.16261,1.40259996 -4.8522,1.68919996 -7.36806,1.51989996 -0.70497,-0.1853 -1.43745,-0.2186 -2.14527,-0.3894 -2.37542,-0.52979996 -4.68137,-1.43589996 -7.13207,-1.57059996 -0.54138,0.023 -1.00602,-0.2909 -1.4997,-0.4617 -1.36068,-0.5124 -2.73441,-0.993 -4.04595,-1.6256 -2.46807,-0.883 -5.41386,-0.1231 -7.61706,-1.7864 -0.50667,-0.2171 -0.5877,-0.8859 -1.11027,-1.0726 -1.36941,-0.5776 -2.88495,-1.0582 -4.37886,-0.7368 -0.52113,0.078 -0.99299,0.3257 -1.49681,0.4632 -0.58335,0.088 -1.09872,-0.2693 -1.61838,-0.4705 -0.48492,-0.2417 -1.03794,-0.1824 -1.5576,-0.2634 -0.14475,-0.5212 -0.25044,-1.0712 -0.58191,-1.5156 -0.83814,-1.2853999 -1.15368,-2.9746999 -2.48256,-3.8924999 -1.10307,-0.8642 -2.57664,-0.8511 -3.90693,-0.8338 -0.15924,-0.2692 -0.24465,-0.6398 -0.56745,-0.7599 -0.46032,-0.181 -0.98577,-0.2013 -1.46634,-0.1014 -0.45162,0.1144 -0.61809,0.5834 -0.7845,0.9642 -0.53994,0.2402 -1.15518,0.2243 -1.68204,0.4936 -1.12473,0.4994 -1.85718,1.5633 -2.40441,2.6215 -0.66444,1.5604999 -0.006,3.3365999 -0.63981,4.9056999 -0.22149,0.5921 -0.7701,0.9467 -1.16823,1.407 -0.46755,0.5182 -1.01325,1.0031 -1.27818,1.6647 -0.15198,0.7209 0.57324,1.2218 1.19139,1.3564 1.17111,0.1969 2.27697,-0.3503 3.39447,-0.6022 0.55875,0.8497 0.30831,1.88329996 0.2982,2.82709996 0.28227,0.88450004 1.34475,0.4213 1.96863,0.76140004 0.15636,0.236 0.15924,0.5313 0.21714,0.802 0.27648,0.064 0.55296,0.1288 0.82947,0.1969 0.0189,0.088 0.0579,0.2648 0.0781,0.3531 0.26346,0.1274 0.5385,0.2331 0.81786,0.3315 0.0796,0.5124 0.56601,0.8468 1.0755,0.7325 0.99591,-0.1491 1.36218,-1.2362 2.11059,-1.7646 0.64704,-0.081 1.40988,0.035 1.79643,0.6239 -0.13899,0.1723 -0.37494,0.4285 -0.12597,0.621 0.65718,0.5255 1.27818,1.093 1.905,1.6517 0.59784,0.084 1.00752,-0.4401 1.4577,-0.7354 0.21132,0.3808 0.25476,0.8773 0.62682,1.1523 0.50229,0.3952 1.13343,0.5646 1.70814,0.8251 0.0362,0.064 0.10854,0.1911 0.14475,0.2548 -0.29676,0.7354 -0.0492,1.7038 0.67455,2.0931 -0.26925,0.3156 -0.48783,0.7021 -0.33873,1.1292 0.25764,0.6354 0.76428,1.1970001 0.68901,1.9339001 -0.43137,0.2027 -0.91341,0.11 -1.37082,0.1636 -0.47478,-0.02 -0.65427,0.6977 -1.15659,0.5066 -0.64707,-0.1592 -1.30566,-0.3011 -1.93398,-0.5138 -0.30687,-0.375 -0.23595,-0.9539 -0.60795,-1.2854 -0.7788,-0.1853001 -1.60827,-0.1926001 -2.37543,0.056 -0.12303,-0.4285001 -0.28806,-0.9323001 -0.75708,-1.0872001 -1.14786,-0.3546 -2.23356,-0.938 -3.43647,-1.0885 -0.54864,0.025 -1.04661,0.2953 -1.58943,0.3402 -0.36189,0 -0.64851,-0.291 -1.00893,-0.291 -1.21011,-0.023 -2.45793,-0.2519 -3.63768,0.1274 -0.33582,0.085 -0.67746,0.3662 -1.02918,0.1781 -0.76719,-0.388 -1.01766,-1.3926 -1.8645,-1.6677 -0.30252,-0.1563 -0.56742,0.093 -0.83523,0.1969 -0.96693,0.4734 -2.08884,0.3358 -3.07893,0.016 -0.0695,-0.3329 -0.0593,-0.7426 -0.372,-0.9539 -0.27071,-0.1853 -0.56456,-0.3966 -0.90908,-0.3793 -0.89313,-0.038 -1.65597,0.5038 -2.50422,0.6789 -0.54282,0.1506 -1.12623,0.039 -1.62273,-0.2026 -0.5124,-0.2229 -0.31845,-0.9714 -0.79902,-1.229 -0.49509,-0.2287 -1.05816,-0.4444 -1.60677,-0.2953 -0.88449,0.2201 -1.65459,0.828 -2.58675,0.8613 -0.46032,0 -0.9279,-0.051 -1.36218,-0.2113 -0.51387,-0.3113 -0.56166,-1.0582 -1.12041,-1.3245 -0.46176,-0.1868 -0.93222,-0.3909 -1.43304,-0.4372 -0.42705,-0.051 -0.71943,0.3185 -1.06977,0.4936 -1.13055,0.6456 -2.49123,0.5906 -3.74775,0.5371 -0.0593,-0.4068 -0.042,-0.8193 -0.0362,-1.2276 -0.82077,-0.2678 -1.69077,-0.1303 -2.53611,-0.1592 -0.77301,-0.039 -0.93807,0.8772 -1.60246,1.0654 -0.89315,0.2924 -1.84996,0.1881 -2.77499,0.233 -0.10857,-0.3069 -0.19108,-0.6239 -0.34886,-0.9076 -0.32715,-0.3025 -0.79616,-0.3098 -1.2073,-0.3851 -0.65286,0.026 -1.16381,0.4488 -1.6169,0.8744 -0.25622,0.2866 -0.23017,0.7744 -0.62101,0.9466 -0.7093,0.3576 -1.52859,0.3981 -2.25383,0.7224 -0.79181,-0.3532 -1.56918,0.081 -2.30164,0.3633 -0.43136,0.1867 -0.93222,0.1549 -1.31869,-0.1201 -1.65458,-0.9482 -3.68398,-1.0162 -5.2706,-2.1033 -0.71798,-0.7238 -1.60245,-1.614 -2.719946,-1.4157 -0.10566,0.7382 -0.0695,1.5373 0.28517,2.2089 0.30689,0.6789 0.469006,1.4244 0.874326,2.0585 0.49361,0.7454 1.10736,1.404 1.7428,2.0324 0.0999,0.1317 0.2924,0.2243 0.30688,0.4053 -0.0796,0.2649 -0.35755,0.4429 -0.38215,0.7281 -0.0217,1.0089001 -0.66877,1.8702001 -0.72667,2.8748001 -0.0637,0.5805 0.13752,1.1624 0.006,1.74 -0.28517,1.4432 -0.8584,2.8069 -1.31147,4.1993 -0.372016,2.3161 -0.955396,4.6018 -1.145046,6.944 -0.27793,0.896 -0.34886,1.8369 -0.5052,2.7575 0.10568,1.8385 -1.19709,3.4524 -0.92209,5.3082 0.60508,3.2367 -0.52836,6.4981 -0.0362,9.7425 0.0825,0.6412 0.23885,1.2898 0.5993,1.8369 0.52835,0.8555 1.40268,1.4027 2.039606,2.1655 0.72377,0.815 1.4968,1.6661 2.56358,2.0208 1.00312,0.3127 2.22205,0.1911 3.00364,-0.566 0.4111,-0.2331 0.90906,-0.2837 1.31728,-0.5385 0.91775,-0.5255 1.99039,-0.9698 2.53611,-1.9325 0.30254,-0.7179 0.63836,-1.462 0.62389,-2.2567 0.0333,-0.6963 -0.50665,-1.3245 -0.27938,-2.028 0.24174,-0.744 0.69917,-1.4013 1.14937,-2.0309 0.33438,-0.3069 0.45019,-0.8352 0.88301,-1.0249 0.80484,-0.1809 1.54022,0.333 2.20462,0.7137 0.62823,0.6239 1.27096,1.2348 1.8673,1.8906 2.43336,2.2306 5.12143,4.4092 8.39293,5.2198 1.17834,0.3562 2.41452,0.1332 3.62031,0.2215 0.92064,-0.1129 1.81527,-0.4458 2.61861,-0.909 1.99332,-1.1321 3.04275,-3.4394 5.19963,-4.3398 0.79617,0.4473 0.99009,1.5517 1.90209,1.8297 0.45162,0.123 0.74403,0.5168 1.01325,0.8729 0.39372,0.5269 0.63114,1.1508 0.77733,1.7892 -0.64272,0.5862 -1.48377,0.8642 -2.31027,1.0727 -2.2842,0.4053 -4.62633,0.123 -6.91497,0.4762 -1.19856,0.4647 -1.88181,1.6474 -2.47386,2.7186 -0.6456,1.1015 -0.67455,2.4217 -0.58047,3.6623 -0.009,0.7701 -0.0117,1.5764 0.36768,2.2727 0.23451,0.5544 0.74838,0.9163 1.00173,1.4591 0.34524,0.7398 0.88221,1.3937 1.30518,2.0892 0.19998,0.3289 0.44283,0.6924 0.52086,1.0674 0.08,0.3848 0.12792,0.7626 0.25143,1.141 0.42285,1.2955 1.22484,2.4286 1.66677,3.711 0.4017,1.1655 0.42093,2.4847 1.12689,3.5333 0.42354,0.6292 1.08843,1.0797 1.81686,1.2788 0.79413,0.2171 1.74993,0.1342 2.56125,0.065 0.0317,-0.2101 0.19863,-0.3802 0.39042,-0.4716 0.19176,-0.091 0.40737,-0.1173 0.61869,-0.1392 1.73757,-0.1803 3.49713,-0.1841 5.22776,0.053 0.40968,0.056 0.83994,0.1358 1.15386,0.405 0.22545,0.1934 0.36633,0.4645 0.50979,0.7246 0.43245,0.7841 0.96729,1.4958 1.45122,2.2453 0.28944,0.4539 0.68547,0.83 0.96957,1.2887 l 1.62144,0 c -0.005,-0.01 -0.01,-0.016 -0.0144,-0.025 0.56166,0.074 1.10595,0.2418 1.66761,0.3185 1.81086,0.2388 3.64929,0.1447 5.45295,-0.097 0.58191,-0.1072 0.79179,-0.7224 0.70494,-1.2463 -0.15198,-0.1723 -0.38793,-0.3055 -0.414,-0.553 -0.2982,-1.4346 -1.05816,-2.7113 -1.76745,-3.9736 -0.59493,-0.7904 -0.85551,-1.7935 -1.55757,-2.5071 -0.70929,-0.7557 -1.55034,-1.4476 -2.57661,-1.7009 -0.44295,-0.097 -0.92064,-0.2244 -1.35636,-0.033 -0.58626,0.2388 -1.32894,0.048 -1.8138,0.5327 -0.60507,0.6297 -0.63405,1.669 -1.44036,2.1365 -0.35322,-0.1375 -0.69774,-0.2895 -1.05234,-0.4169 0.0767,-0.3981 0.62535,-0.8149 0.20844,-1.1869 -1.18557,-1.258 -3.01086,-1.5807 -4.66835,-1.491 -0.79905,-0.1954 -1.00461,-1.1089 -1.35057,-1.7428 -0.47913,-0.6398 -0.86271,-1.3419 -1.35777,-1.9687 -0.60795,-1.1552 -1.45911,-2.1655 -2.01786,-3.3467 0.59205,-0.152 1.12914,0.1635 1.66611,0.3619 1.2015,0.4212 2.32623,1.0393 3.55959,1.3723 1.27676,0.6905 2.74019,0.828 4.15739,0.9814 1.37082,0.1375 2.83575,0.3026 3.97212,1.1552 2.05113,1.6502 4.62354,2.4044 7.09449,3.1716 1.58511,0.453 3.00363,1.3129 4.45554,2.0685 0.94098,0.4155 1.99179,0.4473 3.00363,0.4806 4.6466,0.7035 9.40778,-0.1027 14.01932,0.9163 0.96693,0.1781 1.88613,0.6037 2.88354,0.6138 5.43117,0.4444 10.90119,1.0929 16.34615,0.4675 1.93827,-0.075 3.87513,-0.2012 5.8047,-0.398 5.85822,-0.095 11.75244,-0.013 17.54426,0.9568 2.09025,0.4719 4.12845,1.1682 6.07824,2.0613 0.71367,0.3793 1.3521,0.8802 2.00778,1.3535 0.52257,0.3851 1.08861,0.7194 1.56336,1.1725 1.16964,1.0944 1.62564,2.7475 2.8647,3.7824 0.73974,0.6066 1.46205,1.2362 2.23359,1.8037 0.69918,0.553 1.29123,1.2275 2.01066,1.7573 0.47046,0.3474 0.88011,0.7658 1.25361,1.2175 1.96434,1.8962 4.74072,2.4419 7.0163,3.8389 1.14495,0.7614 2.35086,1.4982 3.21504,2.5941 0.28227,0.3995 0.77445,0.5573 1.11027,0.9032 0.75852,0.7904 1.62273,1.4693 2.48109,2.1467 0.76863,0.4748 1.39686,1.1479 2.20893,1.5576 2.09313,1.1522 4.6119,1.5937 6.35472,3.3279 0.46467,0.6036 1.08561,1.09 1.42875,1.7834 0.47334,0.7788 0.92643,1.5692 1.44036,2.3233 0.49794,0.9004 1.28829,1.5807 1.98609,2.3219 0.26631,0.456 0.77151,0.7411 0.94086,1.2579 0.20988,0.6094 0.54864,1.1624 0.87288,1.7168 0.48348,0.8005 0.77154,1.7023 1.29414,2.4826 0.40098,0.5776 0.4965,1.3058 0.91629,1.8717 0.42848,0.6963 0.37781,1.5996 0.90617,2.2481 0.27213,0.3213 0.31989,0.7556 0.46755,1.1406 0.50376,1.3998 1.21164,2.7243 1.60386,4.1646 0.11583,0.4111 0.11145,0.87 0.35178,1.2406 0.54282,0.857 0.57177,1.9239 1.077,2.7982 0.2562,0.4328 0.43428,0.9148 0.75705,1.31 0.59643,0.7571 1.35639,1.4418 1.64157,2.3928 0.20841,1.0278 0.7194,2.0034 1.47075,2.7402 0.33147,0.524 0.78747,0.9568 1.10304,1.4939 0.53268,0.76 1.2825,1.3303 1.92816,1.9918 0.57321,0.5341 1.05234,1.1696 1.67043,1.6589 0.33438,0.2446 0.8121,0.5486 1.21302,0.2576 0.59928,-0.4212 0.5457,-1.2535 0.96552,-1.805 0.2562,-0.6442 0.41835,-1.326 0.621,-1.989 0.85263,0.2736 1.43304,0.9786 2.07288,1.5619 0.91488,0.8772 2.00775,1.5301 3.05868,2.2263 0.67164,0.075 1.26084,-0.4154 1.56768,-0.9713 0.72522,-1.7747 1.18707,-3.7028 1.01916,-5.6281 -0.0724,-1.5662 -0.41259,-3.2294 -1.48086,-4.4353 -0.85407,-0.9394 -1.94841,-1.6198 -2.77209,-2.5896 -0.9033,-0.595 -1.96143,0.5602 -2.89077,0.01 -0.60657,-0.2388 -0.77592,-0.9134 -0.83817,-1.4939 0.17805,-0.1288 0.41835,-0.2099 0.50958,-0.4285 -0.0521,-0.8323 -0.60219,-1.5155 -1.17114,-2.0758 -1.07118,-1.31 -2.23938,-2.5622 -3.04422,-4.0618 -0.40821,-0.4907 -0.63114,-1.0828 -0.78894,-1.6921 -0.11436,-0.4937 -0.55296,-0.7977 -0.77877,-1.2276 -1.04802,-2.3754 -1.8732,-4.8421 -2.87772,-7.2363 -0.70494,-1.685 -0.75273,-3.5365 -1.07841,-5.3111 -0.15054,-0.9149 -0.67308,-1.714 -0.84099,-2.623 -0.12597,-0.524 -0.0144,-1.1001 -0.29823,-1.5807 -0.22869,-0.5298 -0.80484,-0.7295 -1.19136,-1.1132 -1.07268,-0.7918 -2.21625,-1.4866 -3.38436,-2.1264 -1.0031,-0.676 -1.96724,-1.4099 -2.91971,-2.1554 -0.54285,-0.4096 -0.95109,-0.9626 -1.44609,-1.4229 -0.63258,-0.5921 -1.05234,-1.3593 -1.63425,-1.9933 -0.74841,-0.8671 -1.18125,-1.9571 -1.98459,-2.775 -0.9264,-1.5663 -1.67334,-3.2512 -2.112,-5.0201 -0.3879,-1.5503 -0.55872,-3.1803 -0.23883,-4.7596 0.42705,-3.2671 1.33752,-6.4575 1.60536,-9.748 0.19686,-2.8097 -0.10569,-5.8438 -1.79493,-8.1918 -0.33003,-0.6152 -0.48783,-1.3158 -0.93945,-1.8645 -0.75999,-1.6458 -1.63725,-3.2411 -2.67507,-4.7292 -0.16068,-0.4096 0.009,-1.0262 0.48639,-1.1262 0.60075,-0.2084 1.24491,-0.01 1.863,-0.1013 1.60677,-0.3909 3.28161,-0.2403 4.90572,-0.058 1.27527,0.1954 2.73147,0.4328 3.59427,1.4895 0.59349,1.0828 1.2912,2.1684 1.4157,3.4278 0.86127,2.623 0.13896,5.4443 0.84972,8.0933 0.13026,0.4488 0.2316,1.1074 0.84536,1.0712 0.16647,-0.5978 -0.007,-1.2435 0.26199,-1.8196 0.29241,0.278 0.22728,0.7166 0.33732,1.077 0.63981,2.3958 -0.75998,4.7987 -0.18966,7.2002 0.56889,1.3984 0.93657,2.9703 2.05554,4.059 0.17082,0.2157 0.46902,0.094 0.70353,0.1042 0.43425,0.4342 0.42126,1.0986 0.75708,1.5879 0.34884,0.3272 0.78456,0.5703 1.04943,0.9873 0.94818,1.3548 1.16961,3.0442 1.48959,4.6292 0.0724,0.4676 0.37923,0.8512 0.49791,1.3058 0.17949,0.5341 0.21858,1.1464 0.61089,1.585 0.80193,0.9424 1.34193,2.1322 2.37111,2.8647 0.74406,0.2939 1.37373,0.8512 1.782,1.5373 0.98577,1.4663 2.55927,2.3581 4.09797,3.1369 1.614,0.9134 3.16152,1.9686 4.90002,2.6417 1.13634,0.4575 2.34795,0.7079 3.5682,0.7933 0.42123,0 0.76287,0.2851 1.15809,0.401 0.854,0.2692 1.7921,0.2851 2.58821,0.7382 0.30834,0.1896 0.67602,0.1853 1.02918,0.1534 -0.2562,-0.3937 -0.73536,-0.5355 -1.01904,-0.9003 1.63434,0.087 3.10356,0.9264 4.48308,1.7443 0.67602,0.4371 1.29414,0.9626 2.00052,1.3534 0.31848,0.1651 0.66009,0.3503 1.035,0.3055 -0.22146,-0.2953 -0.47334,-0.5617 -0.69918,-0.8483 0.79182,-0.22 1.36803,0.5501 2.12796,0.5877 0.77592,0.071 1.53441,0.2548 2.30304,0.3865 0.35178,0.042 0.72375,0.1303 1.06689,-0.019 -0.5196,-0.3097 -1.12902,-0.4067 -1.64718,-0.7107 z M 120.48821,27.79261 c 0.86853,-0.4777 1.88613,-0.5732 2.85456,-0.4299 -1.14645,0.5544 -2.22195,1.2391 -3.27579,1.9513 0.16068,-0.5008 0.34164,-0.9988 0.42123,-1.5214 z m 16.21677,11.7037 c -1.79493,0.1317 -2.96172,1.6444 -4.22979,2.7287 -0.87867,0.6195 -1.57056,1.4881 -2.57379,1.9267 -1.35777,0.9047 -3.10068,0.7889 -4.6119,0.3995 -1.54605,-0.3285 -2.93709,-1.1073 -4.28475,-1.8977 -1.2058,-0.7904 -2.38413,-1.6633 -3.31056,-2.7764 -1.26665,-1.0973 -2.64037,-2.3219 -4.40202,-2.4247 -0.0507,-0.1563 -0.0984,-0.3097 -0.14764,-0.4617 0.15633,-0.4473 0.18528,-1.0422 0.64561,-1.2956 3.16292,-1.9673 6.32003,-3.9476 9.47994,-5.922 0.65865,-0.4213 1.34475,-0.8005 1.95852,-1.2883 0.52836,-0.3995 1.23327,-0.401 1.82973,-0.1636 1.29552,0.2808 2.52306,0.802 3.7014,1.3998 0.7455,0.2967 1.29702,0.9033 1.97016,1.3231 0.71943,0.44 1.08561,1.242 1.72404,1.7732 0.61521,0.4777 0.89748,1.2261 1.36941,1.8225 0.47625,0.5762 0.7701,1.2782 1.01043,1.9803 0.2229,0.634 0.11001,1.3144 0.17082,1.9716 0.0376,0.3329 -0.10278,0.6427 -0.29964,0.9047 z m 49.71445,-23.0989 c -0.27072,0.1462 -0.60219,0.2808 -0.76431,0.5486 -0.0129,0.4936 -0.0912,0.9785 -0.19977,1.4591 -0.6876,-0.11 -1.24059,-0.5414 -1.80363,-0.9148 -0.45165,-0.3214 -1.01616,-0.3996 -1.48668,-0.6818 -0.82368,-0.4835 -1.78341,-0.6268 -2.64759,-1.0061 -1.12329,-0.5558 -2.44059,-0.1737 -3.58995,-0.6369 -0.0492,-0.443 -0.0159,-0.896 0.19107,-1.297 1.60386,0.1071 3.231,-0.3909 4.8117,0.032 0.83379,0.2041 1.35777,0.993 2.2032,1.1783 1.21302,0.4545 2.4855,0.023 3.71445,-0.049 0.55731,0.3793 0.74694,1.0799 0.83523,1.714 -0.42267,-0.1028 -0.81495,-0.4358 -1.26372,-0.346 z"
   id="path4"
   inkscape:connector-curvature="0"
   style="fill:#000000;fill-opacity:1" />
<text
   xml:space="preserve"
   style="font-style:italic;font-variant:normal;font-weight:normal;font-stretch:normal;font-size:16.87490654px;line-height:125%;font-family:'Monotype Corsiva';-inkscape-font-specification:'Monotype Corsiva, Italic';text-align:start;letter-spacing:0px;word-spacing:0px;writing-mode:lr-tb;text-anchor:start;fill:#8b1111;fill-opacity:1;stroke:none;stroke-width:1px;stroke-linecap:butt;stroke-linejoin:miter;stroke-opacity:1"
   x="122.1638"
   y="97.863632"
   id="text4138"
   sodipodi:linespacing="125%"><tspan
     sodipodi:role="line"
     id="tspan4146"
     x="122.1638"
     y="97.863632">Reit- und Jagdstall </tspan></text>

<text
   xml:space="preserve"
   style="font-style:normal;font-weight:normal;font-size:40px;line-height:125%;font-family:sans-serif;letter-spacing:0px;word-spacing:0px;fill:#000000;fill-opacity:1;stroke:none;stroke-width:1px;stroke-linecap:butt;stroke-linejoin:miter;stroke-opacity:1"
   x="432.14209"
   y="-125.44533"
   id="text4150"
   sodipodi:linespacing="125%"><tspan
     sodipodi:role="line"
     id="tspan4152"
     x="432.14209"
     y="-125.44533" /></text>

<text
   xml:space="preserve"
   style="font-style:italic;font-variant:normal;font-weight:normal;font-stretch:normal;font-size:180px;line-height:125%;font-family:'Monotype Corsiva';-inkscape-font-specification:'Monotype Corsiva, Italic';text-align:start;letter-spacing:0px;word-spacing:0px;writing-mode:lr-tb;text-anchor:start;fill:#000000;fill-opacity:1;stroke:none;stroke-width:1px;stroke-linecap:butt;stroke-linejoin:miter;stroke-opacity:1"
   x="432.14209"
   y="-71.585831"
   id="text4154"
   sodipodi:linespacing="125%"><tspan
     sodipodi:role="line"
     id="tspan4156"
     x="432.14209"
     y="-71.585831" /></text>

<text
   xml:space="preserve"
   style="font-style:italic;font-variant:normal;font-weight:normal;font-stretch:normal;font-size:180px;line-height:125%;font-family:'Monotype Corsiva';-inkscape-font-specification:'Monotype Corsiva, Italic';text-align:start;letter-spacing:0px;word-spacing:0px;writing-mode:lr-tb;text-anchor:start;fill:#000000;fill-opacity:1;stroke:none;stroke-width:1px;stroke-linecap:butt;stroke-linejoin:miter;stroke-opacity:1"
   x="418.67722"
   y="-17.726452"
   id="text4158"
   sodipodi:linespacing="125%"><tspan
     sodipodi:role="line"
     id="tspan4160"
     x="418.67722"
     y="-17.726452" /></text>

<text
   xml:space="preserve"
   style="font-style:italic;font-variant:normal;font-weight:normal;font-stretch:normal;font-size:16.87490654px;line-height:125%;font-family:'Monotype Corsiva';-inkscape-font-specification:'Monotype Corsiva, Italic';text-align:start;letter-spacing:0px;word-spacing:0px;writing-mode:lr-tb;text-anchor:start;fill:#8b1111;fill-opacity:1;stroke:none;stroke-width:1px;stroke-linecap:butt;stroke-linejoin:miter;stroke-opacity:1"
   x="126.52939"
   y="113.23033"
   id="text4162"
   sodipodi:linespacing="125%"><tspan
     sodipodi:role="line"
     id="tspan4164"
     x="126.52939"
     y="113.23033">Rösgen</tspan></text>

</svg>