<?xml version="1.0" encoding="UTF-8" standalone="no"?>
<svg
   xmlns:dc="http://purl.org/dc/elements/1.1/"
   xmlns:cc="http://creativecommons.org/ns#"
   xmlns:rdf="http://www.w3.org/1999/02/22-rdf-syntax-ns#"
   xmlns:svg="http://www.w3.org/2000/svg"
   xmlns="http://www.w3.org/2000/svg"
   xmlns:sodipodi="http://sodipodi.sourceforge.net/DTD/sodipodi-0.dtd"
   xmlns:inkscape="http://www.inkscape.org/namespaces/inkscape"
   enable-background="new 82.0557 -41.1481 2395.9443 1682.2961"
   version="1.1"
   viewBox="82.0557 -41.1481 2381.9443 1682.2961"
   xml:space="preserve"
   id="svg2"
   inkscape:version="0.91 r13725"
   sodipodi:docname="logo_favicon.svg"
   width="2381.9443"
   height="1682.2961"
   inkscape:export-filename="C:\Users\Lisa Metzler\Documents\IV LK\Projekt\HTML Seiten\logo.png"
   inkscape:export-xdpi="57.599701"
   inkscape:export-ydpi="57.599701"
   shape-rendering="crispEdges"><metadata
   id="metadata10"><rdf:RDF><cc:Work
       rdf:about=""><dc:format>image/svg+xml</dc:format><dc:type
         rdf:resource="http://purl.org/dc/dcmitype/StillImage" /><dc:title></dc:title></cc:Work></rdf:RDF></metadata><defs
   id="defs8" /><sodipodi:namedview
   pagecolor="#ffffff"
   bordercolor="#666666"
   borderopacity="1"
   objecttolerance="10"
   gridtolerance="10"
   guidetolerance="10"
   inkscape:pageopacity="1"
   inkscape:pageshadow="2"
   inkscape:window-width="1280"
   inkscape:window-height="790"
   id="namedview6"
   showgrid="false"
   inkscape:zoom="16.32"
   inkscape:cx="145.41457"
   inkscape:cy="1555.1033"
   inkscape:window-x="-8"
   inkscape:window-y="-8"
   inkscape:window-maximized="1"
   inkscape:current-layer="svg2" />
<path
   d="m 257.96115,84.0536 c -0.24048,-0.126843 -0.39075,-0.361684 -0.56681,-0.559231 -0.27757,-0.314191 -0.6952,-0.451464 -0.98748,-0.748311 -0.12961,-0.116223 -0.24569,-0.246546 -0.37969,-0.357571 -0.12461,-0.110582 -0.21165,-0.25414 -0.29751,-0.394645 -0.1178,-0.200355 -0.21122,-0.416116 -0.25957,-0.644011 -0.1244,-0.576352 -0.0876,-1.169414 -0.125,-1.754008 -0.02,-0.249142 -0.0386,-0.502624 -0.1212,-0.740279 -0.0288,-0.0876 -0.0328,-0.180625 -0.0518,-0.269745 -0.11181,-0.191024 -0.15501,-0.418714 -0.29883,-0.59132 -0.053,-0.06028 -0.0728,-0.141803 -0.1314,-0.197104 -0.10481,-0.112103 -0.20489,-0.227682 -0.30639,-0.342388 -0.159,-0.181265 -0.37187,-0.300977 -0.57873,-0.418716 -0.15541,-0.08998 -0.33069,-0.135303 -0.49678,-0.199705 -0.1138,-0.05768 -0.22354,-0.123163 -0.33782,-0.179744 -0.44669,-0.235494 -0.92481,-0.423056 -1.4275,-0.492442 -0.3246,-0.106902 -0.67481,-0.06592 -1.00136,-0.163724 -0.18801,0.0134 -0.38185,-0.03448 -0.56485,0.0258 -0.15061,0.04424 -0.31117,0.02818 -0.46384,0.0048 -0.42673,-0.08132 -0.80207,-0.311383 -1.20302,-0.464905 -0.45037,-0.166304 -0.92025,-0.271694 -1.3856,-0.388141 -0.25368,-0.0334 -0.50523,-0.08934 -0.76239,-0.09194 -0.54448,-0.02472 -1.09937,0.05832 -1.63578,-0.0657 0.004,-0.123383 0.016,-0.261726 -0.0758,-0.359086 -0.12461,-0.117963 -0.31507,-0.07438 -0.45818,-0.152644 -0.0566,-0.03144 -0.07,-0.108642 -0.0494,-0.165664 0.0386,-0.09216 0.12981,-0.150703 0.16461,-0.244802 0.014,-0.04728 -9e-4,-0.09476 -0.018,-0.138783 -0.53278,-0.09562 -1.07335,0.054 -1.60768,-0.0192 -0.27473,-0.03794 -0.54339,-0.123163 -0.78626,-0.257386 -0.0898,-0.0516 -0.1882,-0.0941 -0.25935,-0.171724 -0.0628,-0.06678 -0.1672,-0.09476 -0.2101,-0.177805 0.0434,-0.138563 0.1714,-0.231587 0.23656,-0.359732 0.0374,-0.08826 0.11801,-0.146144 0.16221,-0.230282 0.0572,-0.104522 0.1398,-0.191904 0.199,-0.295118 0.0822,-0.133784 0.18221,-0.259775 0.23203,-0.410698 0.0428,-0.138343 0.0918,-0.274953 0.127,-0.415458 0.0496,-0.191465 0.064,-0.402015 -0.018,-0.586546 0.0342,-0.09476 0.1202,-0.152883 0.21121,-0.185824 0.15,-0.06028 0.29336,-0.145504 0.40289,-0.266065 0.0936,-0.105602 0.1398,-0.26584 0.0708,-0.396597 -0.23267,-0.0284 -0.47077,0.112323 -0.6965,0.0088 0.0336,-0.06526 0.086,-0.116662 0.133,-0.172164 0.0728,-0.0811 0.0874,-0.194064 0.10681,-0.296849 0.01,-0.09194 -0.01,-0.203179 -0.087,-0.261724 -0.0678,-0.0044 -0.101,0.06744 -0.1558,0.09562 -0.32395,0.210117 -0.72684,0.253046 -1.10371,0.227686 -0.1056,-0.02776 -0.2153,-0.03274 -0.32134,-0.05832 -0.35583,-0.07936 -0.70124,-0.215101 -1.06835,-0.235267 -0.081,0.0034 -0.1506,-0.04358 -0.22464,-0.06918 -0.20383,-0.07676 -0.40961,-0.148743 -0.60608,-0.24351 -0.36971,-0.132263 -0.81098,-0.0184 -1.141,-0.267582 -0.0758,-0.03252 -0.088,-0.132703 -0.16621,-0.160684 -0.20514,-0.08652 -0.43217,-0.158503 -0.65593,-0.110362 -0.078,0.0118 -0.14881,0.04878 -0.22423,0.06938 -0.0874,0.0132 -0.1646,-0.04032 -0.24242,-0.07048 -0.0726,-0.0362 -0.15541,-0.02732 -0.23333,-0.03946 -0.0216,-0.07806 -0.0376,-0.160464 -0.0872,-0.227024 -0.12561,-0.192544 -0.17281,-0.445594 -0.37189,-0.583077 -0.16521,-0.129443 -0.38597,-0.127503 -0.58523,-0.124903 -0.0238,-0.04034 -0.0366,-0.09584 -0.085,-0.113843 -0.069,-0.0271 -0.1476,-0.03014 -0.21964,-0.0152 -0.0676,0.0172 -0.0926,0.08738 -0.1176,0.144423 -0.0808,0.036 -0.17301,0.03362 -0.25197,0.07394 -0.1684,0.07482 -0.27819,0.234187 -0.36017,0.392693 -0.0996,0.233752 -9e-4,0.499816 -0.0958,0.734859 -0.0332,0.08868 -0.1154,0.141804 -0.17501,0.210761 -0.07,0.07762 -0.1518,0.150264 -0.1914,0.249366 -0.0228,0.107983 0.0858,0.183005 0.1784,0.203179 0.17541,0.02948 0.34107,-0.05248 0.50848,-0.0902 0.0838,0.127283 0.0462,0.282103 0.0446,0.423488 0.0422,0.132483 0.20144,0.0631 0.2949,0.114063 0.0234,0.03534 0.0238,0.07958 0.0326,0.120122 0.0414,0.0096 0.0828,0.0192 0.12421,0.0295 0.002,0.0132 0.008,0.03968 0.012,0.0529 0.0394,0.019 0.0806,0.03492 0.1226,0.04966 0.012,0.07676 0.0848,0.126843 0.161,0.109722 0.14921,-0.02234 0.20405,-0.185184 0.31615,-0.264324 0.097,-0.0122 0.21121,0.0052 0.26911,0.09346 -0.0208,0.0258 -0.0562,0.06418 -0.018,0.09302 0.0984,0.07872 0.1914,0.163724 0.28536,0.247414 0.0896,0.0126 0.15101,-0.06592 0.21837,-0.110162 0.0316,0.05702 0.0382,0.131403 0.0938,0.172604 0.0752,0.0592 0.16981,0.08456 0.25589,0.123603 0.006,0.0096 0.016,0.02862 0.0216,0.03816 -0.0444,0.110163 -0.008,0.255222 0.101,0.313544 -0.0404,0.04726 -0.073,0.105162 -0.0508,0.169144 0.0386,0.0952 0.1144,0.179324 0.1032,0.289699 -0.0646,0.03036 -0.1368,0.0164 -0.20534,0.0245 -0.0712,-0.003 -0.098,0.104523 -0.17321,0.0759 -0.097,-0.02384 -0.1956,-0.0451 -0.2897,-0.07698 -0.046,-0.05616 -0.0354,-0.142883 -0.091,-0.192544 -0.1166,-0.02776 -0.2409,-0.02884 -0.35582,0.0084 -0.018,-0.06418 -0.0432,-0.139643 -0.11341,-0.162844 -0.172,-0.05312 -0.33458,-0.140523 -0.51477,-0.163064 -0.0822,0.0036 -0.1568,0.04424 -0.23808,0.05096 -0.0542,-4.5e-4 -0.0972,-0.04358 -0.15121,-0.04358 -0.1812,-0.0034 -0.36819,-0.03772 -0.54491,0.019 -0.0502,0.0128 -0.1014,0.05486 -0.1542,0.02668 -0.11501,-0.0581 -0.15241,-0.2086 -0.27929,-0.249803 -0.0454,-0.02342 -0.085,0.0138 -0.1252,0.02948 -0.14481,0.0709 -0.31291,0.0503 -0.46121,0.0024 -0.01,-0.04988 -0.008,-0.111242 -0.0558,-0.142883 -0.0406,-0.02776 -0.0846,-0.05942 -0.1362,-0.05682 -0.1338,-0.0056 -0.24805,0.07546 -0.37511,0.101702 -0.0814,0.02254 -0.1688,0.0058 -0.24308,-0.03036 -0.0768,-0.03338 -0.0476,-0.145503 -0.11961,-0.184084 -0.0742,-0.03426 -0.1586,-0.06656 -0.24068,-0.04424 -0.13241,0.03296 -0.24787,0.124043 -0.38749,0.129023 -0.069,4.5e-4 -0.13901,-0.0076 -0.20405,-0.03166 -0.077,-0.04662 -0.0842,-0.158504 -0.1678,-0.198404 -0.0692,-0.02798 -0.1396,-0.05854 -0.21467,-0.06548 -0.064,-0.0076 -0.1078,0.0477 -0.1602,0.07394 -0.1694,0.09672 -0.37317,0.08846 -0.56139,0.08044 -0.008,-0.06092 -0.006,-0.122723 -0.006,-0.183885 -0.12301,-0.04012 -0.25329,-0.0196 -0.37991,-0.02386 -0.1158,-0.0058 -0.14061,0.131403 -0.24005,0.159583 -0.1338,0.0438 -0.2771,0.0282 -0.41567,0.03492 -0.016,-0.04596 -0.0286,-0.09346 -0.0522,-0.135963 -0.049,-0.04532 -0.1192,-0.0464 -0.1808,-0.05768 -0.0978,0.0038 -0.17441,0.06722 -0.24221,0.130963 -0.0384,0.04294 -0.0344,0.116003 -0.093,0.141803 -0.1062,0.05356 -0.22899,0.05962 -0.33763,0.108203 -0.1186,-0.0529 -0.23504,0.0122 -0.34477,0.05442 -0.0646,0.02798 -0.1396,0.0232 -0.1976,-0.018 -0.24785,-0.142044 -0.55183,-0.152224 -0.7895,-0.315062 -0.1076,-0.108422 -0.24005,-0.241768 -0.40745,-0.212067 -0.016,0.110583 -0.01,0.230282 0.0428,0.330888 0.046,0.101702 0.0702,0.213373 0.131,0.308349 0.074,0.111663 0.16581,0.210325 0.26107,0.304445 0.014,0.0198 0.0438,0.0336 0.046,0.06072 -0.012,0.03968 -0.0536,0.06636 -0.0572,0.109062 -0.004,0.151124 -0.1002,0.280149 -0.1088,0.430639 -0.01,0.08694 0.0206,0.174124 9e-4,0.260642 -0.0428,0.216181 -0.12861,0.420458 -0.19641,0.629043 -0.0558,0.346938 -0.1432,0.689326 -0.1716,1.040172 -0.0416,0.134223 -0.0522,0.275165 -0.0756,0.41307 0.016,0.275388 -0.17941,0.517158 -0.13821,0.795145 0.0906,0.484843 -0.0792,0.973383 -0.006,1.459378 0.012,0.09606 0.0358,0.193205 0.0898,0.275165 0.0792,0.128163 0.21012,0.210117 0.30552,0.324387 0.10841,0.122083 0.22423,0.249578 0.38401,0.302703 0.15021,0.04684 0.33287,0.02862 0.44993,-0.08478 0.0616,-0.0349 0.13621,-0.0425 0.19741,-0.08066 0.1374,-0.07872 0.29816,-0.145283 0.37991,-0.289474 0.0454,-0.107543 0.0956,-0.219006 0.0934,-0.33805 0.004,-0.104303 -0.0758,-0.198405 -0.0418,-0.303785 0.0362,-0.111463 0.1048,-0.209903 0.1722,-0.30422 0.05,-0.04598 0.0674,-0.125123 0.1322,-0.153523 0.12061,-0.0271 0.23073,0.04988 0.33025,0.106902 0.094,0.09346 0.19041,0.184965 0.27971,0.283199 0.36451,0.334144 0.76718,0.660483 1.25723,0.781914 0.1766,0.05334 0.36169,0.02 0.54231,0.03318 0.13801,-0.017 0.27191,-0.06678 0.39225,-0.136183 0.29859,-0.169564 0.45579,-0.515206 0.77888,-0.650077 0.1192,0.067 0.1484,0.232443 0.28493,0.274082 0.0676,0.0184 0.1114,0.0774 0.1518,0.130763 0.059,0.07892 0.0946,0.172384 0.1164,0.268016 -0.0962,0.08782 -0.22226,0.129444 -0.34607,0.160684 -0.34216,0.06072 -0.69301,0.0184 -1.03584,0.07134 -0.1796,0.0696 -0.28189,0.246768 -0.37057,0.407226 -0.0966,0.165003 -0.101,0.362766 -0.087,0.548603 -0.001,0.115362 -0.002,0.236137 0.055,0.340436 0.0352,0.08306 0.112,0.137263 0.15,0.218569 0.0518,0.110822 0.13221,0.208769 0.19541,0.312955 0.03,0.04926 0.0664,0.103723 0.078,0.159904 0.012,0.05764 0.02,0.114243 0.0376,0.170924 0.0634,0.194044 0.18341,0.363792 0.24969,0.555891 0.0602,0.174584 0.063,0.372189 0.1688,0.529277 0.0634,0.09424 0.16301,0.161723 0.27215,0.191544 0.119,0.03252 0.26214,0.0201 0.38367,0.0098 0.004,-0.03148 0.0298,-0.05694 0.0584,-0.07064 0.0288,-0.0138 0.061,-0.0176 0.0926,-0.02086 0.26029,-0.027 0.52385,-0.02758 0.7831,0.008 0.0614,0.0084 0.1258,0.02034 0.1728,0.06068 0.0338,0.02898 0.0548,0.06958 0.0764,0.108542 0.0648,0.117463 0.14501,0.224062 0.21739,0.336338 0.0434,0.068 0.1026,0.124323 0.1452,0.193045 l 0.24289,0 c -7.6e-4,-0.0012 -0.001,-0.0024 -0.002,-0.0038 0.0842,0.011 0.1656,0.03622 0.2498,0.0477 0.27125,0.03578 0.54666,0.02168 0.81682,-0.0146 0.0872,-0.016 0.11861,-0.108202 0.10561,-0.186684 -0.0228,-0.0258 -0.058,-0.04574 -0.062,-0.08284 -0.0446,-0.214889 -0.15861,-0.406131 -0.26475,-0.595224 -0.0892,-0.118403 -0.1282,-0.268662 -0.23333,-0.375559 -0.1062,-0.113182 -0.23222,-0.216843 -0.38597,-0.254788 -0.0664,-0.0146 -0.138,-0.0336 -0.20316,-0.005 -0.0878,0.03578 -0.19901,0.0072 -0.27171,0.0798 -0.0906,0.09432 -0.095,0.250014 -0.21576,0.320048 -0.053,-0.0206 -0.1046,-0.04336 -0.15761,-0.06244 0.012,-0.05962 0.0936,-0.122083 0.0312,-0.177804 -0.1776,-0.188425 -0.45101,-0.236786 -0.69929,-0.223345 -0.1196,-0.02928 -0.15041,-0.166104 -0.20233,-0.261065 -0.0718,-0.09584 -0.1292,-0.201002 -0.20338,-0.294897 -0.091,-0.173044 -0.21857,-0.324385 -0.30227,-0.501329 0.0888,-0.02276 0.16921,0.0245 0.24959,0.0542 0.18,0.0631 0.34845,0.155684 0.53321,0.205567 0.1912,0.103442 0.41047,0.124043 0.62275,0.147023 0.20535,0.0206 0.42479,0.04532 0.59502,0.173044 0.30725,0.24719 0.69258,0.360171 1.06272,0.475086 0.23745,0.06786 0.44993,0.196684 0.66742,0.309865 0.141,0.06224 0.29837,0.067 0.44993,0.07198 0.69604,0.105382 1.40925,-0.0154 2.10003,0.137263 0.1448,0.02668 0.28255,0.09042 0.43195,0.09194 0.81358,0.06656 1.63296,0.163724 2.4486,0.07004 0.29032,-0.0112 0.58047,-0.03014 0.86952,-0.05962 0.87752,-0.0144 1.76046,-0.0019 2.62804,0.143324 0.31313,0.07068 0.61844,0.174984 0.9105,0.308785 0.1068,0.05682 0.20255,0.131843 0.30077,0.202743 0.0782,0.05768 0.163,0.107762 0.23418,0.175644 0.17521,0.163924 0.24351,0.411553 0.42911,0.566591 0.11081,0.09086 0.21901,0.185165 0.33459,0.270181 0.10481,0.08284 0.19341,0.183884 0.30119,0.26324 0.0704,0.05204 0.1318,0.114702 0.1878,0.182364 0.29425,0.284055 0.71014,0.365801 1.05101,0.57506 0.1716,0.114062 0.35215,0.224425 0.48161,0.388577 0.0422,0.05984 0.116,0.08348 0.1662,0.135303 0.11361,0.118383 0.24309,0.220085 0.37167,0.321562 0.11521,0.07112 0.20925,0.171944 0.33089,0.233315 0.31355,0.172604 0.69084,0.238736 0.9519,0.49851 0.0696,0.09042 0.16261,0.163284 0.21403,0.267146 0.0708,0.116663 0.1388,0.235056 0.21576,0.34802 0.0746,0.134864 0.19301,0.236784 0.29751,0.347811 0.0398,0.0683 0.1156,0.111022 0.141,0.188424 0.0314,0.09128 0.0822,0.174124 0.13081,0.257176 0.0724,0.119903 0.1156,0.254998 0.1938,0.371881 0.06,0.08652 0.0744,0.195604 0.1372,0.280374 0.0642,0.104303 0.0566,0.239606 0.13581,0.336744 0.0408,0.04814 0.048,0.113183 0.07,0.170864 0.0754,0.209681 0.1814,0.408084 0.24025,0.623845 0.018,0.06158 0.016,0.130323 0.0528,0.185845 0.0812,0.128363 0.0856,0.288182 0.1614,0.419147 0.0384,0.06484 0.065,0.137044 0.1134,0.196245 0.0894,0.113403 0.20319,0.215971 0.24591,0.358429 0.0312,0.153963 0.1078,0.300105 0.2203,0.410469 0.0496,0.0785 0.11801,0.143324 0.16521,0.223782 0.0798,0.113842 0.192,0.199264 0.28882,0.298363 0.0858,0.08002 0.15761,0.175204 0.25023,0.248497 0.05,0.03664 0.1216,0.08218 0.1816,0.0386 0.0898,-0.0631 0.0818,-0.187764 0.14461,-0.270388 0.0384,-0.0965 0.0626,-0.198625 0.093,-0.297943 0.1278,0.04098 0.21467,0.146583 0.31051,0.233959 0.137,0.131404 0.30076,0.229202 0.45819,0.3335 0.1006,0.0112 0.1888,-0.06222 0.23482,-0.145503 0.10861,-0.26584 0.17781,-0.554667 0.15261,-0.843062 -0.01,-0.23462 -0.0618,-0.483761 -0.22183,-0.664388 -0.128,-0.140723 -0.29186,-0.242637 -0.41525,-0.387917 -0.1354,-0.08912 -0.2938,0.08392 -0.43303,0.0013 -0.0908,-0.03578 -0.1162,-0.136823 -0.1256,-0.223777 0.0266,-0.0192 0.0626,-0.03144 0.0764,-0.06418 -0.008,-0.124683 -0.0902,-0.227025 -0.1754,-0.310947 -0.16041,-0.196245 -0.33545,-0.383805 -0.45601,-0.60844 -0.0612,-0.0735 -0.0946,-0.162204 -0.11821,-0.253482 -0.018,-0.07394 -0.0828,-0.119483 -0.1166,-0.183885 -0.157,-0.35583 -0.28059,-0.725323 -0.43107,-1.083973 -0.1056,-0.252402 -0.1128,-0.529743 -0.1616,-0.795581 -0.0226,-0.137043 -0.10081,-0.25674 -0.12601,-0.392903 -0.018,-0.0785 -0.002,-0.164804 -0.0446,-0.236786 -0.0342,-0.07936 -0.1206,-0.109282 -0.1784,-0.166744 -0.16061,-0.118603 -0.33197,-0.222697 -0.50695,-0.318529 -0.15021,-0.101263 -0.29469,-0.211197 -0.43737,-0.32287 -0.0812,-0.06136 -0.14241,-0.144203 -0.21661,-0.213149 -0.0948,-0.08868 -0.1576,-0.203615 -0.2448,-0.298589 -0.11221,-0.129883 -0.17701,-0.293167 -0.29729,-0.41568 -0.1388,-0.234623 -0.25067,-0.487023 -0.31637,-0.751992 -0.0582,-0.232235 -0.0838,-0.476391 -0.0358,-0.712964 0.064,-0.489408 0.20036,-0.967315 0.24049,-1.460223 0.0294,-0.420878 -0.016,-0.875375 -0.26889,-1.227087 -0.0494,-0.09216 -0.073,-0.197104 -0.1408,-0.279294 -0.11381,-0.246544 -0.24525,-0.485504 -0.40071,-0.708415 -0.024,-0.06136 0.001,-0.153724 0.0728,-0.168704 0.09,-0.03122 0.1864,-0.0013 0.27907,-0.0152 0.24068,-0.05854 0.49157,-0.036 0.73485,-0.0086 0.19101,0.02926 0.40917,0.06484 0.53842,0.223122 0.0888,0.162203 0.1934,0.324819 0.21206,0.513478 0.129,0.392903 0.0208,0.815523 0.1272,1.212344 0.02,0.06722 0.0346,0.165884 0.12661,0.160464 0.025,-0.08956 -0.001,-0.186264 0.0392,-0.272566 0.0438,0.04162 0.034,0.107342 0.0506,0.161323 0.0958,0.358877 -0.1138,0.718821 -0.0284,1.078554 0.0852,0.209471 0.1404,0.444948 0.30792,0.608018 0.0256,0.0323 0.0702,0.014 0.10541,0.0156 0.065,0.06504 0.0632,0.164564 0.1134,0.237865 0.0522,0.049 0.1176,0.08544 0.1572,0.147884 0.14201,0.202953 0.17521,0.456015 0.22313,0.693444 0.01,0.07004 0.0568,0.127503 0.0746,0.195605 0.027,0.08002 0.0328,0.171744 0.0916,0.237429 0.12021,0.141164 0.20101,0.319402 0.35517,0.429122 0.1114,0.04402 0.20579,0.127503 0.26695,0.230284 0.1476,0.219649 0.38337,0.35323 0.61385,0.469887 0.24177,0.136823 0.47359,0.294895 0.734,0.395725 0.1702,0.06852 0.35173,0.106043 0.53451,0.118823 0.0632,5.98e-4 0.1142,0.04272 0.17341,0.06006 0.128,0.04034 0.26844,0.04272 0.38769,0.110582 0.0462,0.0284 0.1012,0.02776 0.1542,0.02298 -0.0384,-0.05898 -0.1102,-0.08022 -0.1526,-0.134863 0.24482,0.013 0.46491,0.138783 0.67155,0.26129 0.1012,0.06548 0.19381,0.144203 0.29967,0.202742 0.0478,0.02472 0.0988,0.05248 0.155,0.04574 -0.0332,-0.04424 -0.0708,-0.08414 -0.1048,-0.127063 0.1186,-0.03296 0.20492,0.0824 0.31877,0.08804 0.1162,0.0106 0.22984,0.03816 0.34499,0.0579 0.0526,0.0062 0.1084,0.0196 0.1598,-0.0028 -0.0778,-0.04638 -0.16921,-0.06092 -0.24675,-0.106463 z m -28.2818,-10.056263 c 0.1302,-0.07156 0.28254,-0.08586 0.42761,-0.0644 -0.17181,0.08304 -0.33285,0.185604 -0.4907,0.292296 0.024,-0.07502 0.0512,-0.149623 0.063,-0.227893 z m 2.42921,1.753163 c -0.26886,0.0198 -0.44365,0.24632 -0.63361,0.408744 -0.13161,0.0928 -0.23527,0.222911 -0.38553,0.288619 -0.20341,0.135523 -0.46447,0.118183 -0.69086,0.05984 -0.23158,-0.04922 -0.43995,-0.165884 -0.64183,-0.284276 -0.18061,-0.118403 -0.35713,-0.249156 -0.49591,-0.415892 -0.18981,-0.164364 -0.39551,-0.34781 -0.6594,-0.363203 -0.008,-0.02342 -0.014,-0.0464 -0.0222,-0.06916 0.0234,-0.067 0.0278,-0.156124 0.0966,-0.194085 0.47381,-0.294685 0.94672,-0.591322 1.42008,-0.887089 0.0986,-0.0631 0.20142,-0.119903 0.29336,-0.192984 0.0792,-0.05984 0.18481,-0.06006 0.27409,-0.0245 0.194,0.04206 0.37795,0.120123 0.55445,0.209679 0.1116,0.04446 0.19421,0.135303 0.29513,0.198205 0.1078,0.06592 0.1626,0.186044 0.25824,0.265628 0.0922,0.07156 0.13441,0.183664 0.20515,0.273002 0.0714,0.0863 0.1154,0.191465 0.1514,0.296635 0.0334,0.09498 0.016,0.196885 0.0256,0.295331 0.006,0.04988 -0.016,0.09628 -0.0448,0.135523 z m 7.44702,-3.460127 c -0.0406,0.0219 -0.0902,0.04206 -0.1144,0.08218 -0.002,0.07394 -0.014,0.146583 -0.03,0.218569 -0.10301,-0.0164 -0.18581,-0.0811 -0.27019,-0.137043 -0.0676,-0.04814 -0.1522,-0.05984 -0.22271,-0.102123 -0.1234,-0.07242 -0.26714,-0.0939 -0.39659,-0.150703 -0.1682,-0.08326 -0.36558,-0.02602 -0.53775,-0.0954 -0.008,-0.06634 -0.002,-0.134223 0.0286,-0.194284 0.24025,0.016 0.48399,-0.05854 0.72076,0.0048 0.1248,0.03058 0.2034,0.148743 0.33005,0.176504 0.1816,0.06808 0.37231,0.0034 0.55639,-0.0074 0.0834,0.05682 0.1118,0.161764 0.1252,0.25674 -0.0634,-0.0154 -0.122,-0.06526 -0.1894,-0.05182 z"
   id="path4"
   inkscape:connector-curvature="0"
   style="fill:#000000;fill-opacity:1"
   inkscape:export-xdpi="57"
   inkscape:export-ydpi="57" />
<text
   xml:space="preserve"
   style="font-style:italic;font-variant:normal;font-weight:normal;font-stretch:normal;font-size:2.52779245px;line-height:125%;font-family:'Monotype Corsiva';-inkscape-font-specification:'Monotype Corsiva, Italic';text-align:start;letter-spacing:0px;word-spacing:0px;writing-mode:lr-tb;text-anchor:start;fill:#8b1111;fill-opacity:1;stroke:none;stroke-width:1px;stroke-linecap:butt;stroke-linejoin:miter;stroke-opacity:1"
   x="229.93034"
   y="84.493698"
   id="text4138"
   sodipodi:linespacing="125%"
   inkscape:export-xdpi="57"
   inkscape:export-ydpi="57"><tspan
     sodipodi:role="line"
     id="tspan4146"
     x="229.93034"
     y="84.493698">Reit- und Jagdstall </tspan></text>
<text
   xml:space="preserve"
   style="font-style:normal;font-weight:normal;font-size:40px;line-height:125%;font-family:sans-serif;letter-spacing:0px;word-spacing:0px;fill:#000000;fill-opacity:1;stroke:none;stroke-width:1px;stroke-linecap:butt;stroke-linejoin:miter;stroke-opacity:1"
   x="432.14209"
   y="1371.8508"
   id="text4150"
   sodipodi:linespacing="125%"><tspan
     sodipodi:role="line"
     id="tspan4152"
     x="432.14209"
     y="1371.8508" /></text>
<text
   xml:space="preserve"
   style="font-style:italic;font-variant:normal;font-weight:normal;font-stretch:normal;font-size:180px;line-height:125%;font-family:'Monotype Corsiva';-inkscape-font-specification:'Monotype Corsiva, Italic';text-align:start;letter-spacing:0px;word-spacing:0px;writing-mode:lr-tb;text-anchor:start;fill:#000000;fill-opacity:1;stroke:none;stroke-width:1px;stroke-linecap:butt;stroke-linejoin:miter;stroke-opacity:1"
   x="432.14209"
   y="1425.7103"
   id="text4154"
   sodipodi:linespacing="125%"><tspan
     sodipodi:role="line"
     id="tspan4156"
     x="432.14209"
     y="1425.7103" /></text>
<text
   xml:space="preserve"
   style="font-style:italic;font-variant:normal;font-weight:normal;font-stretch:normal;font-size:180px;line-height:125%;font-family:'Monotype Corsiva';-inkscape-font-specification:'Monotype Corsiva, Italic';text-align:start;letter-spacing:0px;word-spacing:0px;writing-mode:lr-tb;text-anchor:start;fill:#000000;fill-opacity:1;stroke:none;stroke-width:1px;stroke-linecap:butt;stroke-linejoin:miter;stroke-opacity:1"
   x="418.67722"
   y="1479.5697"
   id="text4158"
   sodipodi:linespacing="125%"><tspan
     sodipodi:role="line"
     id="tspan4160"
     x="418.67722"
     y="1479.5697" /></text>
<text
   xml:space="preserve"
   style="font-style:italic;font-variant:normal;font-weight:normal;font-stretch:normal;font-size:2.52779245px;line-height:125%;font-family:'Monotype Corsiva';-inkscape-font-specification:'Monotype Corsiva, Italic';text-align:start;letter-spacing:0px;word-spacing:0px;writing-mode:lr-tb;text-anchor:start;fill:#8b1111;fill-opacity:1;stroke:none;stroke-width:1px;stroke-linecap:butt;stroke-linejoin:miter;stroke-opacity:1"
   x="230.58429"
   y="86.79557"
   id="text4162"
   sodipodi:linespacing="125%"
   inkscape:export-xdpi="57"
   inkscape:export-ydpi="57"><tspan
     sodipodi:role="line"
     id="tspan4164"
     x="230.58429"
     y="86.79557">Rösgen</tspan></text>
</svg>