<?xml version="1.0" encoding="UTF-8" standalone="no"?>
<svg
   xmlns:dc="http://purl.org/dc/elements/1.1/"
   xmlns:cc="http://creativecommons.org/ns#"
   xmlns:rdf="http://www.w3.org/1999/02/22-rdf-syntax-ns#"
   xmlns:svg="http://www.w3.org/2000/svg"
   xmlns="http://www.w3.org/2000/svg"
   xmlns:sodipodi="http://sodipodi.sourceforge.net/DTD/sodipodi-0.dtd"
   xmlns:inkscape="http://www.inkscape.org/namespaces/inkscape"
   enable-background="new 82.0557 -41.1481 2395.9443 1682.2961"
   version="1.1"
   viewBox="82.0557 -41.1481 999.99998 499.99999"
   xml:space="preserve"
   id="svg2"
   inkscape:version="0.91 r13725"
   sodipodi:docname="logo_mitschriftzug_ml.svg"
   width="1000"
   height="500"
   inkscape:export-filename="C:\Users\Lisa Metzler\Documents\IV LK\Projekt\HTML Seiten\logo.png"
   inkscape:export-xdpi="57.599701"
   inkscape:export-ydpi="57.599701"
   style="shape-rendering:crispEdges"><metadata
   id="metadata10"><rdf:RDF><cc:Work
       rdf:about=""><dc:format>image/svg+xml</dc:format><dc:type
         rdf:resource="http://purl.org/dc/dcmitype/StillImage" /><dc:title></dc:title></cc:Work></rdf:RDF></metadata><defs
   id="defs8" /><sodipodi:namedview
   pagecolor="#ffffff"
   bordercolor="#666666"
   borderopacity="1"
   objecttolerance="10"
   gridtolerance="10"
   guidetolerance="10"
   inkscape:pageopacity="1"
   inkscape:pageshadow="2"
   inkscape:window-width="1280"
   inkscape:window-height="790"
   id="namedview6"
   showgrid="false"
   inkscape:zoom="0.45"
   inkscape:cx="570.57778"
   inkscape:cy="51.426209"
   inkscape:window-x="-8"
   inkscape:window-y="-8"
   inkscape:window-maximized="1"
   inkscape:current-layer="svg2" />
<path
   d="m 1061.6203,289.45783 c -4.281,-2.25819 -6.956,-6.43872 -10.0905,-9.95545 -4.941,-5.59322 -12.3757,-8.03696 -17.5791,-13.32144 -2.3084,-2.06903 -4.3735,-4.38897 -6.7592,-6.36547 -2.2196,-1.96864 -3.7675,-4.52422 -5.2962,-7.02546 -2.0961,-3.56673 -3.76,-7.40772 -4.6208,-11.46469 -2.2156,-10.2602 -1.5594,-20.8179 -2.2234,-31.22485 -0.3551,-4.43523 -0.687,-8.94771 -2.1578,-13.17844 -0.5134,-1.55949 -0.5829,-3.21547 -0.9226,-4.80197 -1.9918,-3.40074 -2.76,-7.45397 -5.3194,-10.5267 -0.9418,-1.07312 -1.297,-2.52449 -2.3392,-3.50899 -1.8644,-1.99566 -3.6477,-4.05322 -5.45447,-6.09521 -2.8295,-3.22699 -6.6202,-5.35798 -10.3027,-7.45396 -2.7677,-1.602 -5.8867,-2.40878 -8.8435,-3.55524 -2.0265,-1.0268 -3.9797,-2.19257 -6.0139,-3.19998 -7.952,-4.19223 -16.4634,-7.53122 -25.4124,-8.76646 -5.7787,-1.90304 -12.0129,-1.17347 -17.8262,-2.91449 -3.3467,0.23933 -6.7976,-0.61379 -10.0556,0.45938 -2.679,0.78745 -5.5392,0.5018 -8.257,0.0849 -7.5967,-1.44754 -14.2786,-5.54323 -21.4161,-8.27622 -8.0176,-2.96073 -16.3825,-4.83672 -24.6664,-6.90969 -4.5163,-0.59448 -8.9943,-1.5904 -13.57252,-1.63672 -9.69264,-0.44008 -19.57086,1.03832 -29.11982,-1.16968 0.0888,-2.19639 0.28952,-4.65919 -1.35104,-6.39239 -2.21952,-2.09992 -5.60872,-1.32408 -8.15648,-2.71752 -1.00744,-0.55976 -1.2468,-1.93392 -0.88008,-2.9492 0.68704,-1.64064 2.31216,-2.6828 2.92968,-4.358 0.25488,-0.84152 -0.0152,-1.68688 -0.30488,-2.47056 -9.48448,-1.70232 -19.10768,0.9612 -28.61984,-0.34352 -4.89072,-0.67552 -9.67344,-2.19256 -13.99695,-4.582 -1.59808,-0.91864 -3.35072,-1.67528 -4.61672,-3.0572 -1.11944,-1.18896 -2.97624,-1.68688 -3.74048,-3.165278 0.772,-2.46664 3.04952,-4.12272 4.21152,-6.40392 0.66384,-1.57112 2.09992,-2.60176 2.88744,-4.09952 1.01912,-1.86056 2.48983,-3.41624 3.54351,-5.25368 1.46304,-2.381756 3.24248,-4.624475 4.13048,-7.311195 0.7604,-2.4628 1.6328,-4.894799 2.262,-7.395999 0.884,-3.40848 1.1388,-7.156719 -0.33584,-10.441678 0.60992,-1.68688 2.13856,-2.72152 3.75976,-3.30824 2.6712,-1.0732 5.22272,-2.59024 7.17216,-4.736479 1.6676,-1.87992 2.48984,-4.73248 1.26232,-7.060239 -4.142,-0.50568 -8.38048,1.999599 -12.39896,0.15824 0.59832,-1.16184 1.53248,-2.07672 2.36624,-3.06496 1.29704,-1.44368 1.55568,-3.454719 1.90312,-5.284479 0.166,-1.63672 -0.18528,-3.616959 -1.54792,-4.659199 -1.20824,-0.0776 -1.79888,1.2004 -2.77152,1.70232 -5.76696,3.740479 -12.93919,4.504719 -19.64815,4.053199 -1.87992,-0.49416 -3.8332,-0.58288 -5.72072,-1.0384 -6.33448,-1.4128 -12.48368,-3.829199 -19.01888,-4.188239 -1.44368,0.0616 -2.68272,-0.77584 -3.9992,-1.23136 -3.62848,-1.36648 -7.29176,-2.648 -10.7892,-4.334959 -6.58152,-2.35472 -14.43696,-0.32816 -20.31215,-4.76352 -1.35112,-0.57904 -1.5672,-2.362399 -2.96072,-2.860479 -3.65176,-1.54024 -7.6932,-2.82176 -11.67696,-1.9648 -1.38968,0.2084 -2.648,0.86848 -3.99152,1.2352 -1.5556,0.235439 -2.92992,-0.718 -4.31568,-1.25456 -1.29312,-0.64464 -2.76784,-0.4864 -4.1536,-0.70256 -0.386,-1.3896 -0.66784,-2.85648 -1.55176,-4.04144 -2.23504,-3.4277588 -3.07648,-7.9324778 -6.62016,-10.37999778 -2.94152,-2.30448002 -6.87104,-2.26968002 -10.41848,-2.22336002 -0.42464,-0.718 -0.6524,-1.70624 -1.5132,-2.026639 -1.22752,-0.48248 -2.62872,-0.53656 -3.91024,-0.27016 -1.20432,0.30496 -1.64824,1.555599 -2.092,2.570959 -1.43984,0.6408 -3.08048,0.59832 -4.48544,1.31632002 -2.99928,1.33176 -4.95248,4.16895898 -6.41176,6.99071898 -1.77183,4.1611988 -0.0152,8.8976788 -1.70615,13.0819178 -0.59064,1.5788 -2.0536,2.52448 -3.11528,3.752 -1.2468,1.38192 -2.702,2.674959 -3.40848,4.439199 -0.40528,1.9224 1.52864,3.258 3.17704,3.61704 3.12296,0.52496 6.07191,-0.93416 9.05191,-1.60584 1.49,2.26592 0.82216,5.021999 0.7952,7.538958 0.75272,2.35856 3.586,1.12336 5.24968,2.03048 0.41696,0.6292 0.42464,1.41664 0.57904,2.13848 0.73728,0.16984 1.47456,0.3436 2.21192,0.52496 0.0504,0.23544 0.15432,0.7064 0.2084,0.94184 0.70256,0.33968 1.436,0.62144 2.18096,0.88392 0.21232,1.366559 1.50936,2.258239 2.868,1.953279 2.65576,-0.3976 3.63248,-3.296479 5.62824,-4.705519 1.72544,-0.21616 3.75968,0.09272 4.79048,1.66376 -0.37064,0.45936 -0.99984,1.14256 -0.33592,1.655999 1.75248,1.4012 3.40848,2.91448 5.08,4.40448 1.59424,0.22384 2.68672,-1.17352 3.8872,-1.96096 0.56352,1.0152 0.67936,2.3392 1.67152,3.07272 1.33944,1.05384 3.02248,1.505519 4.55504,2.200239 0.0965,0.16992 0.28944,0.5096 0.386,0.67944 -0.79136,1.96096 -0.13128,4.54344 1.7988,5.581679 -0.718,0.8416 -1.30088,1.87224 -0.90328,3.01104 0.68704,1.69464 2.03808,3.19224 1.83736,5.157199 -1.15032,0.54048 -2.43576,0.29336 -3.65552,0.43624 -1.26608,-0.0544 -1.74472,1.86056 -3.08424,1.35104 -1.72552,-0.42464 -3.48176,-0.80296 -5.15728,-1.3704 -0.81832,-0.99976 -0.6292,-2.543679 -1.6212,-3.427679 -2.0768,-0.49408 -4.28872,-0.51336 -6.33448,0.15056 -0.32808,-1.14264 -0.76816,-2.48592 -2.01888,-2.89896 -3.06096,-0.94576 -5.95616,-2.50152 -9.16392,-2.902799 -1.46304,0.0656 -2.79096,0.787439 -4.23848,0.907119 -0.96504,-0.008 -1.72936,-0.77584 -2.69048,-0.77584 -3.22696,-0.0616 -6.55448,-0.671679 -9.70047,0.33968 -0.89552,0.22776 -1.80656,0.97656 -2.74448,0.4748 -2.04584,-1.034559 -2.71376,-3.713519 -4.972,-4.446959 -0.80672,-0.41696 -1.51312,0.24704 -2.22728,0.52496 -2.57848,1.26224 -5.57024,0.89552 -8.21048,0.0424 -0.18528,-0.88784 -0.15824,-1.98032 -0.992,-2.54376 -0.72192,-0.49408 -1.50552,-1.05768 -2.42424,-1.01136 -2.38168,-0.10032 -4.41592,1.34336 -6.67792,1.8104 -1.44752,0.40144 -3.00328,0.10424 -4.32728,-0.5404 -1.3664,-0.59448 -0.8492,-2.590239 -2.13072,-3.277279 -1.32024,-0.60992 -2.82176,-1.18504 -4.28472,-0.78744 -2.35864,0.58672 -4.41224,2.208 -6.898,2.2968 -1.22752,0.008 -2.4744,-0.13512 -3.63248,-0.5636 -1.37032,-0.82992 -1.49776,-2.82176 -2.98776,-3.532 -1.23136,-0.49792 -2.48592,-1.04224 -3.82144,-1.16576 -1.1388,-0.13512 -1.91848,0.8492 -2.85272,1.31632 -3.0148,1.7216 -6.64328,1.57488 -9.99399,1.43208 -0.15824,-1.08464 -0.11192,-2.1848 -0.0965,-3.27344 -2.18872,-0.71416 -4.50872,-0.34744 -6.76296,-0.42464 -2.06136,-0.10424 -2.50152,2.33928 -4.27324,2.84096 -2.38172,0.77976 -4.93323,0.50184 -7.39997,0.62152 -0.28952,-0.81832 -0.50954,-1.66376 -0.9303,-2.42032 -0.87239,-0.8068 -2.12308,-0.82608 -3.21948,-1.0268 -1.74094,0.0696 -3.10348,1.19664 -4.31172,2.33152 -0.68325,0.76432 -0.61378,2.0652 -1.65603,2.52448 -1.89146,0.95344 -4.07623,1.06152 -6.01021,1.926239 -2.1115,-0.941919 -4.18448,0.21616 -6.13772,0.96888 -1.1503,0.49792 -2.48591,0.41304 -3.51649,-0.3204 -4.41222,-2.528479 -9.82395,-2.709759 -14.05493,-5.608719 -1.91464,-1.93008 -4.27323,-4.303999 -7.25321,-3.775199 -0.28178,1.968639 -0.18527,4.099439 0.76045,5.890399 0.81837,1.8104 1.25069,3.798479 2.33153,5.489279 1.3163,1.98792 2.95299,3.74424 4.64748,5.419679 0.26635,0.35128 0.77975,0.59832 0.81835,1.08088 -0.21231,0.7064 -0.95347,1.1812 -1.01907,1.94168 -0.0579,2.690479 -1.7834,4.987199 -1.9378,7.666159 -0.16984,1.547919 0.36673,3.099759 0.0154,4.639999 -0.76044,3.848479 -2.28906,7.484959 -3.49723,11.198235 -0.99206,6.17616 -2.54773,12.27136 -3.05348,18.517118 -0.74115,2.38944 -0.93029,4.89848 -1.34719,7.35344 0.28179,4.90248 -3.19225,9.20648 -2.45892,14.1552 1.61355,8.63122 -1.40894,17.32818 -0.0965,25.97988 0.22002,1.71005 0.63693,3.43949 1.59813,4.89848 1.40894,2.28136 3.74047,3.74048 5.43896,5.77472 1.93007,2.17327 3.99148,4.44298 6.83622,5.38873 2.67498,0.83379 5.92547,0.50955 8.00972,-1.50932 1.09626,-0.62147 2.42416,-0.75657 3.51272,-1.43596 2.44734,-1.40126 5.30773,-2.58625 6.76297,-5.15324 0.80677,-1.91464 1.70231,-3.89873 1.66371,-6.01797 0.0888,-1.85669 -1.35106,-3.53198 -0.74501,-5.40797 0.64464,-1.98411 1.86446,-3.73673 3.06498,-5.41572 0.8917,-0.81836 1.20052,-2.22732 2.35471,-2.733 2.14624,-0.48252 4.10724,0.88787 5.87898,1.90312 1.67529,1.66372 3.38923,3.29274 4.97947,5.04148 6.48897,5.94847 13.65716,11.75794 22.38115,13.91968 3.14224,0.94962 6.43872,0.35512 9.65416,0.5906 2.45504,-0.3011 4.84072,-1.18892 6.98296,-2.42419 5.31552,-3.01874 8.114,-9.1717 13.86568,-11.57269 2.12312,1.19279 2.64024,4.13798 5.07224,4.87923 1.20432,0.32807 1.98408,1.37806 2.702,2.32766 1.04992,1.40511 1.68304,3.06873 2.07288,4.77122 -1.71392,1.56335 -3.95672,2.30449 -6.16072,2.86049 -6.0912,1.08079 -12.33688,0.3281 -18.43992,1.26998 -3.19616,1.23912 -5.01816,4.39297 -6.59696,7.24946 -1.7216,2.93748 -1.7988,6.45796 -1.54792,9.7662 -0.0232,2.05358 -0.0312,4.20373 0.98048,6.06047 0.62536,1.47847 1.99568,2.44349 2.67128,3.89098 0.92064,1.97284 2.35256,3.71648 3.48048,5.57122 0.53328,0.87702 1.18088,1.84654 1.38896,2.84648 0.21344,1.02617 0.34112,2.0336 0.67048,3.04274 1.1276,3.45448 3.26624,6.47622 4.44472,9.89595 1.0712,3.10798 1.12248,6.62572 3.00504,9.42221 1.12944,1.67768 2.90248,2.87898 4.84496,3.40997 2.11768,0.57903 4.66648,0.35798 6.83,0.17338 0.0846,-0.56027 0.52968,-1.01377 1.04112,-1.25769 0.51136,-0.24393 1.08632,-0.31268 1.64984,-0.37118 4.63352,-0.48075 9.32568,-0.49089 13.94072,0.1418 1.09248,0.14978 2.23984,0.3622 3.07696,1.08017 0.6012,0.51572 0.97688,1.23862 1.35944,1.93227 1.1532,2.091 2.57944,3.98873 3.86992,5.98748 0.77184,1.21046 1.82792,2.21324 2.58552,3.43648 l 4.32384,0 c -0.012,-0.0226 -0.0264,-0.0437 -0.0384,-0.0666 1.49775,0.19688 2.94919,0.64467 4.44695,0.84924 4.82896,0.6369 9.73144,0.38603 14.5412,-0.25864 1.55176,-0.28565 2.11144,-1.9262 1.87984,-3.32348 -0.40528,-0.4594 -1.03448,-0.81448 -1.104,-1.4746 -0.7952,-3.82548 -2.82176,-7.22997 -4.7132,-10.5962 -1.58648,-2.10767 -2.28136,-4.78272 -4.15352,-6.68571 -1.89144,-2.015 -4.13424,-3.86024 -6.87096,-4.53573 -1.1812,-0.25863 -2.45504,-0.5983 -3.61695,-0.0888 -1.56336,0.63689 -3.54384,0.12737 -4.8368,1.42052 -1.61352,1.67916 -1.6908,4.45072 -3.84096,5.69747 -0.94192,-0.36673 -1.86064,-0.77203 -2.80624,-1.1117 0.20456,-1.06157 1.6676,-2.17326 0.55584,-3.16523 -3.16152,-3.35449 -8.02896,-4.21523 -12.44896,-3.97598 -2.1308,-0.52112 -2.67896,-2.95699 -3.60152,-4.64748 -1.27768,-1.70619 -2.30056,-3.57823 -3.62072,-5.24973 -1.6212,-3.08048 -3.89096,-5.77472 -5.38096,-8.9247 1.5788,-0.40532 3.01104,0.4362 4.44296,0.96505 3.204,1.12332 6.20328,2.77148 9.49224,3.65948 3.40472,1.84131 7.3072,2.20803 11.0864,2.61723 3.65552,0.3667 7.562,0.80677 10.59232,3.08048 5.46967,4.40048 12.32943,6.41173 18.91863,8.45747 4.22696,1.20822 8.00968,3.50123 11.88144,5.51622 2.50928,1.10787 5.31144,1.19279 8.00968,1.28157 12.39096,1.87606 25.08744,-0.27405 37.38487,2.44349 2.57848,0.4748 5.02968,1.60966 7.68944,1.63669 14.48312,1.18509 29.06984,2.91448 43.58976,1.24682 5.16872,-0.20073 10.33368,-0.53655 15.47919,-1.06155 15.62192,-0.25477 31.33984,-0.0347 46.78472,2.55149 5.574,1.25846 11.0092,3.11523 16.20862,5.49698 1.90312,1.01136 3.6056,2.34696 5.35408,3.60923 1.39352,1.02681 2.90296,1.91849 4.16896,3.12673 3.11904,2.91823 4.33504,7.32647 7.63914,10.08645 1.9727,1.61744 3.8988,3.29649 5.9563,4.80973 1.8644,1.4746 3.4432,3.27348 5.3617,4.68623 1.2546,0.92644 2.347,2.04204 3.343,3.24648 5.2382,5.05673 12.6419,6.51197 18.7101,10.2372 3.0532,2.03044 6.269,3.99523 8.5735,6.91747 0.7527,1.06537 2.0652,1.48617 2.9607,2.40873 2.0227,2.10762 4.3273,3.91799 6.6162,5.72447 2.0497,1.26615 3.725,3.06099 5.8905,4.15348 5.5817,3.07275 12.2984,4.24999 16.9459,8.87447 1.2391,1.60966 2.895,2.90672 3.81,4.75572 1.2623,2.07676 2.4705,4.18448 3.841,6.19547 1.3278,2.401 3.4354,4.21522 5.2962,6.19172 0.7102,1.21595 2.0574,1.97639 2.509,3.35448 0.5597,1.62512 1.463,3.09974 2.3277,4.57823 1.2892,2.13466 2.0574,4.53948 3.451,6.62021 1.0693,1.54019 1.324,3.48199 2.4434,4.99123 1.1427,1.85672 1.0076,4.26548 2.4165,5.99472 0.7257,0.857 0.8531,2.01504 1.2468,3.04174 1.3434,3.73273 3.2311,7.26471 4.277,11.10569 0.3089,1.09625 0.2972,2.31997 0.9381,3.30825 1.4475,2.2852 1.5247,5.13024 2.872,7.46168 0.6832,1.15424 1.158,2.43968 2.0188,3.49352 1.5904,2.01888 3.617,3.84472 4.3775,6.38072 0.5557,2.74072 1.9184,5.34248 3.922,7.3072 0.8839,1.39744 2.0999,2.55152 2.9414,3.98376 1.4205,2.02656 3.42,3.54743 5.1418,5.31143 1.5285,1.4244 2.8062,3.11896 4.4545,4.42376 0.8916,0.65232 2.1656,1.46296 3.2347,0.68704 1.5981,-1.1232 1.4552,-3.34272 2.5747,-4.81344 0.6832,-1.71776 1.1156,-3.53599 1.656,-5.30399 2.27367,0.7296 3.82137,2.60952 5.52767,4.16495 2.4397,2.3392 5.354,4.08024 8.1565,5.93696 1.791,0.20072 3.3622,-1.10784 4.1804,-2.59024 1.934,-4.73247 3.1656,-9.87415 2.7178,-15.00815 -0.193,-4.17672 -1.1002,-8.61192 -3.949,-11.82744 -2.2775,-2.5052 -5.1957,-4.31944 -7.3922,-6.90568 -2.4088,-1.58656 -5.2305,1.49384 -7.7087,0.0232 -1.61747,-0.63688 -2.06907,-2.43568 -2.23507,-3.98372 0.4748,-0.34358 1.1156,-0.55974 1.35877,-1.14264 -0.13887,-2.2196 -1.60577,-4.04149 -3.12297,-5.53548 -2.8565,-3.49349 -5.9717,-6.83246 -8.1179,-10.83145 -1.0886,-1.30856 -1.6831,-2.88748 -2.1039,-4.51247 -0.3049,-1.31635 -1.4745,-2.12695 -2.0767,-3.27349 -2.7947,-6.33447 -4.9952,-12.91218 -7.6739,-19.29691 -1.8798,-4.49322 -2.0073,-9.43045 -2.8758,-14.16292 -0.4014,-2.43959 -1.7948,-4.57048 -2.2426,-6.99447 -0.3359,-1.3974 -0.038,-2.93374 -0.7953,-4.21523 -0.6098,-1.41284 -2.1462,-1.94551 -3.1769,-2.96849 -2.8605,-2.11149 -5.91,-3.96448 -9.025,-5.67046 -2.675,-1.8027 -5.246,-3.75974 -7.7859,-5.74772 -1.4476,-1.0924 -2.5363,-2.567 -3.8563,-3.7945 -1.6868,-1.57881 -2.8062,-3.62472 -4.358,-5.31547 -1.9957,-2.31221 -3.15,-5.21897 -5.2922,-7.39996 -2.4704,-4.17672 -4.4622,-8.66996 -5.632,-13.38693 -1.0344,-4.13423 -1.4899,-8.48071 -0.6369,-12.69218 1.1388,-8.71247 3.5667,-17.22018 4.281,-25.99489 0.5249,-7.49245 -0.2819,-15.58341 -4.7865,-21.84463 -0.8801,-1.64057 -1.3009,-3.50899 -2.5052,-4.97198 -2.0266,-4.38898 -4.366,-8.64296 -7.1335,-12.61119 -0.4285,-1.09245 0.023,-2.73674 1.297,-3.00324 1.602,-0.55585 3.3198,-0.0232 4.968,-0.27022 4.2847,-1.04224 8.751,-0.6408 13.0819,-0.15443 3.4008,0.5211 7.284,1.1542 9.5848,3.97199 1.5826,2.88748 3.4432,5.78247 3.7752,9.14095 2.2967,6.99447 0.3705,14.51794 2.2659,21.58215 0.3473,1.19667 0.6176,2.95298 2.2543,2.85648 0.4439,-1.59424 -0.019,-3.31598 0.6986,-4.85222 0.7798,0.74112 0.6061,1.91076 0.8996,2.87198 1.7061,6.38872 -2.0267,12.79644 -0.5058,19.20041 1.517,3.72898 2.4975,7.92096 5.4814,10.82394 0.4556,0.57518 1.2508,0.25095 1.8761,0.2779 1.158,1.15807 1.1234,2.92974 2.0189,4.23448 0.9302,0.8724 2.0922,1.52092 2.7985,2.63274 2.5285,3.61298 3.1189,8.11796 3.9722,12.34469 0.193,1.24681 1.0113,2.26979 1.3278,3.48198 0.4786,1.42438 0.5829,3.05724 1.629,4.22673 2.1385,2.51299 3.5785,5.68597 6.323,7.63921 1.9841,0.7836 3.6633,2.26977 4.752,4.09948 2.6287,3.91023 6.8247,6.28822 10.92787,8.36497 4.304,2.43571 8.4307,5.24972 13.0667,7.04471 3.0303,1.21979 6.2612,1.88759 9.5152,2.11533 1.1233,0.0115 2.0343,0.76043 3.0883,1.06928 2.2773,0.71797 4.7789,0.76042 6.9019,1.96864 0.8222,0.50567 1.8027,0.49409 2.7445,0.40915 -0.6832,-1.04995 -1.961,-1.42823 -2.7175,-2.40099 4.3583,0.2316 8.2762,2.47051 11.9549,4.65148 1.8027,1.16579 3.451,2.56698 5.3347,3.60924 0.8493,0.44007 1.7602,0.93416 2.76,0.81446 -0.5906,-0.78746 -1.2622,-1.49774 -1.8645,-2.26204 2.1115,-0.58675 3.6481,1.4669 5.6746,1.5672 2.0691,0.1892 4.0917,0.67942 6.1414,1.03069 0.9381,0.11195 1.93,0.3474 2.8451,-0.0502 -1.3856,-0.8258 -3.0108,-1.08443 -4.3925,-1.89508 z M 558.14785,110.43621 c 2.31608,-1.27384 5.02968,-1.52864 7.61216,-1.14648 -3.0572,1.4784 -5.9252,3.30424 -8.73544,5.20352 0.42848,-1.3356 0.91104,-2.66352 1.12328,-4.05696 z m 43.24471,31.20984 c -4.78648,0.35125 -7.89792,4.38498 -11.27944,7.27647 -2.34312,1.65215 -4.18816,3.96823 -6.86344,5.13798 -3.62072,2.41256 -8.26848,2.10378 -12.2984,1.06539 -4.12279,-0.87622 -7.83223,-2.95298 -11.42599,-5.06072 -3.21547,-2.1077 -6.3577,-4.43548 -8.82819,-7.40372 -3.37773,-2.92599 -7.04096,-6.19172 -11.7387,-6.46572 -0.13509,-0.41689 -0.26247,-0.82607 -0.39372,-1.23137 0.41687,-1.19279 0.4941,-2.77924 1.72163,-3.45498 8.43445,-5.24597 16.85341,-10.52669 25.27986,-15.79189 1.7564,-1.12336 3.58599,-2.13472 5.22271,-3.43552 1.40896,-1.06544 3.28872,-1.06928 4.87928,-0.43616 3.45472,0.7488 6.72816,2.13848 9.8704,3.73272 1.988,0.79128 3.45872,2.40872 5.25376,3.52824 1.91848,1.17344 2.89496,3.31192 4.59744,4.72872 1.64056,1.27384 2.39328,3.26943 3.65176,4.85991 1.27,1.5364 2.0536,3.40852 2.69448,5.28076 0.5944,1.69075 0.29336,3.50499 0.45552,5.25748 0.10032,0.88784 -0.27408,1.71389 -0.79904,2.41261 z m 132.5719,-61.597194 c -0.72192,0.38984 -1.60584,0.74888 -2.03816,1.46296 -0.0344,1.316316 -0.2432,2.609516 -0.53272,3.891036 -1.8336,-0.29336 -3.30824,-1.44368 -4.80968,-2.4396 -1.2044,-0.857036 -2.70976,-1.065436 -3.96448,-1.818156 -2.19648,-1.28928 -4.75576,-1.67144 -7.06024,-2.68272 -2.99544,-1.482319 -6.50824,-0.463279 -9.5732,-1.698479 -0.1312,-1.18128 -0.0424,-2.38944 0.50952,-3.45872 4.27696,0.2856 8.616,-1.04232 12.8312,0.08488 2.22344,0.54432 3.62072,2.648 5.8752,3.14224 3.23472,1.21208 6.628,0.0616 9.9052,-0.13128 1.48616,1.01144 1.99184,2.879759 2.22728,4.570479 -1.12712,-0.274 -2.1732,-1.16192 -3.36992,-0.92256 z"
   id="path4"
   inkscape:connector-curvature="0"
   style="fill:#000000;fill-opacity:1" />
<text
   xml:space="preserve"
   style="font-style:italic;font-variant:normal;font-weight:normal;font-stretch:normal;font-size:44.99975967px;line-height:125%;font-family:'Monotype Corsiva';-inkscape-font-specification:'Monotype Corsiva, Italic';text-align:start;letter-spacing:0px;word-spacing:0px;writing-mode:lr-tb;text-anchor:start;fill:#8b1111;fill-opacity:1;stroke:none;stroke-width:1px;stroke-linecap:butt;stroke-linejoin:miter;stroke-opacity:1"
   x="562.61597"
   y="297.29239"
   id="text4138"
   sodipodi:linespacing="125%"><tspan
     sodipodi:role="line"
     id="tspan4146"
     x="562.61597"
     y="297.29239">Reit- und Jagdstall </tspan></text>

<text
   xml:space="preserve"
   style="font-style:normal;font-weight:normal;font-size:40px;line-height:125%;font-family:sans-serif;letter-spacing:0px;word-spacing:0px;fill:#000000;fill-opacity:1;stroke:none;stroke-width:1px;stroke-linecap:butt;stroke-linejoin:miter;stroke-opacity:1"
   x="432.14209"
   y="189.55469"
   id="text4150"
   sodipodi:linespacing="125%"><tspan
     sodipodi:role="line"
     id="tspan4152"
     x="432.14209"
     y="189.55469" /></text>

<text
   xml:space="preserve"
   style="font-style:italic;font-variant:normal;font-weight:normal;font-stretch:normal;font-size:180px;line-height:125%;font-family:'Monotype Corsiva';-inkscape-font-specification:'Monotype Corsiva, Italic';text-align:start;letter-spacing:0px;word-spacing:0px;writing-mode:lr-tb;text-anchor:start;fill:#000000;fill-opacity:1;stroke:none;stroke-width:1px;stroke-linecap:butt;stroke-linejoin:miter;stroke-opacity:1"
   x="432.14209"
   y="243.41418"
   id="text4154"
   sodipodi:linespacing="125%"><tspan
     sodipodi:role="line"
     id="tspan4156"
     x="432.14209"
     y="243.41418" /></text>

<text
   xml:space="preserve"
   style="font-style:italic;font-variant:normal;font-weight:normal;font-stretch:normal;font-size:180px;line-height:125%;font-family:'Monotype Corsiva';-inkscape-font-specification:'Monotype Corsiva, Italic';text-align:start;letter-spacing:0px;word-spacing:0px;writing-mode:lr-tb;text-anchor:start;fill:#000000;fill-opacity:1;stroke:none;stroke-width:1px;stroke-linecap:butt;stroke-linejoin:miter;stroke-opacity:1"
   x="418.67722"
   y="297.27356"
   id="text4158"
   sodipodi:linespacing="125%"><tspan
     sodipodi:role="line"
     id="tspan4160"
     x="418.67722"
     y="297.27356" /></text>

<text
   xml:space="preserve"
   style="font-style:italic;font-variant:normal;font-weight:normal;font-stretch:normal;font-size:44.99975967px;line-height:125%;font-family:'Monotype Corsiva';-inkscape-font-specification:'Monotype Corsiva, Italic';text-align:start;letter-spacing:0px;word-spacing:0px;writing-mode:lr-tb;text-anchor:start;fill:#8b1111;fill-opacity:1;stroke:none;stroke-width:1px;stroke-linecap:butt;stroke-linejoin:miter;stroke-opacity:1"
   x="574.25757"
   y="338.27032"
   id="text4162"
   sodipodi:linespacing="125%"><tspan
     sodipodi:role="line"
     id="tspan4164"
     x="574.25757"
     y="338.27032">Rösgen</tspan></text>

</svg>