<?xml version="1.0" encoding="UTF-8" standalone="no"?>
<svg
   xmlns:dc="http://purl.org/dc/elements/1.1/"
   xmlns:cc="http://creativecommons.org/ns#"
   xmlns:rdf="http://www.w3.org/1999/02/22-rdf-syntax-ns#"
   xmlns:svg="http://www.w3.org/2000/svg"
   xmlns="http://www.w3.org/2000/svg"
   xmlns:sodipodi="http://sodipodi.sourceforge.net/DTD/sodipodi-0.dtd"
   xmlns:inkscape="http://www.inkscape.org/namespaces/inkscape"
   enable-background="new 82.0557 -41.1481 2395.9443 1682.2961"
   version="1.1"
   viewBox="82.0557 -41.1481 2381.9443 1682.2961"
   xml:space="preserve"
   id="svg2"
   inkscape:version="0.91 r13725"
   sodipodi:docname="logo_mitschriftzug.svg"
   width="2381.9443"
   height="1682.2961"
   inkscape:export-filename="C:\Users\Lisa Metzler\Documents\IV LK\Projekt\HTML Seiten\logo.png"
   inkscape:export-xdpi="57.599701"
   inkscape:export-ydpi="57.599701"
   shape-rendering="crispEdges"><metadata
   id="metadata10"><rdf:RDF><cc:Work
       rdf:about=""><dc:format>image/svg+xml</dc:format><dc:type
         rdf:resource="http://purl.org/dc/dcmitype/StillImage" /><dc:title></dc:title></cc:Work></rdf:RDF></metadata><defs
   id="defs8" /><sodipodi:namedview
   pagecolor="#ffffff"
   bordercolor="#666666"
   borderopacity="1"
   objecttolerance="10"
   gridtolerance="10"
   guidetolerance="10"
   inkscape:pageopacity="1"
   inkscape:pageshadow="2"
   inkscape:window-width="827"
   inkscape:window-height="698"
   id="namedview6"
   showgrid="false"
   inkscape:zoom="0.14853477"
   inkscape:cx="813.92725"
   inkscape:cy="841.4155"
   inkscape:window-x="0"
   inkscape:window-y="0"
   inkscape:window-maximized="0"
   inkscape:current-layer="svg2" />
<path
   d="m 2401.8,1176.6 c -17.124,-9.0328 -27.824,-25.755 -40.362,-39.822 -19.764,-22.373 -49.503,-32.148 -70.317,-53.286 -9.2336,-8.2762 -17.494,-17.556 -27.037,-25.462 -8.8784,-7.8746 -15.07,-18.097 -21.185,-28.102 -8.3843,-14.267 -15.04,-29.631 -18.483,-45.859 -8.8628,-41.041 -6.2378,-83.272 -8.8936,-124.9 -1.4207,-17.741 -2.7483,-35.791 -8.6313,-52.714 -2.0537,-6.238 -2.3318,-12.862 -3.6904,-19.208 -7.9673,-13.603 -11.04,-29.816 -21.278,-42.107 -3.7671,-4.2925 -5.1877,-10.098 -9.3567,-14.036 -7.4578,-7.9827 -14.591,-16.213 -21.818,-24.381 -11.318,-12.908 -26.481,-21.432 -41.211,-29.816 -11.071,-6.408 -23.547,-9.6351 -35.374,-14.221 -8.1062,-4.1072 -15.919,-8.7703 -24.056,-12.8 -31.808,-16.769 -65.854,-30.125 -101.65,-35.066 -23.115,-7.6122 -48.052,-4.6939 -71.305,-11.658 -13.387,0.9573 -27.191,-2.4552 -40.223,1.8375 -10.716,3.1498 -22.157,2.0072 -33.028,0.3396 -30.387,-5.7902 -57.115,-22.173 -85.665,-33.105 -32.07,-11.843 -65.53,-19.347 -98.666,-27.639 -18.065,-2.3778 -35.977,-6.3616 -54.29,-6.5468 -38.771,-1.7603 -78.284,4.1534 -116.48,-4.6786 0.3552,-8.7858 1.1581,-18.637 -5.4042,-25.57 -8.8783,-8.3997 -22.435,-5.2961 -32.626,-10.87 -4.03,-2.239 -4.9874,-7.7358 -3.5206,-11.797 2.7484,-6.5623 9.2489,-10.731 11.719,-17.432 1.0193,-3.3661 -0.062,-6.7476 -1.2196,-9.8821 -37.938,-6.8094 -76.431,3.8448 -114.48,-1.3742 -19.563,-2.7021 -38.694,-8.7703 -55.988,-18.328 -6.3925,-3.6748 -13.403,-6.7012 -18.467,-12.229 -4.4779,-4.7558 -11.905,-6.7476 -14.962,-12.661 3.088,-9.8666 12.198,-16.491 16.846,-25.616 2.6556,-6.2843 8.3998,-10.407 11.55,-16.398 4.0764,-7.4424 9.9594,-13.665 14.174,-21.015 5.8522,-9.5269 12.97,-18.498 16.522,-29.245 3.0417,-9.851 6.5314,-19.579 9.0482,-29.584 3.5359,-13.634 4.5552,-28.627 -1.3434,-41.767 2.4398,-6.7476 8.5542,-10.886 15.039,-13.233 10.685,-4.2926 20.891,-10.361 28.689,-18.946 6.6704,-7.5196 9.9592,-18.93 5.0492,-28.241 -16.568,-2.0227 -33.522,7.9983 -49.596,0.633 2.3931,-4.6476 6.1298,-8.3071 9.465,-12.26 5.1881,-5.7748 6.2227,-13.819 7.6124,-21.138 0.6639,-6.5468 -0.7411,-14.468 -6.1918,-18.637 -4.833,-0.3088 -7.1953,4.8019 -11.086,6.8093 -23.068,14.962 -51.757,18.019 -78.593,16.213 -7.5198,-1.9765 -15.333,-2.3315 -22.883,-4.1535 -25.338,-5.6512 -49.935,-15.317 -76.076,-16.753 -5.7748,0.247 -10.731,-3.1035 -15.997,-4.9257 -14.514,-5.4658 -29.167,-10.592 -43.157,-17.34 -26.326,-9.4187 -57.748,-1.3125 -81.249,-19.054 -5.4043,-2.3162 -6.2688,-9.4498 -11.843,-11.442 -14.607,-6.1608 -30.773,-11.287 -46.708,-7.8593 -5.5587,0.8338 -10.592,3.4741 -15.966,4.9409 -6.2227,0.9419 -11.72,-2.8719 -17.263,-5.0183 -5.1725,-2.5785 -11.071,-1.9454 -16.614,-2.8101 -1.5441,-5.5586 -2.6714,-11.426 -6.2071,-16.166 -8.9403,-13.711 -12.306,-31.73 -26.481,-41.52 -11.766,-9.218 -27.484,-9.079 -41.674,-8.8937 -1.6985,-2.8719 -2.6095,-6.8248 -6.0527,-8.1064 -4.9102,-1.9302 -10.515,-2.1464 -15.641,-1.0809 -4.8175,1.2199 -6.5932,6.2225 -8.3682,10.284 -5.7593,2.5631 -12.322,2.3933 -17.942,5.2653 -11.997,5.3271 -19.81,16.676 -25.647,27.963 -7.0873,16.645 -0.0618,35.591 -6.8248,52.328 -2.3624,6.3152 -8.2144,10.098 -12.461,15.008 -4.9874,5.5276 -10.808,10.7 -13.634,17.757 -1.6213,7.6894 6.1144,13.032 12.708,14.468 12.492,2.0999 24.288,-3.7366 36.208,-6.4232 5.9601,9.0636 3.2888,20.088 3.1808,30.156 3.0109,9.4342 14.344,4.4933 20.999,8.1218 1.6676,2.5168 1.6984,5.6668 2.3161,8.5541 2.9491,0.6794 5.8983,1.3743 8.8475,2.0999 0.2007,0.9417 0.6176,2.8255 0.8338,3.7673 2.8101,1.3587 5.7439,2.4859 8.7239,3.5358 0.8492,5.466 6.0373,9.0328 11.472,7.813 10.623,-1.5904 14.53,-13.186 22.513,-18.822 6.9019,-0.8647 15.039,0.3706 19.162,6.6549 -1.4824,1.8374 -3.9993,4.5704 -1.3436,6.6241 7.0101,5.6049 13.634,11.658 20.32,17.618 6.3771,0.8955 10.747,-4.694 15.549,-7.8439 2.2542,4.0609 2.7175,9.357 6.6859,12.291 5.3577,4.2154 12.09,6.0219 18.22,8.8011 0.3861,0.6795 1.158,2.0382 1.544,2.7176 -3.1653,7.8439 -0.525,18.174 7.1953,22.327 -2.8719,3.3661 -5.2036,7.4887 -3.6131,12.044 2.7483,6.7785 8.1525,12.769 7.3495,20.629 -4.6012,2.1618 -9.743,1.1735 -14.622,1.7448 -5.0645,-0.2162 -6.9792,7.4424 -12.337,5.4043 -6.9019,-1.6985 -13.927,-3.2118 -20.629,-5.4815 -3.2733,-3.9991 -2.5168,-10.175 -6.485,-13.711 -8.3071,-1.9763 -17.155,-2.0535 -25.338,0.6023 -1.3123,-4.5705 -3.0726,-9.9438 -8.0754,-11.596 -12.244,-3.783 -23.825,-10.006 -36.656,-11.611 -5.8521,0.2624 -11.164,3.1498 -16.954,3.6285 -3.8602,-0.0309 -6.9174,-3.1036 -10.762,-3.1036 -12.908,-0.247 -26.218,-2.6867 -38.802,1.3588 -3.5823,0.911 -7.2262,3.9064 -10.978,1.8992 -8.1835,-4.1381 -10.855,-14.854 -19.888,-17.788 -3.2271,-1.6677 -6.0528,0.9882 -8.9093,2.0999 -10.314,5.0491 -22.281,3.5823 -32.842,0.1698 -0.7411,-3.5514 -0.6331,-7.9211 -3.9682,-10.175 -2.8875,-1.9764 -6.0219,-4.2307 -9.6968,-4.0455 -9.5269,-0.4014 -17.664,5.3734 -26.712,7.2417 -5.7902,1.6058 -12.013,0.4168 -17.309,-2.1618 -5.4659,-2.3778 -3.3969,-10.361 -8.5232,-13.109 -5.2808,-2.4396 -11.287,-4.7403 -17.139,-3.1499 -9.4343,2.3471 -17.649,8.8321 -27.592,9.1873 -4.9102,0.0308 -9.8975,-0.5405 -14.53,-2.2544 -5.4814,-3.3198 -5.991,-11.287 -11.951,-14.128 -4.9256,-1.9919 -9.9438,-4.1691 -15.286,-4.6631 -4.555,-0.5405 -7.674,3.3969 -11.411,5.2652 -12.059,6.8866 -26.573,6.2998 -39.976,5.7285 -0.633,-4.3388 -0.4478,-8.7394 -0.386,-13.094 -8.7549,-2.8565 -18.035,-1.3897 -27.052,-1.6984 -8.2453,-0.417 -10.006,9.357 -17.093,11.364 -9.5269,3.1189 -19.733,2.0073 -29.6,2.4859 -1.1581,-3.2734 -2.0382,-6.6549 -3.7212,-9.6813 -3.4896,-3.2271 -8.4924,-3.3042 -12.878,-4.1072 -6.9638,0.2779 -12.414,4.7866 -17.247,9.3261 -2.733,3.0573 -2.4551,8.2608 -6.6241,10.098 -7.5659,3.8138 -16.305,4.2462 -24.041,7.7049 -8.446,-3.7675 -16.738,0.8646 -24.551,3.8756 -4.6012,1.9918 -9.9437,1.6521 -14.066,-1.2816 -17.649,-10.114 -39.296,-10.839 -56.22,-22.435 -7.6586,-7.7203 -17.093,-17.216 -29.013,-15.101 -1.1271,7.8748 -0.7411,16.398 3.0418,23.562 3.2735,7.2416 5.0028,15.194 9.3262,21.957 5.2652,7.9518 11.812,14.977 18.59,21.679 1.0654,1.4051 3.119,2.3933 3.2734,4.3234 -0.8492,2.8257 -3.8139,4.7249 -4.0763,7.7667 -0.2316,10.762 -7.1336,19.949 -7.7512,30.665 -0.6794,6.1917 1.4669,12.399 0.0617,18.56 -3.0418,15.394 -9.1563,29.94 -13.989,44.793 -3.9683,24.705 -10.191,49.086 -12.214,74.069 -2.9646,9.5578 -3.7212,19.594 -5.3888,29.414 1.1272,19.61 -12.769,36.826 -9.8357,56.621 6.4542,34.525 -5.6358,69.313 -0.386,103.92 0.8801,6.8402 2.5477,13.758 6.3925,19.594 5.6358,9.1255 14.962,14.962 21.756,23.099 7.7203,8.6931 15.966,17.772 27.345,21.555 10.7,3.3352 23.702,2.0382 32.039,-6.0373 4.3851,-2.4859 9.6967,-3.0263 14.051,-5.7439 9.7894,-5.605 21.231,-10.345 27.052,-20.613 3.2271,-7.6586 6.8093,-15.595 6.6549,-24.072 0.3551,-7.4268 -5.4043,-14.128 -2.9801,-21.632 2.5786,-7.9365 7.4579,-14.947 12.26,-21.663 3.5668,-3.2734 4.8021,-8.9093 9.4189,-10.932 8.585,-1.9301 16.429,3.5515 23.516,7.6125 6.7012,6.6549 13.557,13.171 19.918,20.166 25.956,23.794 54.629,47.032 89.525,55.679 12.569,3.7985 25.755,1.4205 38.617,2.3624 9.8202,-1.2044 19.363,-4.7557 27.932,-9.6968 21.262,-12.075 32.456,-36.687 55.463,-46.291 8.4924,4.7712 10.561,16.552 20.289,19.517 4.8174,1.3123 7.9365,5.5123 10.808,9.3107 4.1998,5.6205 6.7321,12.275 8.2917,19.085 -6.8557,6.2534 -15.827,9.218 -24.643,11.442 -24.365,4.3232 -49.348,1.3124 -73.76,5.0799 -12.785,4.9565 -20.073,17.572 -26.388,28.998 -6.8866,11.75 -7.1953,25.832 -6.1917,39.065 -0.0927,8.2144 -0.1236,16.815 3.9219,24.242 2.5014,5.9139 7.9828,9.774 10.685,15.564 3.6827,7.8914 9.4104,14.866 13.922,22.285 2.1331,3.5081 4.7237,7.3862 5.5558,11.386 0.8539,4.1047 1.3647,8.1344 2.6822,12.171 4.5103,13.818 13.065,25.905 17.779,39.584 4.2847,12.432 4.4897,26.503 12.02,37.689 4.518,6.7108 11.61,11.516 19.38,13.64 8.4708,2.3161 18.666,1.4319 27.32,0.6935 0.3383,-2.2411 2.119,-4.0551 4.1646,-5.0308 2.0456,-0.9757 4.3452,-1.2507 6.5995,-1.4847 18.534,-1.923 37.303,-1.9636 55.763,0.5672 4.3702,0.5991 8.9595,1.4488 12.308,4.3207 2.4049,2.0629 3.9075,4.9545 5.4377,7.7291 4.6129,8.364 10.318,15.955 15.48,23.95 3.0872,4.8419 7.3117,8.853 10.342,13.746 l 17.295,0 c -0.0491,-0.0901 -0.1051,-0.1748 -0.1526,-0.2661 5.991,0.7875 11.797,2.5787 17.788,3.397 19.316,2.5476 38.926,1.5441 58.165,-1.0346 6.2072,-1.1426 8.446,-7.7048 7.5196,-13.294 -1.6213,-1.8376 -4.1381,-3.2579 -4.4161,-5.8984 -3.1807,-15.302 -11.287,-28.92 -18.853,-42.385 -6.346,-8.4307 -9.1254,-19.131 -16.614,-26.743 -7.5659,-8.06 -16.537,-15.441 -27.484,-18.143 -4.7249,-1.0345 -9.8203,-2.3932 -14.468,-0.355 -6.2535,2.5476 -14.175,0.5095 -19.347,5.6821 -6.4542,6.7167 -6.7631,17.803 -15.364,22.79 -3.7675,-1.4669 -7.4424,-3.0881 -11.225,-4.4468 0.8184,-4.2463 6.6704,-8.6931 2.2234,-12.661 -12.646,-13.418 -32.116,-16.861 -49.796,-15.904 -8.5234,-2.0845 -10.716,-11.828 -14.406,-18.59 -5.1108,-6.8248 -9.2025,-14.313 -14.483,-20.999 -6.485,-12.322 -15.564,-23.099 -21.524,-35.699 6.3152,-1.6213 12.044,1.7448 17.772,3.8602 12.816,4.4933 24.813,11.086 37.969,14.638 13.619,7.3653 29.229,8.8322 44.346,10.469 14.622,1.4668 30.248,3.2271 42.369,12.322 21.879,17.602 49.318,25.647 75.675,33.83 16.908,4.8329 32.039,14.005 47.526,22.065 10.037,4.4315 21.246,4.7712 32.039,5.1263 49.564,7.5043 100.35,-1.0962 149.54,9.774 10.314,1.8992 20.119,6.4387 30.758,6.5468 57.933,4.7404 116.28,11.658 174.36,4.9873 20.675,-0.8029 41.335,-2.1462 61.917,-4.2462 62.488,-1.0191 125.36,-0.139 187.14,10.206 22.296,5.0339 44.037,12.461 64.835,21.988 7.6123,4.0455 14.422,9.3879 21.416,14.437 5.5741,4.1073 11.612,7.674 16.676,12.507 12.476,11.673 17.34,29.306 30.557,40.346 7.8904,6.4698 15.595,13.186 23.825,19.239 7.458,5.8984 13.773,13.094 21.447,18.745 5.0183,3.7058 9.3879,8.1682 13.372,12.986 20.953,20.227 50.568,26.048 74.841,40.949 12.213,8.1218 25.076,15.981 34.294,27.67 3.0109,4.2615 8.2607,5.9447 11.843,9.635 8.0908,8.4305 17.309,15.672 26.465,22.898 8.1989,5.0646 14.9,12.244 23.562,16.614 22.327,12.291 49.194,17 67.784,35.498 4.9565,6.4387 11.58,11.627 15.24,19.023 5.049,8.3071 9.882,16.738 15.364,24.782 5.3114,9.6041 13.742,16.861 21.185,24.767 2.8409,4.8638 8.2297,7.9056 10.036,13.418 2.2388,6.5005 5.8522,12.399 9.3109,18.313 5.157,8.5387 8.2297,18.158 13.804,26.481 4.2771,6.1608 5.2961,13.928 9.774,19.965 4.5706,7.4269 4.03,17.062 9.666,23.979 2.9027,3.428 3.4122,8.0602 4.9872,12.167 5.3734,14.931 12.924,29.059 17.108,44.423 1.2355,4.385 1.1888,9.2799 3.7522,13.233 5.7902,9.1409 6.0989,20.521 11.488,29.847 2.733,4.6168 4.6323,9.7585 8.0754,13.974 6.3617,8.0756 14.468,15.379 17.51,25.523 2.2231,10.963 7.6738,21.37 15.688,29.229 3.5359,5.5896 8.3997,10.206 11.766,15.935 5.6819,8.1064 13.68,14.19 20.567,21.246 6.1145,5.6976 11.225,12.476 17.818,17.695 3.5667,2.6095 8.6626,5.8519 12.939,2.7483 6.3923,-4.493 5.821,-13.371 10.299,-19.254 2.7329,-6.8711 4.4624,-14.144 6.624,-21.216 9.0947,2.9183 15.286,10.438 22.111,16.66 9.7585,9.3569 21.416,16.321 32.626,23.748 7.1643,0.8029 13.449,-4.4315 16.722,-10.361 7.7358,-18.93 12.662,-39.497 10.871,-60.033 -0.7722,-16.707 -4.4009,-34.448 -15.796,-47.31 -9.1099,-10.021 -20.783,-17.278 -29.569,-27.623 -9.6353,-6.3462 -20.922,5.9755 -30.835,0.092 -6.47,-2.5477 -8.2764,-9.743 -8.9404,-15.935 1.8992,-1.3743 4.4624,-2.239 5.4353,-4.5706 -0.5559,-8.8784 -6.4233,-16.166 -12.492,-22.142 -11.426,-13.974 -23.887,-27.33 -32.472,-43.326 -4.3542,-5.2343 -6.7322,-11.55 -8.4153,-18.05 -1.22,-5.2654 -5.8984,-8.5078 -8.3069,-13.094 -11.179,-25.338 -19.981,-51.649 -30.696,-77.188 -7.5193,-17.973 -8.0291,-37.722 -11.503,-56.652 -1.6057,-9.7584 -7.1796,-18.282 -8.9707,-27.978 -1.3435,-5.5896 -0.1547,-11.735 -3.181,-16.861 -2.4395,-5.6514 -8.585,-7.7821 -12.708,-11.874 -11.442,-8.446 -23.64,-15.858 -36.1,-22.682 -10.7,-7.2108 -20.984,-15.039 -31.144,-22.991 -5.7902,-4.3696 -10.145,-10.268 -15.425,-15.178 -6.7474,-6.3153 -11.225,-14.499 -17.432,-21.262 -7.9829,-9.2489 -12.6,-20.876 -21.169,-29.6 -9.8818,-16.707 -17.849,-34.68 -22.528,-53.548 -4.1379,-16.537 -5.96,-33.923 -2.5477,-50.769 4.5552,-34.85 14.267,-68.881 17.124,-103.98 2.0999,-29.97 -1.1273,-62.334 -19.146,-87.379 -3.5205,-6.5623 -5.2035,-14.036 -10.021,-19.888 -8.1066,-17.556 -17.464,-34.572 -28.534,-50.445 -1.7141,-4.3698 0.092,-10.947 5.188,-12.013 6.408,-2.2234 13.279,-0.0927 19.872,-1.0809 17.139,-4.169 35.004,-2.5632 52.328,-0.6177 13.603,2.0844 29.136,4.6168 38.339,15.888 6.3306,11.55 13.773,23.13 15.101,36.564 9.1871,27.978 1.4823,58.072 9.0638,86.329 1.3895,4.7867 2.4703,11.812 9.0172,11.426 1.7758,-6.377 -0.077,-13.264 2.7948,-19.409 3.1189,2.9645 2.4241,7.6431 3.5978,11.488 6.8248,25.555 -8.1066,51.186 -2.0229,76.802 6.0682,14.916 9.9902,31.684 21.926,43.296 1.8219,2.3007 5.0029,1.0038 7.5043,1.1116 4.6321,4.6323 4.4933,11.719 8.0754,16.938 3.7212,3.4896 8.3688,6.0837 11.194,10.531 10.114,14.452 12.476,32.472 15.889,49.379 0.772,4.9873 4.0452,9.0792 5.3113,13.928 1.9146,5.6975 2.3315,12.229 6.5161,16.907 8.554,10.052 14.314,22.744 25.292,30.557 7.9365,3.1344 14.653,9.0791 19.008,16.398 10.515,15.641 27.299,25.153 43.712,33.46 17.216,9.7429 33.723,20.999 52.267,28.179 12.121,4.8792 25.045,7.5504 38.061,8.4614 4.4932,0.046 8.1375,3.0417 12.353,4.2771 9.1096,2.8719 19.116,3.0417 27.608,7.8746 3.2888,2.0227 7.2107,1.9764 10.978,1.6366 -2.7329,-4.1998 -7.844,-5.7129 -10.87,-9.604 17.433,0.9264 33.105,9.8821 47.82,18.606 7.2107,4.6632 13.804,10.268 21.339,14.437 3.397,1.7603 7.0408,3.7367 11.04,3.2579 -2.3623,-3.1499 -5.0491,-5.991 -7.458,-9.0482 8.446,-2.347 14.592,5.8676 22.698,6.2688 8.2764,0.7568 16.367,2.7177 24.566,4.1228 3.7522,0.4478 7.72,1.3896 11.38,-0.2007 -5.5424,-3.3032 -12.043,-4.3377 -17.57,-7.5803 z M 387.9,460.51 c 9.2644,-5.0954 20.119,-6.1145 30.449,-4.5858 -12.229,5.9136 -23.701,13.217 -34.942,20.814 1.714,-5.3425 3.644,-10.654 4.4932,-16.228 z m 172.98,124.84 c -19.146,1.405 -31.592,17.54 -45.118,29.106 -9.3725,6.6086 -16.753,15.873 -27.454,20.552 -14.483,9.6503 -33.074,8.4152 -49.194,4.2616 -16.491,-3.5049 -31.329,-11.812 -45.704,-20.243 -12.862,-8.4308 -25.431,-17.742 -35.313,-29.615 -13.511,-11.704 -28.164,-24.767 -46.955,-25.863 -0.5404,-1.6676 -1.0499,-3.3043 -1.5749,-4.9255 1.6675,-4.7712 1.9764,-11.117 6.8865,-13.82 33.738,-20.984 67.414,-42.107 101.12,-63.168 7.0255,-4.4933 14.344,-8.5387 20.891,-13.742 5.6359,-4.2617 13.155,-4.2771 19.517,-1.7448 13.819,2.9955 26.913,8.5541 39.482,14.931 7.9519,3.1653 13.835,9.635 21.015,14.113 7.674,4.6939 11.58,13.248 18.39,18.915 6.5623,5.0955 9.5732,13.078 14.607,19.44 5.0801,6.1454 8.2144,13.634 10.778,21.123 2.3778,6.763 1.1735,14.02 1.822,21.03 0.4014,3.5514 -1.0963,6.8556 -3.1961,9.6505 z m 530.29,-246.39 c -2.8876,1.5594 -6.4233,2.9955 -8.1526,5.852 -0.1392,5.2653 -0.973,10.438 -2.1309,15.564 -7.3345,-1.1735 -13.233,-5.7748 -19.239,-9.7585 -4.8175,-3.4279 -10.839,-4.2616 -15.858,-7.2726 -8.7858,-5.1572 -19.023,-6.6858 -28.241,-10.731 -11.982,-5.9292 -26.033,-1.8529 -38.293,-6.7939 -0.525,-4.7249 -0.1699,-9.5578 2.0381,-13.835 17.108,1.1426 34.464,-4.169 51.325,0.3397 8.8938,2.1772 14.483,10.592 23.501,12.569 12.939,4.8483 26.512,0.247 39.621,-0.525 5.9447,4.0455 7.9673,11.519 8.9092,18.282 -4.5086,-1.0963 -8.6929,-4.6477 -13.48,-3.6903 z"
   id="path4"
   inkscape:connector-curvature="0"
   style="fill:#000000;fill-opacity:1" />
<text
   xml:space="preserve"
   style="font-style:italic;font-variant:normal;font-weight:normal;font-stretch:normal;font-size:180px;line-height:125%;font-family:'Monotype Corsiva';-inkscape-font-specification:'Monotype Corsiva, Italic';text-align:start;letter-spacing:0px;word-spacing:0px;writing-mode:lr-tb;text-anchor:start;fill:#8b1111;fill-opacity:1;stroke:none;stroke-width:1px;stroke-linecap:butt;stroke-linejoin:miter;stroke-opacity:1"
   x="405.77292"
   y="1207.9382"
   id="text4138"
   sodipodi:linespacing="125%"><tspan
     sodipodi:role="line"
     id="tspan4146"
     x="405.77292"
     y="1207.9382">Reit- und Jagdstall </tspan></text>
<text
   xml:space="preserve"
   style="font-style:normal;font-weight:normal;font-size:40px;line-height:125%;font-family:sans-serif;letter-spacing:0px;word-spacing:0px;fill:#000000;fill-opacity:1;stroke:none;stroke-width:1px;stroke-linecap:butt;stroke-linejoin:miter;stroke-opacity:1"
   x="432.14209"
   y="1371.8508"
   id="text4150"
   sodipodi:linespacing="125%"><tspan
     sodipodi:role="line"
     id="tspan4152"
     x="432.14209"
     y="1371.8508" /></text>
<text
   xml:space="preserve"
   style="font-style:italic;font-variant:normal;font-weight:normal;font-stretch:normal;font-size:180px;line-height:125%;font-family:'Monotype Corsiva';-inkscape-font-specification:'Monotype Corsiva, Italic';text-align:start;letter-spacing:0px;word-spacing:0px;writing-mode:lr-tb;text-anchor:start;fill:#000000;fill-opacity:1;stroke:none;stroke-width:1px;stroke-linecap:butt;stroke-linejoin:miter;stroke-opacity:1"
   x="432.14209"
   y="1425.7103"
   id="text4154"
   sodipodi:linespacing="125%"><tspan
     sodipodi:role="line"
     id="tspan4156"
     x="432.14209"
     y="1425.7103" /></text>
<text
   xml:space="preserve"
   style="font-style:italic;font-variant:normal;font-weight:normal;font-stretch:normal;font-size:180px;line-height:125%;font-family:'Monotype Corsiva';-inkscape-font-specification:'Monotype Corsiva, Italic';text-align:start;letter-spacing:0px;word-spacing:0px;writing-mode:lr-tb;text-anchor:start;fill:#000000;fill-opacity:1;stroke:none;stroke-width:1px;stroke-linecap:butt;stroke-linejoin:miter;stroke-opacity:1"
   x="418.67722"
   y="1479.5697"
   id="text4158"
   sodipodi:linespacing="125%"><tspan
     sodipodi:role="line"
     id="tspan4160"
     x="418.67722"
     y="1479.5697" /></text>
<text
   xml:space="preserve"
   style="font-style:italic;font-variant:normal;font-weight:normal;font-stretch:normal;font-size:180px;line-height:125%;font-family:'Monotype Corsiva';-inkscape-font-specification:'Monotype Corsiva, Italic';text-align:start;letter-spacing:0px;word-spacing:0px;writing-mode:lr-tb;text-anchor:start;fill:#8b1111;fill-opacity:1;stroke:none;stroke-width:1px;stroke-linecap:butt;stroke-linejoin:miter;stroke-opacity:1;"
   x="452.33939"
   y="1371.8508"
   id="text4162"
   sodipodi:linespacing="125%"><tspan
     sodipodi:role="line"
     id="tspan4164"
     x="452.33939"
     y="1371.8508">Rösgen</tspan></text>
</svg>