<?xml version="1.0" encoding="UTF-8" standalone="no"?>
<svg
   xmlns:dc="http://purl.org/dc/elements/1.1/"
   xmlns:cc="http://creativecommons.org/ns#"
   xmlns:rdf="http://www.w3.org/1999/02/22-rdf-syntax-ns#"
   xmlns:svg="http://www.w3.org/2000/svg"
   xmlns="http://www.w3.org/2000/svg"
   xmlns:sodipodi="http://sodipodi.sourceforge.net/DTD/sodipodi-0.dtd"
   xmlns:inkscape="http://www.inkscape.org/namespaces/inkscape"
   enable-background="new 0 0 2681.895 1620.168"
   version="1.1"
   viewBox="0 0 300 200"
   id="svg7467"
   inkscape:version="0.91 r13725"
   sodipodi:docname="pferd_gallop.svg"
   width="300"
   height="200">
  <metadata
     id="metadata7475">
    <rdf:RDF>
      <cc:Work
         rdf:about="">
        <dc:format>image/svg+xml</dc:format>
        <dc:type
           rdf:resource="http://purl.org/dc/dcmitype/StillImage" />
        <dc:title></dc:title>
      </cc:Work>
    </rdf:RDF>
  </metadata>
  <defs
     id="defs7473" />
  <sodipodi:namedview
     pagecolor="#ffffff"
     bordercolor="#666666"
     borderopacity="1"
     objecttolerance="10"
     gridtolerance="10"
     guidetolerance="10"
     inkscape:pageopacity="0"
     inkscape:pageshadow="2"
     inkscape:window-width="1280"
     inkscape:window-height="790"
     id="namedview7471"
     showgrid="false"
     inkscape:zoom="1.2125733"
     inkscape:cx="192.73096"
     inkscape:cy="118.84065"
     inkscape:window-x="-8"
     inkscape:window-y="-8"
     inkscape:window-maximized="1"
     inkscape:current-layer="svg7467" />
  <path
     d="m 291.47101,139.0937 c 0.4969,-0.15779 1.0386,-0.0389 1.5764,-0.0472 l 0.014,-0.10041 c -1.1298,-0.34253 -2.4781,0.0601 -3.3501,-0.84602 -1.1454,-1.17 -2.6339,-1.91324 -4.0065,-2.7141 l 0.3693,-0.35306 -0.054,-0.0849 c -0.2351,0.0894 -0.4699,0.18179 -0.7174,0.28242 -0.489,-0.17002 -0.8852,-0.32351 -1.2348,-0.47768 0.2456,-0.16855 0.4972,-0.32623 0.7673,-0.47916 l -0.032,-0.0955 c -0.4727,0.064 -2.0354,0.1887 -2.6308,-0.8046 l 0.2619,-0.0423 c 0.7739,0.11908 1.731,-0.17353 2.382,-1.02125 -1.1134,0.25367 -1.8791,0.5705 -2.7769,0.58001 0.09,-0.16515 0.138,-0.24767 0.4147,-0.73838 -0.6546,0.25832 -1.1391,0.47871 -1.6718,0.5627 -0.4306,-0.37343 -0.9112,-0.67929 -1.2383,-1.12879 1.2173,0.14795 2.4457,0.0177 3.6728,-0.0933 0.3061,0.11931 0.6081,0.31072 0.964,0.32329 0.3677,0.87353 3.5226,0.47836 4.7665,-0.86573 l -0.069,-0.0753 c -1.562,1.21742 -4.3421,0.98061 -5.1103,0.44271 1.5768,-0.86471 2.9362,-1.45774 3.6331,-3.09331 -1.3262,0.41815 -1.1743,0.68065 -3.576,-0.0823 -0.2123,-0.0677 -0.4131,-0.13154 -0.4666,-0.33438 0.204,-0.52682 0.5889,-0.74993 1.0435,-1.51151 -0.6263,0.35464 -1.1358,0.64612 -1.7782,0.94009 l -0.016,0.13018 c -0.7962,0.24824 -1.4814,-0.32657 -2.1553,-0.7008 0.059,-0.0172 0.1931,-0.0559 0.2488,-0.0728 1.4153,0.12146 1.6627,-0.0208 2.3695,-0.52331 0.8504,-0.60469 0.8909,-0.55568 1.2678,-0.32351 0.2638,0.16221 0.4389,0.25005 0.6425,0.0368 -0.1863,-0.43841 -0.5294,-0.59406 -0.9061,-0.86029 0.4498,-0.49705 0.423,-1.03756 1.0997,-1.65946 -0.7691,0.14172 -1.1664,0.10788 -1.6289,0.30235 -0.2857,-0.18077 -0.5183,-0.32567 -0.7821,-0.49376 0.4116,-0.31514 0.9916,-0.15848 1.5092,-0.18123 1.1394,0.40309 3.3869,0.63854 6.1103,-0.096 l -0.026,-0.0992 c -1.9463,0.50904 -4.1175,0.33438 -6.2877,-0.50236 0.6706,-0.32193 1.1962,0.25684 2.2264,0.002 -1.2053,-0.40468 -2.0022,-0.7308 -2.9509,-1.0165 0.095,-0.0481 0.2181,-0.11003 0.2858,-0.14433 1.7765,0.48878 5.1887,0.13606 6.1757,-1.74729 l -0.083,-0.0584 c -1.8605,2.03798 -4.5984,1.52407 -7.9456,0.70487 l -0.075,0.0298 c -0.6536,-0.2333 -1.3172,-0.4109 -1.9161,-0.74721 l -0.065,-0.1407 c 1.476,0.29012 5.6803,1.84385 6.6799,-0.44112 l -0.4773,-0.0171 c 0.075,-0.57673 0.4162,-1.07558 0.9006,-1.31397 2.547,0.0469 1.0637,0.31106 3.5428,-0.55625 -0.2494,-0.47769 -0.2358,-0.66638 -0.2338,-0.92119 -0.278,0.29284 -0.3854,0.3997 -0.5336,0.56134 -0.3375,-0.0112 -0.8628,-0.0255 -0.8628,-0.0255 -0.3566,-0.26488 -0.7597,-0.45188 -1.1081,-0.70849 0.7328,-0.0168 1.487,0.0568 2.2203,-0.11275 0.3979,0.30778 0.8013,0.3791 0.933,-0.10583 0.4619,-0.16018 0.504,-0.17376 0.6396,-0.21904 -0.3063,-0.32929 -0.6781,-0.59586 -1.1307,-0.49116 -0.2517,-0.13447 -0.5098,-0.27359 -0.728,-0.45787 1.0266,-0.0624 1.6209,0.0582 2.3777,-0.63741 -1.9781,0.1681 -1.106,0.87761 -4.5494,-0.8218 l 0.073,-0.34435 c 1.0364,0.0101 2.3156,-0.7515 3.0561,-1.3262 0.014,-0.23771 0.026,-0.46908 0.067,-1.12336 -0.4112,0.40796 -0.5789,0.61432 -0.8455,0.84829 -0.3049,0.0507 -0.6075,0.036 -0.9159,0.0141 -0.2052,-0.14534 -0.4417,-0.27438 -0.7214,-0.39211 0.4231,-0.1802 0.8587,-0.35226 1.1315,-0.7386 0.8686,-0.29035 1.5457,-0.81807 1.8797,-1.70269 -1.1654,0.48074 -2.3938,0.87489 -3.675,0.6468 0.3876,-0.33404 0.5461,-0.52444 0.6721,-0.67046 -0.766,-0.0345 -1.2671,0.0695 -1.842,0.009 -0.4648,-0.12191 -0.9245,-0.32928 -1.4176,-0.38135 -0.074,-0.0432 -0.185,-0.10935 -0.2982,-0.17648 2.5712,-0.0359 6.3182,-0.54594 6.9044,-3.00444 l -0.095,-0.0358 c -0.5375,1.01865 -1.2436,1.5398 -2.0843,1.79042 -1.3051,0.38939 -2.6544,0.79158 -4.0019,0.45674 -0.2953,-0.28593 -0.499,-0.48233 -0.7182,-0.69864 0.4371,-0.10573 0.8473,-0.0302 1.0636,-0.55104 -0.9842,-0.0478 -3.5981,-1.16649 -5.2913,-3.66336 0.4088,-0.0316 0.8561,-0.0542 1.4338,-0.0728 l 0.012,-0.10063 c -0.6792,-0.19402 -1.3295,-0.39154 -1.9966,-0.4435 -0.9497,-0.56689 -0.5283,-0.60198 -2.9165,-2.918312 0.6627,-0.22695 1.4626,-0.0113 2.0037,-0.56122 -0.05,-0.45086 -0.4354,-0.22141 -0.688,-0.16323 0.4295,-0.58092 0.8685,-1.19184 1.4386,-1.6684 l 0.053,0.17568 c 0.369,0.0293 0.7369,0.0234 1.0947,-0.13674 0.2606,0.28809 0.6111,0.44724 1.0725,0.68597 -1.3923,-2.22283 0.1756,0.13335 -1.3654,-1.83004 0.6103,-0.21926 1.1852,-0.53089 1.7174,-0.83731 0.7468,0.0814 1.473,0.34106 2.2301,0.43694 l 0.027,-0.098 c -0.5853,-0.25084 -1.1244,-0.40094 -1.6472,-0.45833 -0.056,-0.10335 -0.1458,-0.26997 -0.2044,-0.37909 0.5423,-0.34378 1.1488,-0.73589 1.2687,-1.43239 l -0.097,-0.0291 c -0.2251,0.51889 -0.5138,0.8389 -0.8804,0.9753 0.016,-0.32069 0.042,-0.64114 0.076,-0.95345 l -0.1014,-0.0157 c -0.141,0.69514 -0.3526,1.46635 -1.0399,1.27244 -1.2791,-0.46003 -2.2593,-1.45966 -3.0782,-2.37259 0.5329,-0.29182 1.1441,-0.4607 1.6328,-0.85338 l -0.042,-0.0903 c -0.6913,0.13131 -1.3422,0.44135 -2.0423,0.49681 -0.056,-0.0833 -0.1467,-0.21337 -0.2047,-0.29623 -0.265,-1.74741 -0.7877,-1.90441 0.03,-2.0407 0.9879,-0.16458 1.1085,-0.20613 2.5099,-1.40612 -0.5678,0.0416 -0.7549,-0.50994 -0.2615,-0.47282 0.4967,-0.0309 0.8255,-0.30936 1.1324,-0.61873 -0.9349,0.0678 -1.4144,0.16957 -2.2332,0.26851 -0.087,-0.047 -0.2015,-0.10811 -0.3326,-0.17829 1.3869,-0.2891 2.427,-0.53077 2.427,-2.51895 l -0.1022,-0.005 c -0.1172,1.10581 -1.0387,1.90429 -2.1149,1.83185 -0.1792,-0.12067 -0.3315,-0.27099 -0.4532,-0.44826 0.1961,-0.0402 0.4103,-0.0833 0.5356,-0.10957 0.1255,-0.16131 0.5932,-0.79622 0.7055,-1.01333 l -0.088,-0.0515 c -0.1552,0.2393 -0.6428,1.17871 -1.7857,1.06552 -0.1574,-0.18915 -0.2756,-0.31446 -0.5129,-0.58319 0.7617,-0.0181 1.4999,-0.37796 2.1276,-1.21663 -0.7013,0.23171 -1.0393,0.40592 -1.4941,0.45335 -0.048,-0.1167 -0.081,-0.19334 -0.1435,-0.34785 -0.3782,0.089 -0.6768,0.15621 -1.0343,0.24145 -0.3436,-0.3071 -0.2761,-0.89538 -0.8664,-1.01605 -0.023,0.18949 -0.021,0.16708 -0.046,0.36743 -0.022,-0.0203 -0.043,-0.0393 -0.059,-0.0548 -0.043,-0.17014 -0.1113,-0.32114 -0.2073,-0.45596 0.1148,0.0275 0.1954,0.0219 0.3096,0.002 0.1543,-0.39041 -0.1259,-0.70679 -0.1649,-1.08023 0.5522,0.55478 1.3782,0.77166 2.052,0.94643 0.4288,0.35091 0.967,0.30824 1.6522,0.4229 -0.1257,-0.18847 -0.1926,-0.29589 -0.5121,-0.64012 0.9771,-0.92402 0.7056,-0.5842 0.7544,-2.01647 l -0.101,-0.0139 c -0.3976,1.62074 -0.2155,1.07367 -1.7835,1.72217 -2.9935,-1.46691 -2.3688,-1.67711 -2.4857,-3.04724 0.6639,0.1244 1.0812,0.44384 1.6018,-0.11546 -0.1946,0.0243 -0.467,0.0609 -0.9264,0.0899 0.1853,-0.44599 0.4599,-0.85474 0.6973,-1.24799 l -0.073,-0.069 c -0.4709,0.31774 -0.9885,0.60753 -1.5846,0.60628 -0.6063,-2.2269 -0.362,-1.13479 -1.3624,-2.89555 l 0.2329,-0.0891 c 0.9299,1.08216 2.2466,1.62006 3.0903,0.44962 -0.6382,0.10255 -1.6056,0.22865 -2.1379,-0.45199 0.6975,0.15009 0.9585,0.23805 1.5891,0.15858 -0.2781,-0.19707 -0.4995,-0.3543 -1.2282,-0.65495 0.086,-0.15961 0.1517,-0.27982 0.2144,-0.39302 -0.8362,-0.21258 -1.8626,-0.43795 -2.2845,-1.19716 1.0242,-0.0875 1.9496,-0.53394 2.8007,-1.11713 l 0.09,-0.67034 c -0.8692,0.94586 -2.077,1.23225 -3.2721,1.11317 -0.3854,-0.76578 -0.898,-1.55419 -1.6107,-2.47628 0.4183,-0.55477 0.86,-1.12698 1.185,-1.76473 l -0.088,-0.0516 c -0.3388,0.50983 -0.8446,0.92311 -1.1231,1.48875 -0.249,-0.14387 -0.4979,-0.29816 -0.6464,-0.54243 1.451,-1.32327 2.852,-1.89649 1.5015,-3.83678 l -0.092,0.0419 c 0.2186,0.85848 0.6781,1.49 -1.1222,2.733 -0.3604,0.24881 -0.7859,0.52863 -0.9115,0.14399 0.6922,-0.70997 0.8865,-1.3373 0.8981,-2.03923 -0.1132,0.11309 -0.2301,0.22843 -0.3839,0.39653 -0.025,-0.17149 -0.059,-0.41305 -0.083,-0.585 -0.6122,0.67386 -0.8414,1.33798 -1.4909,1.68798 -0.1767,0.004 -0.33,-0.0397 -0.4537,-0.13346 0.6354,-0.97212 1.2971,-1.56765 1.3348,-2.79243 -0.483,0.51946 -0.6535,0.89414 -1.0546,1.14487 0.067,-0.25549 0.1445,-0.51097 0.2197,-0.75921 l -0.088,-0.0482 c -0.3666,0.42765 -0.7345,0.8827 -1.2924,0.97224 0.3132,-0.66152 0.8365,-0.99205 0.7644,-1.882 -0.1132,0.1132 -0.2674,0.26545 -0.4493,0.46965 l -0.5431,-0.13798 -0.2152,0.2651 c -0.2221,-0.57662 0.066,-1.06664 -0.086,-1.86899 -0.3093,0.43411 -0.3443,0.71349 -0.5993,0.91939 -0.2645,0.1012 -0.5542,0.12338 -0.8363,0.15644 0.03,-0.24202 0.059,-0.41124 0.083,-0.5618 -0.3409,0.20036 -0.6692,0.38306 -1.0761,0.5292 0.2162,-0.23217 0.4287,-0.42392 0.7226,-0.70862 -0.3953,-0.47689 -0.7912,-0.0395 -1.1565,0.15768 -1.3076,-1.5441 -0.8724,-0.23997 -2.0824,-1.1821 -0.2836,-0.22096 -0.459,-0.47667 -2.437,-0.66073 -0.1521,0.55647 0.014,0.0891 -0.5969,1.38427 l -0.399,-0.15768 c -0.3055,0.18021 -0.5931,0.35397 -0.9045,0.54968 l -0.1035,-0.54798 c -0.4559,0.50282 0.1063,-0.1175 -0.3004,0.33189 -0.266,-0.0719 -0.5302,-0.14387 -0.7886,-0.21756 -0.6613,-0.68461 -0.4289,-0.77517 -1.6832,-0.44452 0.4304,-0.29352 0.5476,-0.45675 0.6844,-0.68586 -0.9372,-0.10844 -1.4065,0.46671 -2.1103,1.00994 -0.6069,-0.28593 -1.2926,-0.2779 -1.9513,-0.38181 -0.296,0.17964 -0.5126,0.37388 -0.7887,0.60288 -2.2292,-1.27696 -3.2548,0.95844 -5.4203,0.72571 0.024,0.15542 0.046,0.3045 0.059,0.40139 -0.1273,0.0899 -0.2608,0.18825 -0.4167,0.30756 -0.5276,-0.15927 -0.7405,-0.20942 -0.944,-0.25843 l 0.1084,0.26907 -0.2189,0.4212 c -0.4025,0.13097 -0.7788,0.0455 -1.1523,-0.14342 -0.4882,0.16413 -0.7284,0.69581 -1.2001,0.66469 -0.5866,-0.0421 -1.0988,0.39663 -1.6474,0.27948 -0.1797,-0.40083 -0.19,-0.91904 -0.5516,-1.24086 l -0.082,0.0557 c 0.036,0.0993 0.1025,0.29024 0.1459,0.41238 -0.179,0.31072 -0.3382,0.63333 -0.4737,0.96024 -0.1462,-0.10154 -0.2755,-0.19277 -0.5599,-0.39302 0.036,0.17297 0.066,0.3225 0.1453,0.65394 -0.2474,0.1484 -0.4942,0.2968 -0.7381,0.44689 -0.096,-0.0555 -0.2137,-0.12372 -0.3094,-0.17658 l -0.732,0.36121 c 0.1948,0.14104 0.6056,0.26997 0.682,0.33891 -0.3031,0.0851 -0.5759,-0.006 -1.0033,0.0201 l 0.067,0.2041 c -0.4821,0.19186 -0.9626,0.39335 -1.449,0.549 l -0.053,0.0425 c -0.5457,-0.0825 -1.1038,-0.073 -1.6435,-0.0632 -2.787,0.0504 -2.1003,-0.45482 -3.3864,-0.62224 -0.026,-0.03 -0.093,-0.10583 -0.112,-0.12847 l -0.4138,-0.19957 c -1.2777,-1.0577 -3.0985,-1.1289 -4.3189,-2.23052 -1.8291,-1.79304 -2.7551,-2.99167 -4.9461,-4.26184 -0.2803,-0.16278 -0.4441,-0.26635 -0.5476,-0.5155 -0.4514,-0.0779 -3.3769,-1.83649 -3.5864,-1.97402 -0.9748,-0.43252 -3.296,-1.22286 -4.3244,-1.954783 -0.3142,-0.22368 -0.6391,-0.45483 -1.0546,-0.50656 -0.6388,-0.52692 -1.448,-0.7952 -2.0517,-1.35054 -0.3284,-0.2985 -0.7254,-0.49331 -1.1093,-0.68166 -1.5584,-0.76464 -1.0804,-1.0062 -2.445,-1.4874 -0.57,-0.56236 -3.2155,-1.11339 -3.8281,-0.99522 -0.3774,-0.10187 -0.7623,-0.12757 -1.1477,-0.17987 -0.4504,-0.30687 -1.005,-0.39007 -1.4539,-0.49829 0,0 -1.005,-0.0522 -1.382,-0.0643 -0.7892,-1.4171 -17.1696,0.58137 -17.2828,0.5936 -1.5144,0.0961 -3.0495,-0.14025 -4.5663,0.095 -1.169,0.4032 -2.4492,0.31514 -3.6334,0.64397 -1.3163,-0.29012 -2.3268,0.15418 -4.3184,0.25379 -0.8276,0.079 -1.7324,0.019 -2.5179,0.37819 -1.5596,0.19299 -9.4856,0.0245 -10.6573,0.8201 -2.791,0.20896 -5.6066,0.15259 -8.4901,0.0697 l -0.1473,-0.19119 c -0.7535,-0.2153 -1.5464,-0.38758 -2.2787,-0.70917 0.555,-0.023 0.7992,-0.0162 1.0611,-0.008 -0.7296,-1.04332 -1.837,-0.66842 -3.068,-0.2548 l 0,0.002 c -0.052,0.0159 -0.2158,0.0782 -0.2662,0.0974 -0.8277,-0.44531 -1.9077,-0.52851 -2.9628,-0.22843 -0.3022,0.0515 -0.5244,-0.21587 -0.8199,-0.36359 -1.1179,0.17965 -0.774,-0.0115 -1.5762,-0.11885 -0.2208,-0.0295 -0.4307,-0.0576 -0.5998,-0.1827 0.5265,-0.26205 1.1418,-0.37841 1.62,-0.75773 1.2634,-0.10165 1.8704,1.10615 3.4465,0.81931 -1.5004,-0.54515 -2.63,-1.64814 -3.9878,-0.95945 -0.6944,0.14331 -1.258,0.70408 -1.9657,0.68868 -0.2475,-0.0646 -0.4819,-0.18711 -0.7156,-0.29453 0.081,-0.25492 0.1578,-0.48573 0.288,-0.88055 0.7355,-0.1012 1.18,-0.84116 1.8697,-0.9667 0.6118,-0.0899 1.2054,-0.32272 1.8157,-0.35973 0.775,0.37513 1.5843,0.96012 2.4793,0.52738 l -0.02,-0.0974 c -0.7053,-0.0367 -1.3217,-0.3997 -1.9207,-0.74823 4.503,-2.334326 4.519,0.90885 6.1783,-0.74653 -2.0952,0.35691 -1.886,-1.639636 -5.5848,-0.092 -0.6846,0.2865 -1.3908,0.58308 -2.154,0.56893 1.1387,-0.71982 2.4028,-1.62448 3.3291,-2.881176 l -0.075,-0.0694 c -1.6045,1.369436 -3.3419,2.754846 -5.3869,3.338936 -0.1244,0.002 -0.3473,0.003 -0.4914,0.005 0.7475,-1.78058 0.5217,-0.24598 2.0421,-1.86457 l -0.06,-0.0813 c -0.4756,0.23036 -0.9057,0.40592 -1.3113,0.53542 0.1583,-0.76622 0.4859,-1.515686 0.4559,-2.324586 l -0.099,-0.0153 c -0.2709,0.76452 -0.3918,1.935526 -1.266,2.178336 -0.1357,-0.52682 0.3378,-0.940316 0.6338,-1.693636 -0.1595,0.10097 -0.3035,0.18519 -0.3035,0.18519 -0.306,0.55341 -0.5857,1.147236 -1.0934,1.511726 -0.7298,-0.31898 -1.2123,0.5327 -1.7673,0.83166 -0.3185,-0.14829 -0.6788,-0.16754 -0.9233,-0.39053 0.5738,-0.47837 1.2276,-0.91429 1.6662,-1.551016 l -0.079,-0.0651 c -0.9482,0.962386 -2.1768,1.573986 -3.2833,2.328556 -0.2454,0.0192 -0.4899,0.081 -0.7376,0.14511 0.3547,-0.25537 0.711,-0.50315 1.1439,-0.80596 l 0.053,0.0507 c 1.6248,-1.19558 2.8107,-1.843286 3.5387,-3.549716 -1.0199,0.78864 -1.3641,1.45412 -2.1724,2.06028 -0.2182,-0.30121 -0.024,-0.61307 0.089,-1.14826 -0.2873,0.18666 -0.6903,0.44622 -1.112,0.87116 l 0.02,0.0641 c -2.5854,2.173136 -0.4432,0.862656 -3.372,2.245466 1.7166,-1.02194 3.6682,-3.695846 4.1757,-4.980626 0.1341,-0.59371 0.6712,-0.2085 2.4805,-1.29428 l -0.042,-0.0928 c -0.6327,0.1999 -1.2609,0.45946 -1.9224,0.5284 0.1648,-0.6408 0.326,-1.39073 0.3177,-2.15356 l -0.1025,0 c 0,0.778 -0.2208,1.53777 -0.4319,2.27287 -0.3659,0.13515 -0.6739,0.007 -1.0254,-0.42641 l -0.08,0.0637 c 0.128,0.16572 0.2562,0.33143 0.3858,0.49874 -0.441,0.27518 -0.8938,0.56145 -1.2888,0.91292 -0.1901,0.0525 -0.3502,0.14512 -0.5323,0.16074 0.3722,-0.67895 0.072,-1.31149 0.4778,-2.21185 -1.0994,0.62337 -0.6751,1.22524 -2.1658,1.82167 0.2281,-0.90535 0.8073,-1.71017 0.8853,-2.67573 l -0.1007,-0.0171 c -0.2575,0.98152 -1.2111,2.95803 -2.2203,2.88525 0.4997,-0.79339 1.1045,-1.5389 1.4963,-2.40825 l -0.088,-0.0516 c -0.4858,0.65721 -0.935,1.37703 -1.5567,1.91754 -0.2055,-0.17399 -0.3101,-0.27337 -0.4233,-0.38102 -0.097,0.21983 -0.2133,0.45629 -0.1763,0.68982 -0.4781,0.0146 -1.1346,0.24993 -1.3627,-0.23194 0.094,-0.0125 0.1483,-0.0206 0.2406,-0.0316 0.2579,-0.51686 0.6582,-0.778 1.1683,-1.10559 1.7695,-1.13649 1.7962,-2.61177 3.0268,-3.1499 0.512,-0.22391 0.5871,-0.34344 0.7085,-0.59247 -2.3968,0.0412 -2.0269,2.60385 -4.4854,3.72562 -0.4696,0.13289 -0.9634,0.24552 -1.414,0.46478 -0.01,-0.11852 -0.02,-0.3611 -0.026,-0.46467 0.052,-0.24077 0.1146,-0.51606 0.2114,-0.77811 0.6433,0.33891 1.2957,0.32714 1.9782,0.26635 -0.8868,-0.40241 -1.3844,-0.35668 -1.9712,-0.68608 -0.4424,-0.18451 -1.353,-0.56349 -1.7013,0.1081 -0.2739,-0.1347 -0.528,-0.27642 -0.8154,-0.36822 0.1955,-0.63266 -0.1464,-1.25127 -0.1405,-1.86389 l -0.099,-0.0203 c -0.4295,1.02974 -0.9926,3.11991 -2.0763,2.89125 l -0.1137,-0.37083 c 0.5772,-0.63175 1.0478,-1.291 1.4,-1.96021 l 0.1242,-0.0316 c 0.4293,-1.03212 0.7321,-2.12265 0.3575,-3.18386 l -0.099,0.0247 c 0.1527,1.02533 -0.2999,1.96882 -0.7697,2.75926 l -0.06,-0.008 c 0.554,-4.6081 0.6195,-2.18027 0.096,-5.19004 l -0.1018,0.007 c -0.054,1.26236 0.3355,1.57127 -0.1981,3.30034 -0.127,0.41146 -0.2575,0.83686 -0.2168,1.28432 -1.119,2.08167 -0.9441,2.5245 -2.0091,3.25053 l -0.027,0.0614 c -0.3543,0.0992 -0.7048,0.22526 -1.0349,0.33947 2.0806,-2.08348 2.1524,-3.84255 2.296,-4.85995 0.123,-0.8732 0.2504,-1.77616 -0.09,-2.60974 l -0.098,0.025 c 0.1599,1.43147 -0.4534,2.7673 -0.9251,4.0703 -0.3018,0.23398 -0.5573,0.38215 -0.8159,0.47123 0.016,-0.1416 0.037,-0.34117 0.049,-0.45765 l 0.1251,-0.20715 0,-0.013 c 0.058,-0.68008 0.028,-1.36401 0.046,-2.03629 0.034,-0.97201 0.653,-1.85924 0.5699,-2.86782 -0.029,-0.29012 -0.2598,-0.4761 -0.4073,-0.68121 l -0.086,0.0551 c 0.2782,0.49432 0.1673,1.11735 -0.2535,1.48219 -0.1074,-0.42664 -0.204,-0.84082 -0.3169,-1.25025 l -0.1006,0.0118 c -0.027,0.74211 0.4706,1.4943 0.042,2.14755 -0.053,-0.0282 -0.1059,-0.0569 -0.1574,-0.0841 -0.1202,-0.60073 -0.4017,-0.91044 -0.6007,-1.12823 0.065,1.1194 -0.2118,1.81725 -0.5668,2.93868 -0.3209,0.42721 -0.7317,0.77234 -1.0958,1.05465 0,0 -0.085,-0.0358 -0.1257,-0.0533 0.2034,-0.35872 0.2273,-0.7651 0.2506,-1.15868 0.056,-0.9522 0.5108,-2.00334 0.133,-3.34313 l -0.1002,0.02 c 0.2977,2.48227 -0.4958,1.82223 -0.8221,3.51677 -0.3419,0.30167 -0.6439,0.6116 -1.0061,0.90919 0.056,-0.0732 0.073,-0.095 0.13,-0.16945 -0.3327,-0.0243 -0.4231,-0.0297 -0.7032,-0.0495 0.136,-0.4349 0.6201,-1.86536 0.3884,-2.60238 -0.4211,-0.90319 -0.6794,-1.95161 -1.4385,-2.67335 l -0.084,0.054 c 0.093,0.26816 0.4242,1.04185 0.4669,1.12709 0.214,0.50157 0.096,1.104 0.3457,1.61474 -0.2003,0.83075 -0.7809,1.60704 -1.562,2.09401 -0.1622,-0.81297 0.1338,-1.56312 -0.4069,-2.32493 -0.3791,0.80992 -0.724,1.36356 -1.2272,2.21004 0.1254,-1.0062 0.7078,-1.77333 -0.284,-3.61491 -0.028,-0.75581 -0.348,-1.49679 -0.8796,-2.03459 l -0.082,0.0602 c 0.5448,1.01911 0.3962,2.18491 0.2669,3.31653 0,0.001 -6e-4,0.005 -6e-4,0.005 0.02,0.11343 -0.103,1.05409 -0.5037,1.87759 l 0.061,0.0891 -0.2952,0.46795 c -0.7785,-0.29917 -1.7547,-0.45063 -2.1039,-1.25579 0.2016,-0.35895 0.4655,-0.68189 0.7215,-1.02046 l 0.1018,0.11613 c 0.2336,-0.76486 0.5051,-1.08577 0.3547,-1.7817 -0.3675,0.37026 -0.5197,0.58364 -0.8541,1.00858 l -0.1151,-0.0494 c -0.397,-1.18414 -0.5887,-1.32948 -1.0614,-1.65617 0.3652,0.80041 0.5761,1.56426 0.5303,2.6575 -0.3715,0.40264 -0.9227,0.48833 -1.4249,0.52693 0.1522,-0.83018 0.2012,-1.14916 0.2617,-1.56425 -0.3306,0.22775 -0.6559,0.17941 -0.6304,0.49795 -0.5256,0.5808 -1.158997,1.12143 -1.908997,0.84206 0.9942,-0.90342 2.298797,-2.12831 1.761197,-3.64366 l -0.098,0.0291 c 0.1799,0.74811 -0.099,1.51931 -0.711097,1.96508 -0.5739,0.4315 -1.6693,1.4514 -2.555503,1.22987 1.335003,-1.12301 2.258803,-2.48771 2.141303,-4.22889 -0.8537,1.63421 -1.6616,3.47071 -3.454803,3.91817 -0.3449,-0.19232 -0.7664,-0.4632 -1.0587,-0.86561 1.313,-0.6176 1.9597,-2.00051 2.7335,-3.19235 -0.2761,-0.27348 -0.1064,-0.54323 -0.092,-0.88089 l -0.1018,-0.011 c -0.109,0.6194 -0.2646,0.88417 -0.4532,1.10671 l 0.1466,0.29748 c -0.3286,0.86901 -1.9206,1.83887 -3.1999,2.28124 l -0.6201,-0.0373 c 0.019,-0.54866 0.086,-0.93059 0.1786,-1.35496 -0.4733,0.33857 -0.8492,0.66129 -1.3254,0.6708 0.4434,-0.68914 3.7069,-2.78598 2.5145,-5.65527 l -0.099,0.019 c -0.01,0.63695 0.097,1.31454 -0.1661,1.90825 -0.4089,0.95368 -1.6987,2.60657 -2.0314,2.36648 0.8701,-0.89799 0.8763,-1.46646 1.064,-2.21694 l -0.093,-0.0395 c -0.4718,0.75773 -0.01,0.74494 -1.1312,1.90056 -0.3647,0.37536 -0.7406,0.76238 -1.2362,0.91564 1.7613,-1.95319 1.3462,-1.3408 1.5327,-2.83409 0.061,-0.49172 0.062,-0.59631 -0.1973,-1.57455 0.5494,-0.61681 0.9513,-1.21086 1.2267,-1.81499 l -0.082,-0.0587 c -0.4049,0.37784 -0.7571,0.81704 -1.2103,1.13082 l 0.02,-0.55217 c 0.1743,-0.34524 0.1104,-0.78524 -0.3755,-1.11135 -0.065,0.46727 -0.095,0.73271 -0.1433,1.12086 -0.1657,-0.58375 -0.03,-1.20859 -0.6669,-1.50539 -0.065,0.63627 -0.093,1.25806 0.01,1.89784 l -0.3675,0.0387 c -0.05,-0.26137 -0.1005,-0.52263 -0.1489,-0.784 l -0.1012,0.0164 c 0.06,0.43626 0.1357,0.85893 0.2019,1.21765 -0.1351,0.21417 -0.2588,0.43705 -0.3794,0.64613 -0.021,-0.62247 0.034,-0.98934 -0.2397,-1.55124 -0.072,0.11319 -0.1911,0.30144 -0.366,0.57277 -0.059,-0.16425 -0.1153,-0.32861 -0.1717,-0.49455 l -0.1,0.0216 c 0.059,0.59224 -0.01,1.13818 -0.2009,1.62402 -0.79,-0.0827 -1.5907,-0.0115 -2.3963,0.0465 0.018,-0.48006 0.018,-0.81399 0.016,-1.1555 -0.1491,0.14319 -0.3908,0.37343 -0.7669,0.76271 -0.026,-0.19164 -0.065,-0.48459 -0.095,-0.71698 -0.2538,0.0634 -0.4174,0.1604 -0.4269,0.74924 l -0.1218,0.26137 c -0.2943,-0.58839 0.3467,-1.07276 0.3277,-1.9618 -0.2185,0.2753 -0.4117,0.51957 -0.6088,0.76294 -0.1449,-0.79871 -0.55,-1.51388 -0.9321,-2.22973 0.3487,-0.25741 0.6114,-0.61069 0.8704,-0.98152 l -0.077,-0.067 c -0.9463,0.87376 -1.8211,1.62379 -2.9143,1.9378 0.051,-0.32782 0.1028,-1.28127 0.1002,-1.31172 l -0.1022,0 c -0.047,0.61375 -0.6446,0.81581 -0.4237,1.34296 l -0.3277,-0.009 c -0.035,-0.56734 -0.2518,-1.09144 -0.453,-1.53992 l -0.095,0.0378 c 0.158499,0.45426 0.324099,0.89425 0.338799,1.35156 -1.146299,-0.69117 -1.662699,-2.04172 -2.624399,-2.96336 0.6222,-0.0791 1.0249,0.39008 1.7948,0.76951 -0.4265,-0.84399 -1.0022,-1.28466 -1.892,-1.74288 l -0.011,0.004 c -1.0443,-0.0506 -1.8736,-0.78659 -2.838,-1.11724 -2.9596,-1.22025 -4.2784,0.20432 -5.6598,0.50236 -0.6145,-0.18552 -1.1412,-0.664 -1.813,-0.65314 0.9053,-0.44735 1.5064,-0.72162 1.7263,-1.64077 -3.5313,2.21287 -2.4366,0.78535 -4.4856,1.41087 -0.6282,-0.12315 -1.2387,-0.43116 -1.8726,-0.41871 -1.3026,-0.44814 -2.2452,-0.39686 -2.8053,0.14987 -0.3009,-0.50225 0.5121,-0.83493 0.6756,-1.55678 -0.181,0.0869 -0.388,0.1724 -0.733,0.57979 -0.1607,-0.0162 -0.225,-0.0212 -0.4295,-0.0425 -0.3307,0.93545 -0.9462,1.54807 -1.5977,2.30637 -0.7003,-0.0512 -1.361,0.61216 -1.5276,1.27855 -0.1389,-0.089 -0.2629,-0.17229 -0.3754,-0.25232 0.4416,-0.89142 0.7358,-1.38506 1.0964,-2.30659 -0.5723,0.27993 -0.7679,0.5284 -1.2545,1.18901 0.059,-0.28401 0.1186,-0.53361 0.184,-0.79532 -0.4009,-0.0754 -0.486,-0.31332 -0.6297,-0.71019 -0.2113,0.50825 -0.481,1.15007 -1.0571,1.50166 -0.328,-0.8767 0.4707,-1.57693 1.2068,-2.01206 1.4959,-0.77845 3.2554,-0.72434 4.8897,-0.90919 l 0,-0.1021 c -1.9775,-0.14931 -4.0799,0.13244 -6.428,0.86142 -1.8069,0.62303 -1.3161,1.58576 -0.8048,3.11844 -0.1066,-0.0122 -0.2435,-0.0273 -0.3493,-0.0395 l 0.02,-0.0836 c -0.5699,-1.08046 -1.5487,-3.30804 -1.0549,-4.46355 -0.027,-0.0655 -0.093,-0.22073 -0.1541,-0.36958 -2.0813,2.06005 -1.2724,1.76359 -0.9536,5.17883 -1.4907,-0.40887 -1.2371,-0.28627 -2.1455,-1.54275 -0.2037,-0.73226 -0.8088,-1.22308 1.6987,-3.63982 l 0.1232,-0.0883 c 1.4019,-0.13697 1.5251,-0.16142 2.4937,0.18111 0.8433,0.29794 1.7152,0.60606 2.6301,0.62247 l 0.021,-0.0984 c -1.2421,-0.53043 -2.5144,-1.03053 -3.7511,-1.5372 0.3008,-0.15395 0.6112,-0.31321 0.91,-0.48584 l -0.037,-0.0944 c -0.4682,0.10618 -1.3311,-0.0351 -1.5658,0.48402 -0.2035,0.0357 -0.5523,0.0967 -0.7934,0.13867 0.3583,-0.4769 0.9583,-0.67352 1.3046,-1.22422 -0.153,-0.91734 -1.1942,-1.10943 -1.7858,-1.62843 l -0.074,0.0698 c 0.3789,0.49206 0.8329,0.94586 1.35,1.34952 -0.7678,0.8501 -1.5617,1.4591 -2.3597,1.81578 0.1106,-0.61647 0.7217,-0.88984 1.0285,-1.59663 -0.6182,0.0438 -0.8414,0.3483 -1.301,0.78524 -0.465,0.006 -1.025,0.20228 -1.2369,0.73713 -0.5002,0.34321 -0.5318,0.39189 -1.2551,0.80709 0.3006,-1.04061 1.3742,-1.63387 2.1824,-2.31327 l -0.054,-0.086 c -0.7133,0.32193 -1.3199,0.83176 -1.9267,1.32563 -0.4857,0.39347 -0.653,1.01356 -1.0398,1.47936 -0.1115,-0.0269 -0.3146,-0.0746 -0.4169,-0.0998 l 0,0 -0.3827,-0.0722 c 0.4133,-0.51912 0.5615,-0.83981 0.6738,-1.06699 -2.2187,1.09483 -2.1062,0.74936 -2.2305,1.06551 -2.4985,1.46872 -1.9535,2.3924 -3.2847,3.1713 0.06,-0.26669 0.1,-0.4735 0.1465,-0.72343 -0.5602,0.18428 -0.9409,0.37932 -1.3906,0.39381 0.2353,-0.30427 0.4515,-0.62519 0.6982,-0.91916 0.3512,-0.22639 0.603,-0.23273 0.9097,-0.64057 -0.6213,-0.0483 -1.2189,0.0748 -2.0906,1.23961 l -0.024,0.0995 c -2.0713,1.42887 -3.9018,1.22183 -6.642,4.13097 l -0.199,-0.80686 c 0.5817,-0.74109 1.5103,-1.07729 2.2665,-1.60048 0.4758,-0.30585 0.6215,-0.87127 0.8157,-1.35926 l -0.095,-0.0381 c -0.4617,1.13954 -1.7199,1.3322 -2.6883,1.99813 l 0.034,-0.22186 c -0.9127,0.36551 -2.5892,1.56901 -2.17,2.28871 -0.011,0.38917 -0.036,0.79067 -0.074,1.19557 -0.472,-0.40614 -1.1327,-0.76146 -1.2226,-1.38348 0.2755,-0.6863 1.0146,-1.10649 1.2894,-1.82766 0.082,-0.34378 -0.1677,-0.97167 -0.2576,-1.2481 l -0.1,0.0177 c 0.012,0.33053 0.072,0.66582 0.014,0.98899 -0.3622,0.7471 -1.1152,1.2318 -1.4054,2.05553 0.073,1.23372 1.6574,1.46906 1.9043,2.53751 -0.5877,-0.53485 -0.7563,-0.65144 -1.0344,-0.84149 0.059,0.51458 0.2515,0.9419 0.7231,1.28352 -0.323,-0.0607 -6.3032,-5.03156 -7.0719,-5.71843 -0.7128,0.96443 -0.4168,0.76271 0.073,3.9425 -0.068,0.88225 0.2654,1.81397 0.9169,2.55846 0.3198,0.66197 0.5144,1.21912 -0.1098,1.48683 0.2933,0.43671 0.5681,0.72864 0.7338,1.11441 -0.047,0.31672 -0.143,0.62835 -0.2266,0.93953 -0.115,-0.02 -0.5754,-0.10131 -0.6926,-0.11059 0.022,0.0932 0.056,0.24405 0.078,0.33562 -0.088,0.0196 -0.2104,0.0458 -0.2895,0.0619 -0.5719,-0.40468 -1.0912,-0.81671 -1.6208,-1.25229 l -0.043,0.46479 c -0.4243,-0.24009 -0.7958,-0.48505 -1.12,-0.69933 0.1518,0.38374 0.3138,0.79339 1.0515,1.48434 -0.2383,0.0556 -0.4797,0.11965 -0.722,0.1441 -0.5355,-0.29352 -0.7113,-0.53678 -1.3871,-0.55127 1.5787,1.46657 1.2,0.88588 2.4968,1.00881 0.4998,0.28536 0.9805,0.62042 1.5323,0.87851 -0.522,0.181 -1.0873,-0.0218 -1.6205,-0.0892 -1.1496,-0.19911 -2.3245,-0.19571 -3.476,-0.34298 -1.0427,-0.0985 -1.6372,-0.4864 -2.904,-0.39687 0.5075,0.25096 0.8589,0.41351 1.9764,0.71891 -0.7792,0.82554 -1.0445,1.20373 -1.8925,1.72862 0.6225,0.0146 1.0522,-0.0327 1.89,-1.17792 0.6901,0.33766 1.4226,0.76509 2.2926,1.33832 -0.8239,0.11093 -1.6403,0.20013 -2.4538,0.32215 l -0.01,0.0992 c 0.7392,0.25243 1.5186,-0.0797 2.2455,0.15055 -0.1496,0.0959 -0.3083,0.19459 -0.4822,0.29974 -0.7755,0.008 -1.549,0.13731 -2.3098,0.0267 -0.9153,-0.12633 -1.5316,-0.09 -2.2323,0.0242 1.1729,0.56779 2.06,0.38125 3.2157,0.51086 -0.043,0.008 -0.084,0.0152 -0.1228,0.022 l 9e-4,-0.002 c -0.7995,0.15134 -1.4512,0.0492 -2.0094,0.44599 -0.5705,-0.21756 -1.1127,-0.0908 -1.5533,0.0195 4.6826,1.51524 4.7293,0.0571 6.4161,0.0954 -0.4999,0.5687 -1.2928,0.81332 -1.741,1.46804 -1.092,0.71902 -2.4907,0.82079 -3.6237,1.51853 l 0.033,0.0945 c 0.8801,-0.11297 1.6814,-0.37072 2.6115,-0.58025 -0.5871,0.96262 -1.3236,1.8348 -1.6748,2.90722 -0.7953,1.80332 -1.2851,2.20313 -1.3772,3.31426 -0.4015,0.13187 -0.7283,0.26069 -1.0259,0.40411 l 0.035,0.0958 c 3.4313,-0.91473 3.632,-1.97911 4.4498,-3.30192 0.052,0.10267 0.1202,0.23692 0.1636,0.3234 -0.8594,1.65051 -2.0773,2.87936 -3.6025,3.905596 1.4115,-0.10822 1.8658,-1.014236 2.846,-1.744456 -0.3939,1.540816 -1.4241,2.474226 -2.2825,5.196036 l -0.095,0.0119 c -0.1567,0.36336 -0.2602,0.63933 -0.4237,1.08034 -0.7689,2.07375 -0.5953,1.22909 -1.508,3.28122 -1.1386,2.559133 -1.4765,1.98296 -1.9526,3.394863 -0.3536,0.923 -0.709,1.82732 -1.0514999,2.7459 -0.7529,0.434 -0.5249,0.87603 -1.7368,2.80353 -1.7782,2.82742 -1.3847,3.3102 -2.6742,4.16585 -0.9925,0.65801 -0.7248,1.32405 -1.1102,2.37247 l 0,4.7e-4 c -0.2487,0.66559 -0.3721,1.442 -0.3666,2.30875 -0.6417,1.21063 0.6209,2.54509 1.7766,3.35456 2.9182,2.04398 0.9484,3.69607 4.2856,4.21157 0.7871999,0.91847 2.2126999,1.78929 3.6696999,1.25229 0.406,0.17319 0.9164,0.41429 1.317,0.0727 1.0359,-0.7386 2.4792,-0.2033 3.583,-0.89425 3.1091,-2.22498 0.833,-3.50127 5.208,-7.44807 1.307,-0.0513 1.5125,-0.26533 6.2349,-3.60167 0.8273,-0.0272 1.486,-0.62484 2.0463,-1.10808 -0.1325,-0.002 -0.15,-0.002 -0.2434,-0.005 1.0677,-0.3217 2.042,-0.93284 3.1005,-1.57489 0.9858,-0.12542 0.8208,-0.72219 3.0685,-1.10536 0.2995,-0.0512 0.6093,-0.10391 0.9101,-0.17783 l 0,-0.0999 c -0.1056,-0.0223 -0.2034,-0.0519 -0.3344,-0.0857 1.7476,-0.37819 5.0002,-3.76208 6.5646,-4.55864 8.6921,-1.57094 3.0144,-0.92934 9.4776,-1.14147 0.3308,0.77879 0.4485,1.2627 1.1087,1.74277 -0.036,-0.28537 -0.055,-0.43524 -0.1444,-1.02262 0.2415,0.0275 0.1966,0.0221 0.3031,0.035 0.02,-0.0274 0.1397,-0.18938 0.147,-0.19934 0.3321,0.39698 0.574,0.65337 0.7161,0.80573 l -0.06,-0.67929 c 0.08,-0.0747 0.2101,-0.19639 0.2903,-0.27235 0.7171,0.21134 1.3164,0.72197 2.0651,0.87625 0.5706,0.67125 1.2466,1.26474 1.9006,1.83853 2.2505,1.97426 1.7767,1.74583 3.9518,4.59724 5.4611,7.15931 2.9497,4.64409 6.116,8.72662 l -0.01,0.12282 c 0.3895,0.68721 0.7631,1.28183 1.1045,1.91629 -0.01,1.9704 0.5674,1.48853 0.6792,3.37075 0.094,1.57682 0.4852,1.2078 0,3.8275 -0.4676,2.53989 -0.1968,3.70977 1.2959,8.82849 -0.2004,-0.1047 -0.2971,-0.1561 -0.4105,-0.21598 0.1026,0.5224 0.1721,0.79747 0.2135,1.14193 -0.2063,0.14443 -0.3819,0.23861 -0.6139,0.40829 -0.01,0.89674 0.8811,1.2661 1.1131,2.01444 0.5461,1.32926 1.2712,2.57102 1.8614,3.904582 0.1964,0.2805 0.4899,0.45573 0.7736,0.6253 1.1759,0.70238 1.1067,1.52282 1.9197,1.69941 0.6255,0.75151 1.42,1.48513 1.47,2.50185 -0.816,0.69242 -1.3471,1.62618 -2.157,2.33728 -0.7054,0.23148 -1.0363,0.93499 -1.501,1.424 -0.6424,0.73419 -1.1971,1.20961 -1.425,1.93724 -5.7093,6.87484 -5.7686,6.86692 -7.9741,8.5772 -1.2925,0.6451 -2.1696,1.48422 -2.6095,2.49608 -0.014,-0.0499 -0.044,-0.15496 -0.058,-0.2042 l -0.1002,0.0206 c 0.1055,0.81727 -0.4598,0.93217 -0.4448,2.07318 -0.012,-0.0679 -0.033,-0.17975 -0.044,-0.24518 l -0.1016,0.01 c 0.034,2.69949 -1.576,3.47908 -1.5258,5.31964 l -0.1542,0.0207 c 0.073,1.41166 -0.3478,3.06806 0.7686,4.11524 0.091,0.26476 0.2343,0.50338 0.3885,0.74618 0.1328,1.00949 0.6686,1.9 0.8296,2.91231 0.3545,0.95255 0.2216,1.98557 0.3124,2.99471 0,0.0138 -0.065,6.22012 -0.2293,7.45611 -0.066,1.17633 0.2368,2.3178 0.059,3.50602 0.9892,1.66421 -0.1257,2.11065 1.7687,5.94301 1.6763,3.39045 1.3404,3.54575 2.0937,4.74575 0.019,0.10142 0.071,0.36652 0.097,0.50383 -0.092,0.39336 -0.025,3.42531 0.5994,5.61701 0.2584,0.95639 1.2043,1.44212 1.6706,2.25124 0.9347,1.34885 0.664,2.78927 3.1283,1.63421 1.2971,-0.60786 1.17,-0.70974 1.8597,-1.37193 0.3303,-0.31729 0.6709,-0.64578 0.8004,-1.10887 0.5028,-0.5198 0.9875,-1.00722 1.3896,-1.56176 0.5087,-0.17433 0.7521,-0.67805 0.969,-1.19864 0.7989,-2.55381 -0.105,-3.20458 1.2646,-3.4553 l 0,-0.10131 c -0.1246,-0.0168 -0.3942,-0.0566 -0.5182,-0.075 -0.067,-0.23772 -0.1311,-0.47203 -0.1947,-0.70623 0.4925,-0.35148 0.6264,-0.44509 0.8544,-0.6047 -0.5133,-0.14692 -0.9683,-0.003 -0.9773,-0.42833 0.2019,-0.20873 0.4341,-0.39188 0.6618,-0.57198 l -0.048,-0.089 -0.6859,0.22424 c 0,-0.33563 0,-0.66831 -0.01,-1.00224 0.3137,0.17964 0.6034,0.30541 0.8831,0.38408 l 0.05,-0.086 c -1.6949,-1.66421 -0.7626,-2.70844 -1.9569,-4.69458 -0.074,-1.02069 -0.6411,-1.82664 -1.1901,-2.606 -1.2419,-1.76268 -0.5489,-1.18187 -1.4819,-2.20098 -1.1652,-1.27243 -0.3391,-0.82893 -1.2893,-2.48193 0.4253,-0.88237 -0.286,-1.67496 -0.6877,-2.36195 0.1548,-0.45822 0.3978,-1.50698 -0.3918,-1.98025 0.011,-0.0473 0.026,-0.10844 0.04,-0.16074 0.3394,0.16085 0.5935,0.2333 0.7335,0.27552 -0.5397,-1.67191 -0.4196,-0.4589 -1.3684,-2.22657 -0.1947,-0.36256 -0.3964,-0.73701 -0.6961,-1.03812 -0.054,-0.42969 -0.1336,-1.00608 -0.5949,-1.31386 -0.01,-0.0507 -0.013,-0.11286 -0.02,-0.1698 l -0.083,-0.0969 c -0.056,-1.25489 -0.4284,-2.48533 -0.256,-3.73615 0.2021,-0.57039 0.3442,-1.07774 0.4343,-1.55056 0.6013,-0.80539 0.3804,-1.87543 0.5819,-2.76605 0.1972,-0.4769 0.494,-0.91417 0.685,-1.40726 0.1137,-0.10516 0.2226,-0.22186 0.3354,-0.36007 0.4121,-0.20726 0.6455,-0.58828 0.871,-0.9573 0.8715,-1.42684 1.0905,-0.67454 1.8363,-2.12571 0.1372,-0.26691 0.2791,-0.543 0.465,-0.76871 1.1552,-0.90783 2.8262,-1.33277 3.06,-1.44518 2.657899,-1.70835 8.120799,-5.09585 11.251399,-5.59618 1.4211,-0.2265 1.2803,-0.27801 1.4447,-0.83335 0.3955,-0.33494 0.7912,-0.73464 1.2096,-1.22172 1.6092,-0.29273 3.3258,-0.10709 4.836404,0.5241 0.3417,0.27404 0.5328,0.70962 0.9118,0.98718 0.018,0.0715 0.042,0.16436 0.06,0.23816 -0.2974,0.82407 -0.1425,1.69794 -0.2257,2.53797 -0.01,0.76453 -0.8416,1.28941 -0.6203,2.14291 -0.1156,0.19696 -0.1965,0.42154 -0.2401,0.66922 -1.311004,2.21015 -1.789404,4.9024 -2.987104,8.64545 -1.5869,3.81131 -0.6187,4.49377 -2.4041,8.38907 -1.7515,3.82184 -2.0305,3.81018 -1.6932,7.83848 0.01,0.0314 0.6,1.39175 0.697,1.67213 0.2478,0.18814 0.5301,0.28582 0.6718,0.52671 0.063,0.28412 0.081,0.48764 0.1665,1.0251 0.1663,-0.29669 0.1416,-0.24983 0.2479,-0.43694 0.1132,0.0145 0.2609,0.0346 0.394,0.0516 0.201,0.4092 0.3986,0.7043 0.6353,0.94643 -0.04,0.0649 -0.1139,0.18779 -0.1846,0.30721 0.1224,0.11671 0.1857,0.17172 0.292,0.2642 l 0.027,-0.32385 c 0.3783,0.2891 0.7615,0.64137 1.2726,0.73159 0.6734,0.60073 1.9924,1.22681 2.156,1.28319 0.640504,0.59767 1.563604,0.63627 2.327804,0.94043 1.659197,0.65031 3.125997,1.7525 4.793397,2.40711 2.3155,0.9899 4.1735,2.81609 6.4407,3.93084 l -1e-4,0 c 0.8828,0.68676 1.6849,0.76702 2.558,1.79371 0.2326,0.27359 0.4733,0.55601 0.8123,0.72762 0.2747,0.42879 0.726,0.71687 1.213,0.77426 0.1169,0.0783 0.2976,0.19741 0.4108,0.27235 l -0.01,0.001 c 0.026,0.0163 0.108,0.0671 0.1314,0.0826 l 0,0 c 0.7108,0.42822 1.5689,0.0783 2.2212,0.61352 0.4723,-0.064 0.9463,-0.14093 1.415,-0.22741 0.1528,0.0202 0.4409,0.0599 0.5984,0.0826 0.1834,0.17964 2.0189,0.81886 2.7613,0.9333 0.9348,0.16176 1.6545,0.82339 2.4974,1.25897 0.1139,0.76147 1.0385,0.87919 1.5984,1.18821 0.5954,0.1784 0.6948,0.9693 1.3322,1.17294 0.1244,0.17862 0.3227,0.27258 0.5066,0.36189 0.3836,0.63922 0.2622,0.33483 3.0677,0.14376 1.5159,0.72264 2.0869,0.91666 2.7955,1.00586 0.6221,-4.3937 -0.269,-9.02874 -0.7234,-10.01728 -0.5515,-1.20044 0.1148,-1.87487 -0.3423,-3.41546 l -0.1223,0 c -1.269,-1.38801 -3.6813,-1.6152 -5.4875,-1.21335 l -0.2585,-0.0606 c 1.1083,-0.47157 2.4521,-0.56417 3.9037,-0.0894 -0.3782,-1.34828 -3.0736,-0.71891 -4.4022,-0.29431 -0.357,-0.65043 -1.0096,-1.10457 -1.7967,-1.25071 -0.7998,-0.74732 -1.1514,-1.1658 -3.5138,-0.56994 -0.6327,0.19164 -1.2935,-0.0355 -1.9389,-0.10991 0.1241,-0.34378 0.1801,-0.49071 0.2506,-0.67363 -0.5242,-0.0808 -1.1122,-0.0515 -1.1139,0.48108 -0.7562,-0.0234 -1.4937,0.0935 -2.2301,0.0464 0.2497,-0.12972 0.4527,-0.2308 0.6394,-0.3243 -0.2294,-0.0744 -0.4868,-0.16799 -1.1239,-0.18282 0,0 0.1277,-0.0294 0.5361,-0.1227 -0.6691,-0.42426 -1.2253,-0.26228 -2.038,0.0537 -0.7018,-0.12293 -1.3003,-0.31276 -1.8289,-0.57933 -0.2578,-0.802 -1.9679,-1.10593 -3.0844,-1.4831 -0.6631,-0.2454 -1.3789,-0.0574 -2.0308,-0.25174 -0.3251,-0.0864 -0.7114,-0.17036 -1.1142,-0.1415 -1.4052,-0.51006 -3.5945,-1.91697 -4.5211,-2.739 l -0.058,-0.0259 c -1.1264,-1.89581 -1.5506,-2.79459 -0.839,-5.23645 0.1673,-0.19956 0.3652,-0.36913 0.4879,-0.61714 1.1159,-0.7651 1.7003,-2.06493 2.5376,-3.09603 0.4275,-0.11116 0.6971,-0.50429 0.6626,-0.9676 0.7399,-0.905 1.7271,-1.62425 2.3276,-2.65501 0.7235,-1.26428 1.3888,-2.22 2.0906,-3.0049 0.7596,-0.71404 1.1284,-1.71673 1.7601,-2.51103 0.4164,-0.50847 0.4133,-1.17848 0.55,-1.76732 0.253,-0.45347 0.6195,-0.84003 0.8509,-1.33028 1.3479,-1.02228 1.7116,-2.78304 2.8779,-3.92892 0.751,-0.75321 1.4974,-1.52623 2.2455,-2.26811 0.7133,-0.7094 2.0232,-0.91712 2.2927,-2.05609 0.4608,-0.56496 1.1936,-0.80313 1.7387,-1.26644 0.79,-0.10188 1.1672,-0.94485 1.6757,-1.44551 l 0.3339,-0.0754 c 0.8189,0.29963 1.6415,0.63525 2.5291,0.71415 0.6129,-0.12904 1.0503,-0.60356 1.6491,-0.6116 2.1501,-0.0523 8.8623,0.51935 9.6879,0.73374 0.6295,0.16346 1.2351,0.31559 1.8487,0.0718 1.2812,0.26872 2.5648,-0.0557 3.8433,0.0763 1.4596,0.066 2.9982,0.11806 4.5139,-0.0124 0.8253,-0.0949 1.7054,0.19764 2.5294,-0.11693 0.2856,-6.8e-4 0.5948,-0.037 0.9206,-0.10799 0.7241,0.10029 1.4081,-0.17364 2.1019,-0.24258 5.2469,-0.21666 2.8989,-0.35057 8.599,-1.496 l 0,-0.10097 c -0.087,-0.0145 -0.2207,-0.0361 -0.3523,-0.0569 7.4989,-1.4446 11.7588,-4.53814 14.4347,-3.94805 0.5912,0.36665 0.192,1.25195 0.1074,2.67958 -0.1409,2.37112 -0.626,2.85559 -0.6002,3.94726 -1.8161,14.01592 0.4069,11.19123 -2.1135,17.36313 -0.7816,0.71811 -3.2199,6.32969 -3.6128,7.31518 -0.8684,2.1806 -1.6138,2.39511 -1.5899,3.40086 0,0.001 -1.9588,0.86708 -1.9588,0.86708 -0.2541,0.11093 -0.5406,0.23748 -0.6451,0.53066 -0.6921,0.72808 -1.225,1.5363 -1.9241,2.40179 -0.1221,1.01526 -0.4705,1.93463 -0.9396,2.84337 -2.5316,2.07115 -3.4818,4.603 -4.6764,5.66048 -0.7653,0.16617 -1.2797,0.76837 -2.0866,0.82769 -0.869,1.09483 -1.3604,0.332 -2.2852,2.17664 -0.3545,0.28673 -0.5835,0.71755 -0.8854,1.08555 -0.3405,2.42127 -1.8982,3.55515 -2.1792,4.11853 -0.3555,0.32792 -0.5567,0.64816 -0.6309,1.00438 -0.7493,0.34627 -0.9958,1.21414 -1.7032,1.57773 -0.1134,0.0903 -0.1271,0.25809 -1.132,0.90749 -0.2903,0.18768 -0.5902,0.38159 -0.8551,0.61998 -1.1425,0.19209 -2.0545,0.93081 -3.0237,1.47652 -0.5889,0.34842 -1.2444,0.61726 -1.7758,1.06835 -0.8465,0.67748 -1.4014,1.63523 -2.13,2.40847 -0.6217,0.66174 -0.8822,1.53154 -1.3766,2.28927 l -0.1636,-0.24676 -0.011,0.139 c -0.2372,0.47078 -0.3118,0.89006 -0.2274,1.28127 0.1431,0.37762 0.7511,0.30563 1.001,0.29589 0.034,0.0414 0.027,0.0343 0.054,0.0546 0.3411,0.0389 0.7356,0.0849 1.1302,0.11705 1.2514,0.83957 2.848,0.71415 4.1084,1.47686 0.2209,0.0737 1.3858,0.007 2.2257,0.45052 1.7212,0.15655 1.8172,0.0478 3.1331,-0.67204 0.464,-0.22696 0.818,-0.60865 1.2122,-0.91496 0.2096,0.28401 0.2719,0.36675 0.3577,0.47995 1.6932,-1.33164 2.0073,-1.67123 1.357,-3.57405 -0.1755,-0.43456 0.3658,-0.18236 0.6565,-0.35612 0.6027,0.37819 1.189,-0.0781 1.7433,-0.3028 l 0,0 c 0.4281,-0.26159 0.6707,-0.41158 0.9646,-0.59937 0.1437,-0.76939 0.9811,-0.5636 1.6583,-0.77935 -0.019,-0.1132 -0.043,-0.25967 -0.076,-0.48675 0.5154,-0.27065 1.0927,-0.49568 1.4988,-0.94903 0.1719,-0.20273 0.4282,-0.58681 0.1726,-0.66423 0.2848,-0.20364 0.5345,-0.45517 0.7506,-0.68099 0.2289,-0.10709 0.3981,-0.29601 0.4758,-0.53112 0.3437,-0.863 1.1161,-1.67507 0.8394,-2.70821 0.1606,-0.163 0.3414,-0.33574 0.5689,-0.54368 0.7994,-0.0979 4.6329,-1.77084 5.2078,-1.92343 l -0.01,0.0231 c 0.035,-0.0169 0.089,-0.0454 0.1228,-0.0538 l 0,-0.008 c 1.0568,-0.53429 0.6314,-2.08213 1.4731,-2.76651 0.1858,0.28876 0.2728,0.66797 0.6643,0.79214 0.3389,-0.11535 0.5928,-0.23386 0.9079,-0.36641 l 0.011,-0.001 c 0.4871,-0.51425 0.2354,0.0714 0.9551,-2.14461 0.9455,-0.36664 2.0811,-2.2363 1.1705,-3.97578 0.5307,-0.17489 0.3358,-0.97926 0.5943,-1.3914 0.9512,-0.15135 1.156,-1.27697 1.9616,-1.60331 0.8086,-0.35781 1.4758,-0.94394 2.1212,-1.51071 0.5253,-0.46128 0.8791,-0.66775 0.884,-1.13955 l 0.1412,-0.1278 c 0.7308,0.0242 1.1841,-0.65585 1.7982,-0.89413 1.2411,-0.48437 2.3629,-1.21131 3.5857,-1.76224 2.0223,-1.29858 5.475,-2.52246 5.8514,-3.06285 2.8893,-1.16479 4.7056,-2.38482 6.9397,-3.18274 0.6855,-0.39233 1.5056,-0.48493 2.2325,-0.76577 0.8527,-0.21213 1.6114,-0.67974 2.4772,-0.86402 2.4503,-1.05386 5.9493,-1.74469 7.3208,-2.40281 l 0.019,-0.0805 c 0.6939,-0.4426 1.1679,-1.33402 0.7497,-3.0289 -0.3463,-1.40046 -0.7046,-2.84835 -1.5064,-4.08287 -0.2377,-0.83052 -0.7477,-1.54818 -1.0884,-2.31655 -0.2533,-1.58181 -0.9228,-3.20719 -1.9899,-4.83098 -1.4613,-4.7874 -3.035,-8.00647 4.1891,-13.58012 0.8831,-0.69944 2.0033,-1.03054 2.9257,-1.70542 1.5987,-0.15406 2.0389,-1.34442 5.1594,-2.35277 1.0176,-0.33031 1.9463,-1.96248 3.3445,-2.94061 2.4967,-1.61553 4.3856,-4.343222 6.3077,-5.352022 1.2268,-0.61454 2.2826,-1.96689 2.8972,-3.1473 1.5707,-3.01384 1.5641,-1.65968 2.4156,-4.37004 0.1244,-0.39562 0.2527,-0.80437 0.4195,-1.18505 1.3624,-1.02318 1.5695,-2.94797 1.5683,-4.03363 0.7807,-0.24688 0.832,-3.0727 0.6655,-3.81018 0.381,-1.56855 -0.2783,-2.45737 -0.6037,-3.57586 0.1484,-0.48799 0.2773,-1.11113 0,-1.65073 0.1273,-0.27009 0.2748,-0.58127 0.3972,-0.85497 -0.2099,-0.46954 -0.2853,-0.94745 -0.1297,-1.44461 0,-0.28061 0.2413,-0.65631 0.01,-0.89776 1.1379,-0.32272 1.9352,-0.18858 2.4323,0.41068 l 0.033,0.53383 c 0.7692,1.12471 1.2501,1.80649 1.5564,3.04474 0.039,0.15599 0.083,0.33042 0.2471,0.4134 0.08,1.3116 -0.2167,0.83108 0.1556,3.28234 0.1395,0.91881 0.264,1.75499 0.1348,2.65535 0.046,0.0462 0.2112,0.21009 0.2425,0.24145 -0.1691,0.28107 -0.3047,0.5095 -0.4565,0.78162 0.3711,1.37816 0.105,2.8256 -0.2633,4.19561 0.3994,0.35057 0.4704,0.79826 0.5693,1.36639 l -0.1072,0.3826 -0.122,-0.004 c -0.165,0.82407 -0.2295,1.14158 -0.3423,1.75907 2.4726,4.01483 -0.9916,7.08448 1.5978,15.390122 -0.067,0.78841 0.037,1.52192 0.3008,2.12265 0.07,0.70499 0.2427,1.44223 0.527,2.25317 0.033,0.28333 0.2966,0.36291 0.5039,0.46954 0.032,1.11769 -0.8345,3.51541 -0.8163,6.24151 -1.1001,3.50319 -1.6308,6.56842 2.0167,13.46693 -0.3391,0.55533 0.055,1.09279 0.2218,1.60274 0.72,1.90158 1.6423,6.12379 5.2174,5.34805 0.6428,0.86844 1.3773,1.56822 2.1797,2.07545 1.9308,1.53403 4.2881,3.39769 7.1298,3.16032 0.8153,0.64001 1.1446,1.09427 2.1758,1.37171 -0.7466,-0.78117 -1.3118,-1.03189 -1.8601,-1.62481 0.3811,-0.36767 0.6355,0.18971 0.9192,0.40671 2.7284,2.7922 6.7352,4.62292 7.6478,5.369 l 0.078,-0.0634 c -0.017,-0.0334 -0.087,-0.15882 -0.1073,-0.19504 -1.8249,-1.17973 -9.3175,-6.10296 -9.4436,-8.37831 4.5744,2.29425 2.4177,1.29088 5.2183,3.37426 1.5229,1.07038 2.9291,2.10442 4.1966,3.4398 0.1845,0.007 0.1187,0.006 0.3685,0.0143 -1.442,-2.03108 -3.3842,-3.15217 -5.2836,-4.62689 0.2839,-0.0526 0.49,-0.0924 0.6032,-0.1141 -0.1967,-0.25741 -0.2212,-0.2882 -0.2999,-0.39494 -0.092,0.005 -0.2534,0.0123 -0.3064,0.0153 -0.9013,-0.30348 -1.7375,-0.73985 -2.4865,-1.2987 -0.254,-0.17771 -0.5122,-0.39335 -0.8367,-0.47383 -0.3172,-1.0688 -2.9943,-2.01795 -3.6131,-4.0274 0.7026,0.58635 1.0337,1.16659 1.9866,1.26949 -0.8215,-1.20384 -1.7262,-1.68809 -1.7287,-2.04466 l 0.2122,0.0776 0.06,0.15417 c 1.0553,0.5661 4.352,2.71716 4.8597,3.72845 l 0,0.004 c 0.02,0.0285 0.047,0.0881 0.064,0.12203 l 0.01,-0.0203 c 1.2777,1.83705 2.7049,3.29434 4.2439,4.33076 l 0.066,-0.0779 c -1.1387,-1.19297 -2.4274,-2.54396 -3.5423,-4.02694 0.096,-0.0515 0.2303,-0.12429 0.3183,-0.17252 3.8004,2.42546 2.867,-0.56903 5.1684,4.41963 1.0601,2.2981 2.0713,4.17908 3.8969,6.01421 l 0.075,-0.0695 c -2.1647,-2.52936 -3.2405,-5.7705 -4.8138,-8.65247 3.7782,0.99873 3.4766,3.46379 6.7186,3.94216 1.5808,0.47622 3.2961,-0.0283 4.8345,0.53802 0.4116,0.30099 0.724,0.74415 1.1672,1.0388 l 0.065,-0.0781 c -0.2535,-0.26432 -0.5166,-0.54821 -0.725,-0.87093 1.1299,0.0997 2.2451,0.40173 3.3861,0.46546 l 0.012,-0.10154 c -0.7492,-0.13821 -1.4966,-0.34196 -2.2192,-0.53926 -1.7629,-0.48097 -1.676,-0.30575 -2.1838,-0.98843 -0.6758,-0.90851 -0.9165,-1.01673 -1.2269,-1.49555 0.7675,0.18191 1.5599,0.15112 2.3323,0.2247 l 0.016,-0.1012 c -0.9252,-0.20602 -1.9221,-0.10573 -2.7827,-0.51731 -0.6369,-0.62948 -1.4059,-1.33356 -2.3016,-1.8452 0.5525,-0.13867 1.007,0.15145 1.7687,0.14081 -0.2508,-0.28423 -0.5574,-0.57118 -1.1508,-0.72943 l -0.1627,0.0221 c -2.6341,-1.03699 -2.558,-1.04808 -2.5763,-1.20916 0,0 2.589,0.64103 5.8583,2.15197 0.1314,0.28967 2.8452,2.41096 3.1395,2.60034 l 0.067,-0.0765 c -0.741,-0.86222 -1.5887,-1.64655 -2.3786,-2.42489 1.0815,-0.024 2.2468,0.11716 3.2071,-0.53043 l -0.048,-0.0902 c -1.4122,0.5584 -2.892,0.0494 -4.302,-0.20636 -0.9505,-0.48957 -1.9572,-0.87704 -2.9279,-1.29745 2.9502,0.46829 0.2258,0.16085 2.5462,0.15791 -0.6021,0.0475 -0.7294,0.0135 -1.2167,0.25378 5.9072,1.16479 2.7373,-0.81093 6.2949,0.71314 l 0.055,-0.0844 c -0.3985,-0.37536 -0.7489,-0.87218 -1.2669,-1.11838 0.029,-0.002 0.056,-0.003 0.082,-0.004 l 0,0.006 c 0.077,-0.0104 0.068,-0.009 0.1058,-0.0109 l 0,-0.003 c 0.9375,-0.12418 1.9174,-0.11761 2.8308,-0.34242 0.2016,-0.20817 0.4307,-0.43026 0.6634,-0.6399 0.1952,0.10901 0.3938,0.21802 0.5963,0.32703 l 0.06,-0.0822 c -0.589,-0.56518 -1.4214,-0.8716 -1.8124,-1.59696 0.4234,0.0939 0.7785,0.1802 1.1701,0.24665 l -0.1425,0.0673 c 0.9316,0.39008 1.582,0.39664 2.6301,0.53304 0.8409,0.3834 1.3904,1.19569 2.1842,1.67575 l 0.067,-0.0758 c -0.4496,-0.56337 -1.0366,-1.00133 -1.4479,-1.58429 1.3745,0.0586 2.756,0.29318 4.1392,0.2402 0.7966,0.27371 1.503,0.7531 2.2873,1.09008 l 0.018,0.0873 c 1.0587,0.51368 1.4724,0.46908 1.9485,0.40309 -0.9013,-0.51346 -1.5892,-0.82373 -2.1695,-1.41009 z m -8.5411,-8.21712 c -0.5369,-0.20659 -1.0964,-0.39947 -1.6022,-0.65835 0.029,-0.66491 0.8439,-0.77053 1.3818,-1.07242 0.025,-0.26295 0.04,-0.48335 0.071,-0.74936 0.6555,0.20738 2.0262,0.78377 3.9434,0.46422 -0.9444,1.11804 -2.4498,1.51615 -3.7944,2.01591 z m -14.4755,13.47824 0,0.002 c -0.2237,-0.19979 -0.433,-0.40773 -0.6197,-0.60152 1.7905,0.8055 3.461,1.34715 5.0993,1.65379 l 0.03,-0.0975 c -0.5529,-0.2376 -0.9141,-0.39437 -1.3208,-0.56168 0.6129,-0.40897 1.37,0.0464 2.0523,0.13448 0.6816,0.0953 1.115,0.65325 1.5544,1.17565 -2.3204,-0.15338 -4.9504,0.10516 -6.7203,-1.63307 l 0,-0.002 c -0.048,-0.043 -0.032,-0.0273 -0.075,-0.0704 z m -17.3779,-12.83755 0,-1.2e-4 c -0.1,-0.16685 -0.081,-0.1338 -0.3725,-0.62462 l 0.016,0.0112 c 0.8458,1.03212 1.1248,2.12888 4.4688,5.70089 -2.3897,-1.68277 -2.8029,-2.91468 -4.1127,-5.08737 z m 27.5508,-30.35464 c 1.5156,1.87917 3.2654,2.83715 4.4641,4.52977 -0.6246,-0.0628 -0.4413,-0.0442 -0.6206,-0.0633 -0.2787,-0.19821 -0.5332,-0.39528 -0.8165,-0.59236 -0.7927,-1.6187 -2.5953,-2.46156 -3.3574,-4.08003 0.093,0.0583 0.2369,0.14885 0.3304,0.2059 z m 3.7725,27.09799 c -0.2929,0.35849 -0.5503,0.79792 -1.0266,0.81241 -0.5687,-0.004 -1.144,-0.23579 -1.7342,-0.0744 -0.5893,-0.25945 -1.1723,-0.59021 -1.7776,-1.007 1.3032,-0.0404 0.7523,0.6879 3.7684,-0.0299 0.2385,0.093 0.4894,0.19108 0.77,0.29884 z m -13.999,9.57445 c 0.9694,0.14207 1.8141,0.73317 2.7905,0.91825 -0.1608,0.0145 -0.508,0.046 -0.5981,0.0542 -1.1374,-0.3766 -1.7691,-0.7051 -2.1924,-0.97247 z m 19.712,-0.34898 -0.06,0.0509 0,0.001 c -0.062,0.0547 -0.1354,0.12055 -0.1844,0.16504 -4.9511,-0.0744 -3.0185,0.17138 -5.9219,-0.71585 1.4196,0.25356 1.8402,0.84184 4.7537,-0.36313 0.4861,0.28967 0.9573,0.55749 1.4106,0.86232 z m -11.1228,-50.000932 c -0.1869,-0.0304 -0.3792,-0.0619 -0.5636,-0.0914 -0.1414,-0.43286 -0.2241,-0.88168 -0.2885,-1.30877 0.1516,0.0972 0.2955,0.19107 0.4622,0.29578 0.053,0.0657 0.1504,0.18259 0.1924,0.23454 0.067,0.28537 0.1341,0.59247 0.1975,0.8698 z m -2.3277,50.784252 c -0.4682,0.022 -1.1108,0.0278 -1.3607,-0.44475 0.5023,0.04 1.1104,-0.0195 1.3607,0.44475 z m -1.3449,-11.69994 c 0.2438,0.25016 0.5025,0.53304 0.7285,0.76554 0.1132,0.0206 0.2543,0.0453 0.4956,0.0958 -1.3187,-0.0199 -2.0561,-0.29159 -2.9985,-1.35066 1.1712,0.10086 1.3168,0.23421 1.7744,0.48935 z m -19.2354,-63.377302 c -0.3522,0.0215 -0.7142,0.0435 -1.073,0.0594 0.1147,-0.15587 0.2759,-0.37649 0.3676,-0.50271 0.4396,-0.24474 0.8108,-0.87331 1.3023,-0.59553 -0.1716,0.31242 -0.3625,0.64455 -0.5969,1.03881 z m 22.7546,73.760772 c 0.1505,-0.0562 0.3088,-0.10992 0.4793,-0.16278 0.2299,0.0359 0.4818,0.0779 0.7658,0.12746 0.067,0.0116 0.045,0.008 0.102,0.0178 0.2243,0.0388 0.4591,0.0823 0.6953,0.13799 -0.7621,0.29884 -1.0941,0.0737 -2.0424,-0.12044 z m 7.7363,-1.03529 c 0.2116,-0.19674 0.6133,-0.17534 0.7969,-0.0849 -0.2271,0.18689 -0.5454,0.18315 -0.7969,0.0849 z m -7.419,-4.06 c 0.2307,-0.0714 0.3829,-0.12067 0.8633,-0.2745 -0.1275,-0.051 -0.2748,-0.11003 -0.4332,-0.1724 0.3631,0.0254 0.7392,0.0577 1.1139,0.10935 0.2958,0.23227 0.656,0.54809 0.8897,0.96737 -0.8644,0.0449 -1.6663,-0.30801 -2.4337,-0.62982 z m 2.907,-4.08038 c -0.7715,-0.0936 -1.6413,-0.20069 -2.2039,-0.77516 0.9581,-0.15871 1.9553,0.009 2.8953,0.48776 -0.3353,0.37864 -0.4281,0.31966 -0.6914,0.2874 z m 5.2141,-9.6486 c -0.3019,0.36993 -0.7733,0.54878 -1.4894,0.56202 -1.1711,0.16063 -2.1653,-0.56089 -3.1612,-1.11928 0.9138,0.27167 1.5013,0.72853 2.5734,0.88146 -0.6684,-1.09246 -1.4715,-0.69593 -3.127,-2.23291 2.1029,0.55013 1.9023,0.0543 3.9266,0.60911 0.4902,0.13436 0.9967,0.27167 1.5152,0.35193 -0.065,0.36064 -0.1424,0.67204 -0.2376,0.94767 z m 0.7907,-6.14054 c -0.7051,-0.43592 -1.3102,-1.03291 -1.9001,-1.57829 0.4556,0.20703 0.9332,0.36041 1.3961,0.49682 l 0,7.9e-4 c 0.3545,0.14523 0.6944,0.29714 1.0566,0.43297 0.3282,0.1312 0.6712,0.2865 1.0698,0.48459 -0.4655,0.0893 -1.046,0.17795 -1.6221,0.16312 z m -38.5522,25.9083 c 1.0481,1.0354 1.9535,2.1806 3.015,3.24329 -0.6826,0.0919 -2.8625,-1.98071 -3.3298,-3.21884 0.1047,-0.007 0.2141,-0.0164 0.3148,-0.0245 z m 9.1049,-0.66107 c -0.1998,-0.22243 -4.9334,-5.327 -5.4918,-7.08482 1.3597,1.64462 1.6625,2.6781 3.9189,4.54052 l 0,0.004 c 0.051,0.0356 0.032,0.0216 0.082,0.0621 l 0,-0.002 c 0.839,0.60344 1.5093,1.54852 1.9446,2.74364 -0.085,-0.0496 -0.352,-0.20522 -0.4523,-0.26307 z m 2.3722,0.6785 c -0.09,0.0272 -0.2524,0.0758 -0.3422,0.10357 -0.6533,-0.008 -1.1239,-0.49659 -1.3998,-1.45423 0.5908,0.50565 1.1417,0.95798 1.742,1.35066 z m 1.0385,1.0071 0,0 c 1.2201,0.30054 2.1756,1.18245 2.8512,2.2311 -1.2413,-0.26975 -4.1424,-1.56686 -4.6559,-2.68863 0.6435,0.18111 1.2024,0.29646 1.8046,0.45719 z m 8.0836,3.13678 c -0.5247,-0.21983 -0.8811,-0.69288 -1.1832,-1.18675 1.4745,0.21677 2.0478,1.50234 4.7988,1.99666 0.3139,0.16595 0.664,0.3525 0.8662,0.66322 -1.4566,-0.32895 -2.9238,-0.81128 -4.4818,-1.47313 z m 19.8501,-4.04665 c 0.2489,0.16957 0.5089,0.34333 0.7763,0.51878 -0.751,-0.10278 -1.5074,-0.13685 -2.2477,-0.24043 -0.047,-0.0491 -0.1174,-0.12327 -0.1625,-0.1707 0.5489,-0.0147 1.0977,-0.0504 1.6339,-0.10765 z m -8.8895,-4.2779 c 0.6565,-0.17036 1.0511,-0.28276 1.5131,-0.37321 0.285,0.079 0.5563,0.2204 0.8182,0.35069 -0.5473,0.39607 -1.4968,0.1304 -2.3313,0.0225 z m -1.9442,-45.006722 0,-2.4e-4 c -0.1153,-0.17409 -0.2188,-0.33766 -0.356,-0.57299 0.5416,-0.15893 0.6582,0.46704 0.5623,0.88394 -0.067,-0.10085 -0.1516,-0.22741 -0.2064,-0.31072 z m 0.3136,-2.06526 c 0.6056,-0.0762 0.7315,-0.09 0.922,-0.11207 -0.6755,-0.326 -1.1057,-0.47259 -1.4957,-0.78116 0.9792,0.2831 1.9968,0.49523 2.9441,0.87998 0.05,0.0869 0.1344,0.23432 0.1904,0.33337 -0.621,0.39154 -1.5388,0.86221 -2.4958,0.62348 -0.2286,-0.26386 -0.1334,-0.61013 -0.065,-0.9436 z m -22.1004,57.273772 c -1.3036,-0.19391 -2.4971,-0.84988 -3.3694,-1.8503 0.075,-0.0328 0.1458,-0.0641 0.3557,-0.15678 -0.3996,-0.5121 -0.8448,-0.96477 -1.4417,-1.2481 -0.083,-0.0778 -0.1643,-0.15576 -0.2435,-0.23329 0.2664,0.0104 0.5347,0.0208 0.8053,0.0328 0.8553,0.84241 1.5934,1.47313 2.3745,2.06651 l 0,0 c 0.6216,0.4761 1.3195,0.79373 1.9426,1.29122 -0.1251,0.0295 -0.2836,0.0658 -0.4239,0.0979 z m 1.335,-0.199 c -0.078,0.0252 -0.1948,0.0627 -0.2715,0.0872 -0.9864,-0.82633 -1.808,-1.92365 -2.3818,-3.18047 1.3431,0.38114 1.7113,1.92864 2.6648,2.85243 0,0.0492 -0.01,0.16753 -0.012,0.24088 z m 8.9433,-1.68741 c -1.1065,-0.25164 -2.1029,-0.58602 -2.4704,-1.53177 0.9972,0.45426 1.8083,0.95707 2.4704,1.53177 z m 5.1936,-2.66214 c 0.7035,-0.11796 1.3724,-0.2993 2.0656,-0.30473 3.1367,0.30122 2.2839,-0.53813 4.082,0.77415 -4.7626,0.2822 -3.2963,0.0524 -6.1476,-0.46942 z m 5.2777,-1.04129 c -0.3706,-0.064 -0.7525,-0.12984 -1.0145,-0.39189 3.1581,0.13833 4.2577,-0.64341 6.0368,0.68914 0.2076,0.15542 0.4218,0.3157 0.6419,0.44724 -0.8399,0.98514 -2.6503,-0.22391 -5.6642,-0.74449 z M 125.32621,43.095229 c 0.5101,-0.95696 0.7188,-0.27201 2.2428,-1.60546 -0.1042,0.99114 -1.2505,1.83185 -2.2428,1.60546 z m 9.496,4.829956 c -0.5575,0.38509 -1.3333,0.72717 -1.5012,0.0657 0.2803,-0.0635 0.2133,-0.0861 1.5012,-0.0657 z M 34.381211,21.334319 c -0.6255,0.32431 -1.0988,0.91892 -1.3787,1.73348 -0.763,0.47701 -0.2295,0.14319 -0.7014,0.43513 0.037,-0.24881 0.075,-0.50384 0.1172,-0.75276 0.4206,-0.64589 0.8235,-1.19795 1.4777,-1.4197 0.1133,10e-4 0.2984,0.003 0.4852,0.004 z m 9.7376,-5.52849 c -0.875,1.38087 -1.4665,1.00721 -2.8436,3.51881 0.1518,-1.68255 1.68,-3.24827 2.8436,-3.51881 z m 3.1744,3.14979 0,0.003 c 0.01,0.0282 0.01,0.0187 0.02,0.10743 l 0.01,-0.006 c 0.1713,0.58602 0.3978,1.15302 0.627,1.70315 -2.3181,-2.31984 -1.5697,-2.69022 -0.706,-3.98495 l 0.1053,0.0592 c -0.2874,0.66865 -0.1558,1.39729 -0.052,2.1188 z m 36.796599,4.66311 c 0.118,0.54594 0.1654,1.05215 0.1452,1.5415 -0.2825,-0.47565 -0.3091,-0.51776 -0.4913,-0.82837 -0.7157,0.65812 -0.437,0.91825 -1.9647,2.90303 l -0.038,-0.253 c 0.3348,-0.60209 0.5552,-1.18969 0.7158,-1.81815 -0.2174,-0.0584 -0.3034,-0.0796 -0.5238,-0.13901 l -0.1861,0.63526 c -0.1749,-0.19447 -0.3485,-0.38883 -0.5203,-0.58341 0.216,-0.2762 0.4156,-0.57096 0.6249,-0.87478 0.6704,-0.12135 1.2286,-0.52444 1.7934,-0.89425 l 0.445,0.31118 z m 3.8884,4.43819 c -0.079,0.0109 -0.2362,0.0342 -0.3139,0.0453 0.2676,-0.62065 0.412,-0.94881 0.5143,-1.18188 -0.5955,0.38532 -1.2723,0.9298 -1.7582,0.41951 0.9276,-0.47056 1.9797,-0.57787 2.906,-0.29488 -0.2466,0.52806 -0.867,0.70703 -1.3482,1.01198 z m -30.167899,-8.28074 c 0.1044,0.48764 -0.059,0.97314 -0.061,1.4763 -0.093,0.35453 0.1948,1.11192 -0.3155,0.9856 -0.3229,-0.34842 -0.2781,-0.92029 -0.3849,-1.39797 0.087,-0.43547 0.3929,-0.74461 0.7617,-1.06393 z m -3.9866,-1.22026 c 0.1786,-0.32351 0.4952,-0.52013 0.7994,-0.66661 -0.1091,0.62088 -0.1626,1.19264 -0.1628,1.7405 -0.3038,-0.32125 -0.6285,-0.64453 -0.6366,-1.07389 z m -1.912,1.94448 c -0.5874,-1.43362 -1.1792,-3.21408 -0.2021,-4.40943 0.1491,1.65662 0.5466,3.18782 1.1819,4.555 -0.2467,-0.037 -0.6113,-0.0919 -0.9798,-0.14557 z M 189.69391,135.5981 c -0.2952,0.43489 -0.5998,0.8844 -1.1202,0.72026 0.2025,-1.14101 0.931,-6.93937 1.0758,-7.5633 0.866,-0.009 0.7101,0.48934 0.7921,1.53663 0.1445,1.84102 0.2915,3.77328 -0.7477,5.30641 z M 17.771811,39.770889 c -0.025,0.054 -0.015,0.0335 -0.047,0.0916 l 0,0.001 c -0.4058,0.84987 -1.0075,1.66013 -1.8404,2.47503 l 0.05,0.0858 c 0.207,-0.0606 0.4127,-0.11988 0.6192,-0.17874 -0.5573,0.80539 -1.2531,1.38914 -2.0247,1.69851 1.1106,-2.44277 3.6429,-5.97584 5.5146,-6.85526 -1.1615,1.05611 -1.8969,2.01556 -2.2707,2.68387 l 0,-0.002 z m 0.6277,-2.16238 c -0.2582,0.31343 -0.5638,0.62642 -0.9436,0.96669 0.1027,-0.2539 0.2262,-0.52704 0.382,-0.78241 0.1863,-0.062 0.3738,-0.12418 0.5616,-0.18428 z m 0.7628,-5.7824 c 0.1739,0.43841 0.3649,0.86097 0.507,1.31761 -0.9725,-0.4469 -1.8136,-0.87761 -2.4618,-1.48163 0.6062,-0.0149 1.2932,-0.007 1.9548,0.16402 z m 2.9946,1.4179 -0.1137,0.0143 c -0.3508,-0.37015 -0.5159,-0.54413 -0.7991,-0.83856 l -0.2903,0.30982 c -0.5927,-0.0697 -1.0626,-0.48085 -1.4476,-0.8467 1.4094,0.0627 2.6816,0.16175 3.8762,0.6039 -0.38,0.27755 -0.7862,0.55839 -1.2255,0.75728 z m -4.2189,9.60139 c -0.058,0.01 -0.1952,0.032 -0.2576,0.0422 1.6026,-2.98317 0.3565,-2.88344 2.9631,-4.50634 -0.4183,0.33733 -2.6461,4.35058 -2.7055,4.46411 z M 9.4882111,60.850358 c -0.4962,1.06597 -1.1693,2.04954 -1.6497,3.1292 -0.4151,0.9187 -0.9023,1.8486 -1.6456,2.54385 1.3381,-1.57025 0.3966,-1.35552 2.4736,-4.48709 0.2827,-0.42607 0.5719,-0.8655 0.8364,-1.31568 l -0.015,0.12972 z"
     id="path7469"
     inkscape:connector-curvature="0" />
</svg>
