<?xml version="1.0" encoding="UTF-8"?>
<svg enable-background="new 0 0 2416.805 1685.36" version="1.1" viewBox="0 0 2416.805 1685.36" xmlns="http://www.w3.org/2000/svg">
 <style type="text/css">.st0{fill:#030404;}</style>
 <path class="st0" d="m2403.3 341.69c-1.844-0.349-3.454-1.295-4.975-2.303-0.795-0.617-1.85-0.021-2.672 7e-3 -2.083 0.459-4.365 0.116-5.989-1.309-0.994 0.233-1.973 0.473-2.912 0.713-0.891-1.131-2.104-1.946-3.468-2.296 0.123 0.535 0.356 1.603 0.473 2.145-0.404-0.041-1.227-0.123-1.631-0.158-0.233-0.26-0.692-0.781-0.918-1.035-1.432-0.123-2.816-0.377-4.132-0.836-0.267 0.185-0.795 0.562-1.062 0.747-0.761-0.651-1.487-1.288-2.186-1.919-1.98 0.178-3.947 0.274-5.886 0.452 1.193 1.021 2.488 1.939 3.824 2.816-1.473-7e-3 -3.132 0.397-4.036-1.035-1.145-1.61-3.07-0.432-4.153 0.583-0.898-0.555-1.679-1.364-2.761-1.206 0.363-0.411 1.076-1.233 1.432-1.645-1.686-0.171-2.81 0.815-3.831 1.926-1.323 0.014-2.625 0.021-3.899 0.027-0.507-0.685-0.987-1.357-1.432-2.028-1.062 0.253-2.11 0.493-3.132 0.733-0.713-0.953-1.021-2.522-2.371-2.714-4.146-0.562-8.134-2.227-12.362-2.035-2.042 0.199-3.94-0.973-5.948-0.555-0.754 0.178-1.508-0.075-2.179-0.226-0.685 0.562-1.315 1.185-1.857 1.843-0.329-0.137-0.987-0.411-1.316-0.541-0.089 0.233-0.274 0.706-0.363 0.946-1.083-0.151-2.152-0.089-3.173 0.082-0.932-1.014-2.097-1.72-3.365-2.138-0.247-0.822-0.459-1.638-0.637-2.446-0.583 0.507-1.158 1.021-1.672 1.542-0.459 0.048-1.377 0.151-1.836 0.199-1.158-1.809-1.782-3.865-2.248-5.934-1.74 0.274-1.604 2.33-2.097 3.618-1.48-0.397-3.029-0.562-4.242 0.514-2.09 0.137-4.146-0.432-6.208-0.055-1.069-1.734-3.077-0.391-4.591-0.37-2.001 0.493-3.783-0.548-5.523-1.282-1.761-0.178-3.509 0.302-5.235-0.144-0.089-0.521-0.274-1.556-0.363-2.076-2.008 0.685-3.673 1.987-4.893 3.687-0.363-2.686-3.625-1.316-5.441-1.316-0.144 0.26-0.425 0.781-0.569 1.042-1.528-0.555-3.077-0.987-4.632-1.336-0.247 0.37-0.74 1.103-0.987 1.473-1.891-7e-3 -3.755-0.322-5.283-1.466-0.74 0.281-1.459 0.562-2.145 0.85-0.349-0.651-0.672-1.295-0.966-1.939-2.59 0.665-5.242-0.733-7.716 0.589-0.322-1.124 0.171-2.905-1.391-3.125-0.425 1.083-0.939 2.124-1.542 3.104-2.446-0.733-5.098-2.241-7.538-0.726-1.473-0.569-2.83-1.357-3.974-2.405-3.79-0.473-7.874 1.377-11.375-0.699-2.001-1.233-4.159 0.774-6.236-0.041-2.556-0.726-5.434 0.233-7.661-1.487-2.076 0.569-3.844-0.719-5.592-1.569-0.548 0.377-1.062 0.761-1.555 1.158-2.933 0.514-5.845-1.233-8.662 0.027-1.33-0.418-2.707-0.692-4.043-0.302-0.185-0.212-0.562-0.637-0.747-0.85-2.7 1.138-5.626-0.219-8.299 0.87-0.836-0.713-1.638-1.425-2.419-2.138-0.253 0.014-0.774 0.041-1.028 0.048-0.343 0.507-1.028 1.508-1.364 2.008-0.288-0.562-0.85-1.686-1.131-2.248-0.932 0.027-1.844 0.062-2.714 0.096-0.096-2.165-1.85-1.316-3.193-1-2.111-0.658-4.399-0.411-6.407-1.357-6.325-2.036-4.068-1.338-9.957-0.377 0.212-0.774 0.452-1.549 0.713-2.309-1.199 0.164-2.371 0.336-3.509 0.528-0.226-0.493-0.685-1.487-0.911-1.987-2.282 1.076-4.454 2.344-6.654 3.543-0.713-0.98-1.439-2.446-2.857-1.651-0.507-0.966-1.48-0.994-2.398-0.952-0.363-0.164-1.096-0.493-1.46-0.658-0.644 0.206-1.274 0.363-1.884 0.473-4.057-1.076-8.278-0.349-12.396-0.521-0.658-0.432-1.261-0.898-1.809-1.398-0.733 0.288-1.425 0.706-1.98 1.227-0.37 0.062-1.103 0.178-1.473 0.24-0.575 0.487-1.124 0.973-1.645 1.466-0.322-0.281-0.959-0.836-1.281-1.117 0.185-0.692 0.384-1.377 0.61-2.063-1.268 0.678-2.474 1.446-3.632 2.254-2.638-0.918-5.386-1.371-8.12-1.768-1.467 0.788-2.72 0.336-3.323-1.213-5.862-0.118-5.872-4.302-9.518-1.974-0.898-0.185-1.768-0.158-2.604 0.062-2.104-0.788-4.235-2.008-6.524-1.398-2.81 0.685-5.557-0.48-8.353-0.274-2.316-0.48-4.578-2.2-6.983-1.158-2.974 1.021-5.571-1.583-8.525-1.158-1.35 0.164-2.48-0.535-3.556-1.172-0.987 1.912-3.008 0.857-4.605 0.576-1.357 0.603-2.803 0.877-4.18 0.26-0.582 0.089-1.137 0.185-1.665 0.288-4.926-5.833-8.613 0.131-14.658-2.885-2.48-1.22-4.653 1.199-7.106 1.275-1.556-1.165-2.597-3.166-4.598-3.563-1.556-0.021-1.727-1.72-2.302-2.775-2.925-0.138-1.37-2.515-6.914-0.535-1.035-7e-3 -2.063 0.082-3.049 0.226-1.158-0.356-2.302-0.692-3.419-1.042-4.387 2.7-2.065 2.606-8.086 2.522-0.521-0.432-1.028-0.857-1.501-1.275-1.336 1.062-3.001 1.35-4.632 1.418-1.446-1.357-3.152-2.364-4.749-3.488-9.331-1.55-9.99 3.205-16.151 1.24-0.349 0.24-1.048 0.726-1.398 0.966-0.685-0.603-1.336-1.192-1.974-1.789-0.493 0.658-0.959 1.316-1.405 1.974-0.343-0.302-1.035-0.898-1.377-1.192-0.98-0.158-1.919-0.302-2.844-0.452-0.322-1.062-0.672-2.117-0.966-3.166-0.76 0.589-1.316 1.371-1.74 2.207-0.329 0.178-1.001 0.534-1.33 0.713-3.385-1.22-6.88-0.219-10.162 0.754-1.172-0.5-2.391-0.678-3.563-0.185-0.336-0.158-1.007-0.466-1.343-0.624-1.096 0.61-2.172 1.22-3.228 1.85-0.411-0.733-0.795-1.46-1.151-2.193-1.432-0.473-2.899-0.802-4.365-0.994-0.788-0.562-1.583-1.131-2.316-1.679-2.302 2.22-5.523 4.344-8.744 2.57-2.186 1.007-4.653 0.356-6.907 1.014-0.322-0.514-0.61-1.028-0.87-1.535-1.898-1.192-3.83-3.166-6.27-2.474-2.857 0.85-5.955 0.788-8.586 2.309-0.301-0.13-0.911-0.397-1.213-0.528-0.877 2.008-3.796 0.959-5.489 1.939-0.281 0.322-0.843 0.966-1.117 1.281-1.055-0.164-2.09-0.322-3.104-0.452-1.199-2.145-3.419-2.707-5.66-3.022-1.802 1.329-4.016 1.775-6.126 0.959-2.309 0.487-4.708 0.288-6.976 0.87-1.878 0.802-4.344-1.645-5.4 0.939 7e-3 -0.425 0.027-1.268 0.041-1.693-1.268 0.206-2.974 0.939-2.858-1.048-1.747-0.439-3.604-0.994-5.256 7e-3 -3.618 1.699-7.257-1.514-8.271-4.886-1.069 1.028-2.015 2.172-2.851 3.385-0.932-0.822-1.98-1.549-3.063-2.076 0.082 0.521 0.26 1.562 0.343 2.09-2.111-0.713-4.345-0.672-6.524-0.555-0.356-0.918-0.678-1.83-0.973-2.748-1.782-0.459-3.625-0.5-5.42-0.665-1.823 0.911-3.885 0.754-5.626-0.219-2.035-0.473-4.139 0.123-6.14-0.391-0.87-0.343-1.686 0.212-2.453 0.439-0.336-0.144-1.007-0.432-1.343-0.583-1.946 1.09-4.269 0.939-6.202-0.055-0.11-0.569-0.329-1.699-0.438-2.268-1.61 2.446-5.112 4.386-7.586 1.946-1.137 0.171-2.289 0.281-3.399 0.329-0.98-1.014-2.193-1.699-3.481-2.193 0.089 0.445 0.26 1.329 0.343 1.768-2.517-1.901-10.811 0.995-13.685-0.918-3.282-1.549-7.216-3.611-10.82-2.145-2.762-0.514-5.263-1.946-6.962-4.187-0.233-0.123-0.713-0.363-0.953-0.487-0.199 0.432-0.596 1.288-0.795 1.713-1.035 0.158-2.063 0.322-3.049 0.493-0.932-0.548-1.85-1.09-2.748-1.631-0.857 0.295-1.686 0.596-2.508 0.891-0.576-1.035-1.172-2.069-1.727-3.091-0.302 1.11-0.583 2.227-0.836 3.344-0.185-0.48-0.541-1.446-0.72-1.926-0.911 0.487-1.74 1.083-2.481 1.761-0.925-1.419-1.459-3.454-3.323-3.858-0.021 1.007-0.014 2.021 0.014 3.036-0.507-0.014-1.535-0.034-2.042-0.041-0.068-0.987-0.11-1.967-0.123-2.94-0.562 0.075-1.679 0.219-2.234 0.295-0.055 0.466-0.164 1.391-0.226 1.857-1.302-0.959-3.803-3.084-4.955-0.891-1.007-0.096-1.987-0.027-2.933 0.178-1.069-0.288-2.111-0.589-3.145-0.877-0.87 0.596-1.775 1.179-2.597 1.782-0.137-0.363-0.418-1.09-0.555-1.453-0.267 0.206-0.802 0.61-1.069 0.815-0.178-0.384-0.535-1.144-0.713-1.521-0.363 0.226-1.103 0.678-1.473 0.905-1.37-1.24-3.063-0.151-4.619-0.219-0.781-0.761-1.185-1.795-1.679-2.714-0.253 0.343-0.767 1.035-1.021 1.377-0.617-1.055-1.234-2.111-1.802-3.166-0.672 0.288-1.33 0.576-1.96 0.87-3.015-1.549-5.811 2.213-8.826 0.37-1.528 0.726-3.152 0.617-4.351-0.617-1.987-0.672-4.023-1.172-6.071-1.556-0.212 0.877-0.404 1.754-0.582 2.631-0.932 0.048-1.85 0.096-2.741 0.158-0.336-0.247-1-0.74-1.336-0.987-0.315 0.343-0.939 1.014-1.247 1.35-0.5-0.589-0.987-1.179-1.453-1.761-1.809-0.034-3.83 0.206-5.105-1.322-1.021-0.089-2.028-0.151-3.008-0.199-0.014 0.425-0.048 1.274-0.062 1.699-0.665-0.864-1.343-1.693-2.104-2.446-0.678 0.336-1.35 0.665-2.001 1-1.055-1.206-2.248-2.268-3.57-3.139 0.575 1.508 1.213 3.008 1.686 4.571-0.857-0.309-1.501-0.85-1.932-1.624-1.302 0.329-2.57 0.713-3.817 1.131-1.336-0.343-3.289 0.034-3.659-1.679-0.439 0-1.316-7e-3 -1.761-7e-3 -0.637-0.822-1.343-1.693-0.994-2.789-1.686 0.295-3.44 0.904-3.879 2.782-1.515-1.035-2.049-3.406-4.064-3.57-2.646 0.207-1.767 4.654-8.888 0.884-0.918 0.267-1.829 0.521-2.714 0.774-0.767 0.939-1.473 1.925-2.083 2.967-2.652-1.528-3.276-5.153-6.215-6.215 0.205 1.213 0.473 2.419 0.747 3.632-0.576-0.37-1.131-0.733-1.672-1.096-0.466 0.014-1.398 0.048-1.864 0.068-0.507-2.522-3.022-4.016-5.366-4.461 1.192 1.432 1.473 3.207 1.37 5.016-1.083-0.322-2.145-0.644-3.193-0.966-0.219-0.295-0.658-0.884-0.877-1.179-3.056 0.336-5.694-1.336-8.593-1.857-1.487-1.35-3.179-2.453-5.078-3.077 0.302 1.014 0.274 2.419 1.617 2.686-0.027 1.035-0.055 2.076-0.082 3.125-1.727-1.672-3.872-2.816-5.482-4.612-0.987-1.309-3.262-1.343-3.899 0.301 0.637 0.315 1.295 0.637 1.96 0.98-2.81-0.021-5.571-1.028-8.367-0.548-1.953-2.035-5.256-1.919-6.798-4.461-1.775 0.021-3.55-0.014-5.297-0.055-0.096 0.541-0.288 1.624-0.377 2.172-2.666-1.302-4.427-4.043-7.469-4.543-1.055-0.226-0.747-1.747-1.144-2.501-1.473 0.178-3.481-0.61-4.351 0.973 0.089 0.925 0.658 1.699 1.035 2.549-1.172 0.768-2.529 0.884-3.858 0.85-0.439-1.042-0.706-2.172-1.35-3.084-0.802-0.555-1.898-0.37-2.768-0.589-0.432 3.289 0.822 6.318 1.521 9.45-0.761-0.391-1.473-0.816-2.241-1.103-11 0.466-13.874-7.308-44.24-16.809-32.75-12.443-31.774-4.592-37.75-6.01-2.633-2.39-3.776-10.924-15.288-7.517-7.428-2.963-27.636-4.978-30.85-4.749-3.803 0.397-7.058-3.084-10.875-1.823-2.398 1.035-5.489 0.994-6.996 3.454-0.761-0.932-1.515-1.843-2.255-2.762-3.262-2.145-7.209-2.487-10.656-4.132-2.707 0.857-5.523 0.39-8.223-0.158-2.857 0.473-5.496 1.775-8.36 2.097-0.267 0.226-0.809 0.685-1.083 0.918-0.397 0.075-1.199 0.233-1.597 0.308-0.329-0.274-0.994-0.829-1.323-1.11-8.451 0.659-15.076 6.337-16.535 7.291-3.202-1.025-3.408-1.35-7.14 2.138-1.398-0.404-2.816-0.713-4.235-0.898-0.768 0.905-1.425 1.891-1.898 2.967-5.023-1.802-9.086-5.441-13.712-7.997-42.926-22.586-38.785-26.489-74.857-44.939-10.291-6.576-41.963-20.552-47.276-23.333-70.322-27.618-79.618-63.988-94.25-73.089-2.522-1.754-5.146 0.74-6.798 2.529-4.857 7.714-1.424 5.856-1.227 13.856 0.082 3.084 2.254 5.468 3.522 8.12 29.432 99.699 85.752 143.96 95.874 164.5 12.551 17.161 8.303 14.593 24.443 25.553-1.699 1.151-3.55 2.172-5.667 2.021-3.894 4.564-3.56 2.433-10.34 3.666-3.371 0.596-6.983-0.13-10.114 1.521-2.255 1.364-4.872-0.075-7.223 0.74-19.078 6.057-27.282 8.028-29.85 12.554 3.776-0.206 6.476-3.508 10.299-3.693-3.296 2.542-7.312 3.824-11.231 5.043-3.981 1.281-6.092 5.756-10.313 6.496-2.255 0.514-3.81 2.316-5.249 3.988-4.945 2.114-4.698 4.426-14.418 11.711-3.547 0.896-8.54 8.071-9.559 8.901-1.386 1.174-15.453 14.488-16.912 15.494-3.673 1.364-4.769 5.619-7.935 7.668-1.871 1.096-2.515 3.495-4.488 4.399-11.141 11.418-11.297 9.817-15.055 12.999-0.197 0.154-18.562 23.998-19.297 25.245-1.172 5.969-5.708 10.525-7.387 16.295 4.819-1.682 6.811-12.264 14.185-19.989-0.068 1.795-0.164 3.598-0.302 5.393 0.425-0.034 1.275-0.117 1.699-0.158 0.946-2.686 2.241-5.235 3.392-7.839 2.203-1.863 11.333-12.918 15.459-12.89-0.87 0.884-1.741 1.747-2.638 2.583-0.082 0.411-0.247 1.227-0.329 1.638-2.104 1.158-3.639 2.988-4.091 5.372-3.088 2.676-1.808 5.553-4.461 9.95 0.034 3.056-1.501 5.838-1.494 8.901 3.16 5.569 0.4 4.221-3.44 11.642-1.761 3.687-5.523 5.955-7.264 9.662-0.548 1.302 0.336 2.885 1.85 2.768-0.891 1.775-3.46 4.372-1.055 6.003-1.377 1.576-3.029 3.07-3.55 5.181-0.87 3.132-4.043 4.769-5.366 7.675-1.686 0.802-2.926 2.213-4.42 3.276 0 0.795 0.014 1.597 0.041 2.412 1.494-0.021 2.995-0.13 4.475-0.425-0.815 1.418-1.59 2.878-2.063 4.454-0.548 0.548-1.083 1.103-1.597 1.672-0.192 2.172-3.543 3.604-1.686 5.811-1.199 2.809-3.433 5.016-4.653 7.819-1.048 2.193-0.096 4.756-1.165 6.969-1.309 2.995-2.789 5.975-3.125 9.278 0.85 0 1.713 7e-3 2.59 0.021 0.548-1.576 1.275-3.09 2.296-4.42-0.116-0.425-0.356-1.268-0.48-1.693 1.501-1.508 3.522-2.611 4.159-4.783-0.281-0.336-0.85-1.007-1.131-1.343 1.741-2.275 2.021-5.386 4.242-7.332 0.021-0.692 0.062-1.377 0.117-2.056 1.343-0.315 1.514-1.795 2.186-2.782 0.726-1.131 1.747-2.035 2.666-3.008-0.267 0.768-0.528 1.542-0.781 2.316 0.274 0.315 0.822 0.939 1.096 1.247-0.555 0.514-1.11 1.035-1.651 1.556-0.041 0.349-0.116 1.055-0.158 1.405-1.288 1.261-2.426 2.741-2.597 4.598-2.241 3.022-3.618 6.729-3.563 10.519-2.467 0.356-1.508 4.427-4.132 3.933-0.521 1.309-1.953 2.837-0.733 4.194 0.793 1-0.795 4.901-2.522 6.462-1.08 7.133-2.812 5.651-4.714 7.928-0.404 1.151-0.185 2.419-0.219 3.632-1.096 1.007-2.364 1.96-2.864 3.419-1.11 3.063-4.303 5.194-4.077 8.751 1.034-0.597 4.078-2.956 5.002-3.995-0.521 1.446-0.953 2.926-1.412 4.399-0.911-7e-3 -1.809-7e-3 -2.7 0-0.034 0.432-0.11 1.288-0.151 1.713-1.83 0.925-3.851 2.172-4.125 4.413 1.206-0.041 2.419-0.24 3.536-0.74-7e-3 0.397-0.027 1.199-0.041 1.597 2.899-0.343 4.523-3.406 5.777-5.77 1.138-0.953 1.679-2.604 3.269-2.933-0.766 5.775-8.753 14.625-10.834 25.094 0.322 0.267 0.959 0.795 1.281 1.062-2.472 2.472-7.756 9.626-8.6 15.021-5.145 7.845-32.512 67.528-55.766 95.778-4.769 7.456-31.36 48.115-38.182 53.635-1.062 1.905-2.289 3.728-3.111 5.763-0.795 2.46-3.481 3.488-4.55 5.79-1.576 2.864-4.125 4.941-6.393 7.216-0.702 1-4.867 6.94-6.716 8.504-1.528 3.104-3.474 6.01-5.544 8.778-2.625 2.419-3.556 5.969-5.619 8.792-5.201-1.578-5.005-2.414-9.833 0.247-0.953 2.063-2.46 3.837-4.598 4.721 0.367-4.287-2.429-17.973-2.686-21.496-0.218-13.22-16.289-40.661-17.885-44.408-33.914-79.592-49.205-86.333-164.78-146.28 2.291-0.808-47.348-9.338-74.093-4.46-13.394 2.443-26.46 6.301-39.082 11.394-9.897 3.993-29.469 7.368-38.044 17.092-4.241 3.908-15.467 14.545-18.118 19.619-0.905 1.96-2.919 3.015-4.07 4.79-41.904 67.406-0.427-5.218-43.443 76.172-4.802 9.086-8.307 19.215-13.648 27.938-24.288 39.666-1.099-20.377-55.148 111.99 1.947-0.758-33.123 68.223-54.545 102.32 1.462 1.402-57.789 89.294-86.607 133.45-32.869 65.284-67.869 156.09-67.869 156.09-1.806 9.466-24.898 51.638-11.51 128.85 4.689 27.043 21.21 55.267 12.928 82.988-5.525 18.493-24.199 146.91-23.723 145.48-1.779 5.336-5.025 55.794-5.208 56.794-0.623 3.965-5.743 37.292-5.838 42.547h622.26c0.075-30.478-2.871-120-2.871-120-0.707-2.029-0.508-30.918-0.685-55.416-0.336-0.843-0.63-1.706-0.363-2.577 0.788-3.556-0.137-7.36 1.508-10.724 2.43-10.533 6.562-13.855 7.25-25.704 0.308-0.034 0.932-0.103 1.247-0.137 0.096-1.706 0.075-3.892 2.138-4.331-0.939 1.857-0.432 4.057 0.911 5.592 0.932 0.521 1.782-0.206 2.577-0.63-7e-3 0.439-0.027 1.323-0.034 1.761 3.686 1.424 2.66 22.715 4.303 28.527 0.939-0.041 1.891-0.048 2.858-0.048 1.384-2.953 2.241-6.188 1.364-9.429-0.959-3.659 0.473-7.579-0.946-11.101 1.233-2.782 0.137-5.934 0.589-8.86-1.72-2.707-1.809-6.01-2.583-9.025 0.809-3.639-0.507-7.373-1.432-10.882 0.685-1.521 0.692-3.193 0.651-4.804l0.692-0.014c7e-3 1.405 0.048 2.864 0.672 4.18 0.5-0.014 1.508-0.041 2.008-0.055 0.034 1.494 0.089 3.008 0.137 4.536 1.412 0.459 2.851 1.041 4.385 0.946 0.13-0.459 0.391-1.37 0.521-1.823 2.09 4.029 2.515 8.943 5.708 12.376 6.933 13.804 6.741 16.976 9.676 22.744 0.103 1.213 0.178 2.494 0.809 3.611-0.904 0.233-1.782 0.514-2.652 0.809-0.014 0.445-0.041 1.343-0.055 1.795 1.85 0.678 4.564 0.185 5.523 2.344 0.665 1.144 1.514 2.179 2.405 3.2 6.78 0.807 2.14 2.106 9.861 0.706-0.014-1.042-0.014-2.056 7e-3 -3.049 1.062-0.863 1.946-1.905 2.412-3.193 5.883 7.887 11.472 14.247 12.451 15.247 1.048 7e-3 2.104 0 3.18 0.027-0.3-1.453-3.027-5.965-4.235-6.311 0.582-1.192 0.555-2.542 0.562-3.81-0.637-0.315-1.268-0.617-1.884-0.891-0.062-1.418-0.384-2.775-1.446-3.748-0.062-0.911-0.096-1.788-0.13-2.645-0.322-0.164-0.966-0.486-1.281-0.651 0.055-1.672 0.466-3.289 0.781-4.907 2.562-3.166 8.682-9.525 9.415-13.294 1.516-4.832 3.512-7.806 4.338-12.712 4.713-8.412 2.054-10.146 4.701-14.671 1.158-1.795-0.569-5.174 1.919-5.804 0.041-0.349 0.11-1.048 0.151-1.391 0.63-0.911 1.631-1.864 1.144-3.063-1.432-3.132 0.925-6.38-0.075-9.573-0.717-2.636-0.661-12.721-1.919-14.562 0.432-0.596 0.877-1.165 1.343-1.706-2.562-11.995-0.116-8.236-3.399-10.107 0.199-0.26 0.582-0.774 0.781-1.035-0.014-1.103 7e-3 -2.193 0.055-3.262 0.987 1.775 1.37 3.81 2.337 5.619 0.925 1.823 2.316 3.556 2.323 5.722 0.508 10.441 19.22 45.828 32.652 54.368 2.385 1.37 2.871 4.55 5.413 5.79 1.939 1.884 4.797 2.638 6.421 4.817 0.953 0.048 1.912 0.089 2.892 0.178-0.048-0.445-0.137-1.323-0.185-1.768-2.296-2.967-6.174-4.146-7.983-7.497-0.062-0.384-0.178-1.144-0.24-1.528-1.425-1.61-3.365-2.618-4.776-4.208-3.981-3.687-6.27-8.703-9.628-12.903-2.179-2.446-2.748-5.797-3.399-8.888-0.322-0.308-0.973-0.918-1.295-1.22 0.911-6.257 0.677 1.199-2.878-13.184-0.308-0.295-0.918-0.884-1.227-1.179 0.24-0.281 0.726-0.843 0.966-1.117-0.336-0.658-0.665-1.295-0.987-1.912 3.93-0.213-1.255-3.814-0.555-11.43 0.959 1.048 1.727 2.522 3.365 2.577 0-1.556 0-3.09-0.014-4.612-2.172-2.042-3.036-4.941-4.571-7.401-1.329-2.015-0.624-4.817-2.33-6.592-1.055-0.809-0.068-2.124 0.089-3.09-0.295-0.164-0.891-0.487-1.192-0.651-0.24-1.83-0.754-3.563-1.391-5.263-0.267-2.433-0.528-4.858-0.959-7.257-0.295-0.288-0.898-0.863-1.199-1.151 0.048-1.59-0.151-3.173-1.391-4.276 0.076-5.057-2.179-9.731-2.193-14.74-0.123-2.008-1.864-3.824-1.014-5.873 0.966-2.563 7e-3 -5.304-1.453-7.449-0.426-1.988-4.836-19.22-5.016-19.598 19.224 0.46 19.069-2.041 24.135-0.26 4.968 1.76 25.883 1.17 31.501 2.823 10.872 0.983 11.271 0.013 19.708-11.382 8.611-9.617 12.373-10.421 19.961-19.831 10.421-14.242 7.259-15.091 5.42-25.457-0.706-4.166-3.721-7.88-3.454-12.177 1.919-2.549 4.173-4.906 5.297-7.956 2.234-4.763-0.404-10.334 1.912-15.041 1.842-3.887 0.524-10.14 5.455-15.987 1.665-3.289 1.364-7.504 4.379-10.012 3.022-3.577 6.366-6.866 9.299-10.505 1.391-0.596 2.645-1.446 3.755-2.474 2.111-2.015 5.023-2.768 7.346-4.488 0.336-0.055 1.014-0.178 1.357-0.233 3.561-2.772 15.417-7.027 21.065-10.429 4.269 5.21-1.013 0.314 7.277 8.052-0.891 4.42-1.535 8.929-2.83 13.273-25.244 7.24-13.081 29.362-12.759 31.405-8.58 8.376 1.372 6.677 1.508 11.32-3.001-0.123-6.03-0.857-8.97 0.069-1.672 1.576-2.906 3.529-4.393 5.27-6.872 7.049-23.895 19.166-26.403 46.604-1.55 9.814 4.164 11.882 6.359 14.02-2.37 16.068-55.43 375.63-55.59 376.72 10.597 0.017 21.194 0.035 31.791 0.052 14.21-110.36 41.776-216.48 43.712-224.98 5.283-21.712 30.206-141.22 30.288-142.22 4.7-0.511 13.699 3.054 16.501-15.953 3.766-19.642 2.269-27.632-6.352-45.638-1.377-2.631-0.733-5.996-2.748-8.305-1.905-1.987-4.797-1.501-7.25-1.693-1.083-0.466-0.637-1.679-0.672-2.542 1.48-0.089 2.974-0.158 4.475-0.226 0.761-0.74 1.535-1.473 2.33-2.172 0.185-2.124-0.377-4.16-1.521-5.921 1.583-2.7 4.118-4.646 5.811-7.25 4.478-5.759 6.372-18.567-5.345-26.698-0.781-2.727-0.11-5.749-0.343-8.579 0.021-2.241-0.185-5.502 2.46-6.352 7.892-2.646 10.344-9.795 10.642-18.077 5.379-1.19 15.994-10.667 21.428-11.636 2.864-0.391 4.502-3.269 7.339-3.693 2.008-0.473 3.495-2.035 5.235-3.043 1.384-0.98 2.255-3.276 4.201-3.07 2.851 1.348 6.218 8.153 15.261-1.254 11.862 4.882 13.227-6.731 15.61-13.054 22.053-3.659 51.196-29.877 52.196-30.281 2.074-0.838 14.311 7.318 16.417 8.249 14.543 6.424 72.133 30.557 81.108 17.51 7.396-10.752 26.649-21.578 29.795-26.423 0.349-3.947-2.405-7.325-2.947-11.163 3.138-3.255 7.223-5.414 10.265-8.778 7.375 3.606 13.816 0.28 19.913-2.268 11.185-5.242 15.76-17.433 27.054-24.251 32.548-20.78 81.268-60.939 116.07-77.262 53.518-22.461 38.936-36.599 50.243-47.851 0.062-0.719 0.144-1.425 0.247-2.117 1.055-1.151 1.974-2.419 2.775-3.762 5.057 0.603 9.758-1.727 14.788-1.597 0.356 0.151 1.062 0.452 1.418 0.603 74.976-11.404 145.2-5.834 232.75 39.683 13.047 7.641 27.629 12.102 40.821 19.461 9.847 5.112 404.36 280.21 431.64 291.36 2.631 1.857 5.146 3.974 7.051 6.62 2.302 1.864 5.098 3.049 7.257 5.153 8.536 3.752 85.935 49.312 107.36 110.64 5.865 16.784 4.65 29.941 16.003 57.947 3.833 8.235 17.212 55.239 23.388 58.397v-1170.5c-7.151 1.166-4.447-1.616-13.555-0.664zm-1334.3 71.595c-0.267-1.001 0.836-2.453 1.884-2.371 0.302 0.987-0.828 2.535-1.884 2.371zm-631.21 365.52m341.98 558.29c-0.26 3.214 1.028 6.27 0.815 9.491-0.37-0.336-1.11-1.014-1.48-1.357 0-2.707-0.014-5.4-7e-3 -8.086l0.672-0.048zm-97.943-315.55c0.699-0.918 1.138-1.987 1.521-3.049 2.692 0 2.785-2.695-2.063 18.18-10.835 46.657-42.363 62.424-41.44 61.423 23.196-25.148 30.868-32.62 38.926-64.918 0.932-3.934 3.769-7.402 3.056-11.636zm-26.053 6.944c0.329-0.257-0.164-9.759 0.74-12.738 3.207-2.317 5.372-5.646 8.408-8.186 2.55-0.248 6.236-5.807 7.99-5.626 0.501 2.582-1.609 5.906-2.078 10.233-0.84 7.749-1.436 5.746-3.911 12.039-1.731 4.402-1.38 4.178-7.84 9.431-1.213 0.986-2.213 2.944-4.084 2.195 0.096-2.479 1.015-4.856 0.775-7.348zm2.857 12.839c0.493-0.596 0.987-1.179 1.494-1.754 4.22-2.405 5.43-3.977 3.305 3.098-3.746 12.469-9.733 21.386-9.733 21.386-0.513-24.194 3.691-18.308 4.934-22.73zm-17.131-8.86c1.846-1.624 1.646-3.477 5.331-6.312 0.45-0.346 2.037-1.011 2.251-1.466-3.026 6.435-0.544 14.507-3.812 20.822-1.524 2.945-15.297 15.483-19.125 13.788 2e-3 -3e-3 15.355-26.832 15.355-26.832zm-20.809 59.328c-7.147-2.734-8.401-2.965-8.9-4.366-0.683-1.917 4.991-14.557 12.831-19.102 17.641-11.703 13.18-9.967 15.802-10.157 1.782-2.145 4.218-3.422 4.218-3.422 0.074 13.115-5.434 26.171-14.879 35.271-3.453 3.327-5.268 3.232-9.072 1.776zm108.64 140.62c-0.171-0.199-0.528-0.589-0.706-0.788 1.037-7.689-17.323-47.43-22.926-55.565-16.158-23.463-36.655-39.689-40.851-43.399-5.842-5.165-15.551-15.082-15.743-15.237-1.453-1.17-3.331-1.96-4.718-3.189-2.35-2.083-4.81-4.022-7.346-5.852 6.688-0.981 18.081-7.084 26.197-18.345 7.952-11.034 41.68-39.737 37.059-81.14 0.877-0.096 1.761-0.096 2.652-0.014 18.419 6.679 21.741 6.284 30.398 9.066-1.213 3.255-2.446 6.524-4.331 9.47-12.784 25.451-21.424 78.383-21.43 81.198-6e-3 3.214 1.43 6.27 2.16 9.35 10.982 46.346 18.051 14.063 10.078 68.629-0.616 4.214-0.722 9.418 0.989 13.439 1.409 3.377 2.631 13.484 7.202 19.502 1.46 3.337 4.715 5.366 6.517 8.463-1.289 1.958-2.967 3.576-5.201 4.412zm59.315 229.79c-0.583 0.747-0.829 1.624-0.74 2.638-2.535-2.577-0.534-6.462-1.754-9.491-0.692-1.768 0.534-4.016-0.843-5.489 0.206-3.604-0.603-7.127-1.46-10.587 1.034-18.017-3.471-19.714-3.44-27.102-0.425-0.706-0.857-1.384-1.295-2.035 0.397-3.303-0.713-6.38-0.822-9.621l-0.493-0.651c-0.178-1.165 0.274-2.556-0.678-3.44-0.13-1.179 0.075-2.419-0.589-3.433-0.103-0.768-0.363-1.453-0.767-2.049-0.185-1.172 0.158-2.508-0.699-3.44-0.185-1.158 0.26-2.535-0.678-3.406-0.041-3.57-2.104-6.846-1.453-10.484-2.816 0.123-0.356-2.535-1-3.92-1.318-1.751 2.513-3.736-2.405-4.543-0.014 0.459-0.041 1.371-0.055 1.83-0.445-0.692-0.87-1.377-1.288-2.049-0.075-1.432-0.164-2.844-0.206-4.249l-1.206-1.206c-0.021-1.192-0.034-2.371-0.062-3.522-1.679-1.446-2.111-3.693-3.31-5.441-0.027-0.356-0.082-1.055-0.11-1.412-0.439-0.672-0.863-1.336-1.275-1.987-0.027-0.363-0.089-1.083-0.116-1.439-2.783-2.418-3.6-7.859-3.419-10.272-2.111-0.624-2.864-2.775-4.187-4.276-1.535-1.775-1.974-4.139-2.741-6.27 2.357 0.062 4.427-1.042 6.647-1.583 1.425-1.117 3.351-0.466 5.009-0.521 0.315 1.521 1.562 2.439 3.18 2.405 0.014-0.713-1.22-2.035-0.404-2.357 2.296-0.432 1.021 1.384 0.946 2.261 1.425 2.522-0.233 5.701 1.117 8.285-1.597 1.789 1.014 3.762-0.343 5.578-0.487 2.556-0.137 5.249 0.466 7.778-0.123 2.104 0.302 4.153 0.836 6.188 0.439 0 1.316 0 1.754-7e-3 0.932-1.384 0.891-3.179 0.582-4.735-1.338-4.201-0.416-15.806-0.699-17.09-1.014-2.892-0.459-5.982-0.384-8.949 0.487-1.035 1.713-0.678 2.625-0.795 0.034 0.356 0.103 1.069 0.137 1.418 0.843-0.014 1.699-7e-3 2.563 0.014 0.027-0.343 0.082-1.028 0.11-1.377l0.459 0.034c0.212 0.418 0.63 1.261 0.843 1.686 0.089 1.35 0.089 2.727-7e-3 4.112-0.665 0.754-0.562 1.747-0.576 2.7 1.062 0.98 0.493 2.529 0.644 3.81-0.507 0.027-1.514 0.068-2.015 0.089-7e-3 2.844-0.192 5.694 0.027 8.545 0.302 0.11 0.905 0.329 1.206 0.438 0.507 3.659 1.357 7.236 2.357 10.8 0.452-7e-3 1.35-0.027 1.802-0.041-0.082-2.186-0.144-4.365-0.069-6.53 1.494 0.767 0.343 2.905 1.103 4.235 1.261 2.953-0.959 5.838-0.267 8.881 3.365 2.707 1.569 7.387 2.001 11.074-0.761 0.274-2.138 0.521-2.063 1.597 2.395 11.24 0.721 10.344 2.707 13.321-0.041 1.501 0.082 3.022 0.624 4.468 0.315 3.632-0.027 7.312 0.219 10.971 0.404 2.522 1.521 4.934 1.316 7.552-0.185 1.185 0.322 2.227 1.247 2.994-0.617 1.138-0.603 2.44-0.699 3.728 0.692 0.349 1.425 0.651 2.186 0.904-1.172 1.124-0.473 2.741 0.596 3.639 0.364 21.703-0.692 41.826-0.692 41.826zm17.851-40.499c-2.049 0.027-1.22-2.165-1.377-3.46 0.349-0.281 1.048-0.85 1.398-1.131-0.014 1.515-0.014 3.043-0.021 4.591zm2.083 25.238c0.075-2.926-0.233-5.88 0.116-8.764l0.548-0.685c-0.021-2.453-0.932-4.762-1.357-7.133-0.117-1.919-0.069-3.837-0.082-5.729 1.688 0.508 3.924 22.461 0.775 22.311zm31.522-12.238c-1.357-0.219-2.714-0.308-4.07-0.281v2.117l-0.884 0.062c0.233-1.411 0.658-2.748 0.918-4.132-0.5-0.027-1.501-0.082-2.001-0.117-0.61-1.878-1.905-3.378-2.871-5.043-0.034-2.351-0.562-4.619-0.706-6.928 1.069-1.028 1.206-4.16-0.541-4.482-0.178-0.863-0.356-1.651-0.719-2.398 1.192-2.35 0.459-5.338-0.809-7.503 0.027-1.09 0.521-2.063 0.692-3.097-0.624-3.282-1.295-6.572-1.535-9.895l-0.459-0.706c-0.274-1.576 0.528-3.529-0.685-4.783-0.178-2.625 0.171-5.27-0.254-7.86-1.137-2.988 0.164-6.277-0.946-9.251-0.384-1.371-0.254-2.796-0.267-4.167 2.357-2.823-1.151-6.14-0.637-9.23 0.113-1-1.83-13.586-0.034-19.167-0.884-4.386-1.083-9.08-0.027-13.479 1.384 0.726 0.336 2.631 0.939 3.865 0.672 1.398 0.103 3.18 1.124 4.434 0.055 1.59 0.041 3.193 0.089 4.811 2.364 4.262 2.2 9.408 3.282 14.068 0.288 1.213-0.267 2.734 0.74 3.748 0.418 2.46-0.596 5.256 0.617 7.531 0.432 4.083 3.221 13.537 1.487 15.089-0.032 0.409 1.599 10.027 1.439 12.033 0.137 0.247 0.425 0.747 0.562 1 0.507 6.112-0.925 12.663 1.357 18.468 0.144 2.371 0.24 4.749 0.308 7.14 0.432 0.014 1.295 0.055 1.727 0.076 0.014-1.727 0.034-3.44 0.151-5.133 1.096 0.583 0.459 2.049 0.644 3.063 0.014 1.946-0.302 3.975 0.48 5.845 0.665 3.323-0.432 6.846 0.665 10.135 0.361 1.343 0.19 2.762 0.224 4.167zm19.811 26.135c-0.843 0.665-0.589 1.782-0.754 2.727-0.384 0.685-0.61 1.432-0.672 2.241-0.308 0.274-0.932 0.815-1.24 1.083-0.021 1.165-0.041 2.35-0.075 3.55-1.062 2.001-2.275 3.974-2.83 6.208-1.37 1.432-1.7 3.817-3.796 4.488-1.138-1.83-2.433-3.693-2.35-5.934-1.323-2.467-0.432-5.537-0.493-8.223 0.192-0.445 0.576-1.329 0.767-1.775 0.836-0.014 1.679-7e-3 2.529 0.027 0.082-2.858 7e-3 -5.708 0.096-8.545 1.158-1.062 0.473-2.823 0.678-4.173 1.137-0.816 1.48-2.09 1.391-3.413 0.295-0.301 0.884-0.918 1.179-1.226v-1.467c-2.851-1.816 0.164-4.749-0.514-7.257-0.192-0.233-0.576-0.706-0.768-0.946 0.685-1.117 1.439-2.186 2.357-3.104 0.445-0.014 1.343-0.034 1.789-0.048v-2.076c-0.185-0.233-0.555-0.706-0.74-0.939 0.946-0.699 0.514-2.117 1.439-2.796 0.322 2.261-0.692 4.865 0.603 6.914 0.082 1.61 0.151 3.262 0.63 4.838-0.767 1.706-0.534 3.604-0.377 5.427 0.788 0.946 0.891 2.72-0.754 2.672-0.185 2.659 0.322 5.277 0.761 7.901 0.295 0.027 0.898 0.089 1.199 0.117-7e-3 1.221-0.014 2.468-0.055 3.729zm184.4-190.82c2.529 0.034 4.31 2.282 5.331 4.379 1.409 7.116 5.521 29.98-2.748 32.46-1.753 1.092-1.567-1.809-4.084-6.53 0 0-30.756-4.884-37.305-7.373-2.008-0.754-4.112-0.158-6.03 0.521-0.507-4.66 1.741-8.826 3.001-13.143 7.935-19.118 13.024-16.423 19.187-14.411 0.014 0.768 0.055 1.556 0.11 2.357 2.727 1.528 5.592 3.221 8.84 3.131 2.762 0.487 6.784 1.59 8.531-1.329 1.665-0.426 3.447-0.09 5.167-0.062zm1.877-46.762c-6.871 7.772-19.454-1.962-10.34-11.142 1.761-1.576 2.254 1.946 3.262 2.885 1.131 0.267 2.268 0.726 3.467 0.672 1.473-0.555 2.604-1.727 3.927-2.556 1.261 1.672 1.926 3.714 1.919 5.825-1.042 1.273-1.097 3.082-2.235 4.316zm4.605-45.453c-0.37-0.74-0.706-1.446-1.042-2.159 0.548-0.541 1.117-1.069 1.686-1.583 0.439-0.014 1.316-0.027 1.754-0.041-0.548 1.405-1.26 2.762-2.398 3.783zm7.929-693.84c-0.096-0.959 0.336-1.384 1.302-1.281 0.061 0.938-0.371 1.37-1.302 1.281zm29.596-71.157c-0.959 1.124-1.98 2.22-2.522 3.625-2.679 1.651-3.769 5.242-6.777 6.25 0.719-2.508 1.275-5.078 3.008-7.12 0.706-2.022 2.823-3.344 2.816-5.605 0.911-0.021 1.836-0.034 2.768-0.041 0.445-0.85 0.891-1.699 1.343-2.549 0.377-0.212 1.137-0.63 1.514-0.843-0.999 1.898-4.268 4.063-2.15 6.283zm3.412-16.371c-7e-3 -0.884 0.788-1.624 1.535-1.994 1.302 0.309-0.623 2.611-1.535 1.994zm217.18 674.87c0.301 1.048-0.816 1.597-1.487 2.124-3.296 2.206-6.044 5.482-9.929 6.647-4.995-4.605-12.163-2.755-18.077-4.893 0.294-7.115-7.304-5.946-19.187-13.794 4.495-2.823 10.293-5.208 15.507-2.933 12.151 2.868 19.542 0.964 24.183 1.823 3.646-0.761 7.38-0.788 11.101-0.898-2.324 3.523-2.612 7.84-2.111 11.924zm186.74-118.71c-0.384 0.082-1.158 0.254-1.542 0.343-1.35 1.932-3.453 3.173-5.365 4.475-2.974 0.377-5.009 2.864-7.675 3.988 1.275-3.365 4.598-5.249 6.078-8.483 0.857-1.871 1.953-3.611 3.461-5.037 1.076 0.021 2.213 0.062 3.214 0.617 1.651 0.918 3.646 0.569 5.372 1.336-1.295 0.774-2.488 1.692-3.543 2.761z"/>
 <path class="st0" d="m43.23 726.42l0.253 0.095c-0.161 0.079-0.259 0.064-0.253-0.095z"/>
 <path class="st0" d="m1003.9 177.17c0.66-0.68 0.66-0.68 0 0"/>
 <path class="st0" d="m1003.1 177.92c-0.73 0.67-0.73 0.67 0 0 0.19-0.19 0.57-0.56 0.76-0.75-0.19 0.19-0.57 0.56-0.76 0.75"/>
 <path class="st0" d="m997.38 181.94c0.32-0.6 0.32-0.6 0 0"/>
 <path class="st0" d="m971.27 186.28c0.44 0.53 0.44 0.53 0 0"/>
 <path class="st0" d="m981.02 208.34c-1.37 3.02 3.34-0.11 0 0"/>
 <path class="st0" d="m42.05 730.99c-1.51 3.05 3.26 0.08 0 0"/>
 <path class="st0" d="m16.29 797.32c0.4 0.39 0.4 0.39 0 0"/>
 <path class="st0" d="m14.96 798.88"/>
 <path class="st0" d="m-34.61 914.09"/>
 <path class="st0" d="m-45.98 923.27c-0.04 0.75 2.2-1.4 0 0"/>
 <path class="st0" d="m-63.88 961.22c-1.56 3.09 3.17 0.3 0 0"/>
 <path class="st0" d="m623.33 1685.4c0.37 0.38 0.37 0.38 0 0z"/>
</svg>
